<?xml version="1.0" encoding="UTF-8"?>
<svg id="b" data-name="Camada 2" xmlns="http://www.w3.org/2000/svg" viewBox="0 0 1500.71 732.26">
  <defs>
    <style>
      .f {
        fill: #5900ff;
      }

      .g {
        fill: #fd2c78;
      }
    </style>
  </defs>
  <g id="c" data-name="Camada 1">
    <g>
      <path class="f" d="M1318.06,617.37v-30.29h1.08v30.29h-1.08ZM1320.22,617.37v-30.29h2.16v30.29h-2.16ZM1325.62,617.37v-30.29h1.08v30.29h-1.08Z"/>
      <path class="f" d="M1337.14,616.73v-29.66h2.16v29.66h-2.16ZM1342.54,616.73v-29.66h1.08v29.66h-1.08ZM1346.86,616.73v-29.66h1.08v29.66h-1.08Z"/>
      <path class="f" d="M1356.22,617.37v-30.29h1.08v30.29h-1.08ZM1360.54,617.37v-30.29h2.16v30.29h-2.16ZM1363.78,617.37v-30.29h1.08v30.29h-1.08Z"/>
      <path class="f" d="M1375.3,617.37v-30.29h2.16v30.29h-2.16ZM1378.54,617.37v-30.29h1.08v30.29h-1.08ZM1382.86,617.37v-30.29h1.08v30.29h-1.08Z"/>
      <path class="f" d="M1394.38,617.23v-30.16h1.08v30.16h-1.08ZM1398.7,617.23v-30.16h3.24v30.16h-3.24ZM1403.02,617.23v-30.16h2.16v30.16h-2.16Z"/>
      <path class="f" d="M1413.46,617.37v-30.29h2.16v30.29h-2.16ZM1416.7,617.37v-30.29h2.16v30.29h-2.16ZM1421.02,617.37v-30.29h2.16v30.29h-2.16Z"/>
      <path class="f" d="M1432.54,617.37v-30.29h2.16v30.29h-2.16ZM1435.78,617.37v-30.29h3.24v30.29h-3.24ZM1440.1,617.37v-30.29h3.24v30.29h-3.24Z"/>
      <path class="f" d="M1451.62,617.37v-30.29h3.24v30.29h-3.24ZM1455.94,617.37v-30.29h2.16v30.29h-2.16ZM1461.34,617.37v-30.29h1.08v30.29h-1.08Z"/>
      <path class="g" d="M1470.7,617.37v-30.29h1.08v30.29h-1.08ZM1472.86,617.37v-30.29h1.08v30.29h-1.08ZM1477.18,617.37v-30.29h2.16v30.29h-2.16Z"/>
      <path class="f" d="M1489.78,617.37v-30.29h2.16v30.29h-2.16ZM1495.18,617.37v-30.29h1.08v30.29h-1.08ZM1499.5,617.37v-30.29h1.08v30.29h-1.08Z"/>
      <path class="f" d="M1395.33,637.83c.92.47,2.39,1.32,3.08,1.87l-.56,1.11c-.66-.54-2.18-1.48-3.06-1.93l.54-1.05ZM1395.83,647.29c3.17-2,5.24-5.7,6.39-11.12.23.19.68.45.95.58-1.23,5.37-3.41,9.37-6.37,11.35,0,.17-.16.37-.23.45l-.74-1.27ZM1396.63,633.1c.97.53,2.28,1.4,2.88,1.95l-.56,1.15c-.68-.64-1.95-1.5-2.9-2.03l.58-1.07Z"/>
      <path class="f" d="M1412.58,637.05c.02-1.46.04-3.08.04-4.85l1.48.08c-.02.17-.16.27-.35.31,0,1.58-.02,3.12-.08,4.46h3.23v1.27h-3.27c-.21,5.14-.97,8.41-3.49,10.73-.21-.23-.66-.6-1.01-.84,2.41-2.12,3.17-5.12,3.41-9.89h-3.82v-1.27h3.86Z"/>
      <path class="f" d="M1422.66,648.04v-1.05l1.34-1.3c3.23-3.08,4.69-4.71,4.71-6.62,0-1.29-.62-2.47-2.51-2.47-1.15,0-2.1.58-2.69,1.07l-.54-1.21c.88-.74,2.12-1.29,3.58-1.29,2.73,0,3.87,1.87,3.87,3.68,0,2.34-1.69,4.22-4.36,6.79l-1.01.93v.04h5.68v1.42h-8.08Z"/>
      <path class="f" d="M1436.5,645.25c.76-1.19,1.34-3.06,1.66-5.06l.88.47c-.35,2.1-.95,4.21-1.75,5.53l-.78-.93ZM1440.2,632.5l1.38.1c-.02.19-.14.31-.33.33v3.47h3.15v1.29h-3.15v9.5c0,1.52-.41,1.67-2.38,1.67-.04-.33-.16-.82-.29-1.23.25.02.51.02.74.02.31,0,.56,0,.66-.02.17,0,.21-.12.21-.45v-9.5h-3.08v-1.29h3.08v-3.89ZM1444.16,646.17c-.35-1.5-1.21-4.01-1.83-5.51l.86-.55c.66,1.46,1.5,3.78,1.87,5.2l-.9.86Z"/>
      <path class="f" d="M1458.58,638.24v1.23h-3.25c-.16,3.52-.84,7.57-3.12,9.64-.17-.27-.6-.72-.88-.93,2.1-1.75,2.82-5.45,2.94-8.7h-3.56v-1.23h7.87ZM1451.55,632.91h6.27v1.23h-6.27v-1.23Z"/>
      <path class="f" d="M1467.89,632.36l1.46.12c-.02.16-.14.29-.33.33v3.31h2.12l.21-.08.7.21c0,.1-.06.21-.1.27-.33,6.07-1.36,10.18-4.61,12.58-.21-.29-.62-.7-.93-.95,3.06-2.08,4.21-5.9,4.44-10.85h-4.79v4.56h-1.01v-5.74h2.84v-3.76Z"/>
      <path class="f" d="M1478.2,644.82c0-1.6.95-2.73,2.51-3.39l-.02-.06c-1.4-.66-2.01-1.75-2.01-2.84,0-2,1.69-3.37,3.91-3.37,2.45,0,3.68,1.54,3.68,3.12,0,1.07-.53,2.22-2.08,2.96v.06c1.58.62,2.55,1.73,2.55,3.27,0,2.2-1.89,3.68-4.3,3.68-2.65,0-4.24-1.58-4.24-3.43ZM1485.02,644.75c0-1.54-1.07-2.28-2.78-2.77-1.48.43-2.28,1.4-2.28,2.61-.06,1.29.92,2.41,2.53,2.41s2.53-.95,2.53-2.26ZM1480.31,638.42c0,1.27.95,1.95,2.41,2.34,1.09-.37,1.93-1.15,1.93-2.3,0-1.01-.6-2.06-2.14-2.06-1.42,0-2.2.93-2.2,2.03Z"/>
      <path class="f" d="M1492.9,638.16h6.44l.16-.16.8.58c-.02.1-.16.18-.21.21-.66,5.18-2.12,8.43-5.55,10.14-.14-.29-.51-.78-.72-1.01,3-1.46,4.54-4.34,5.06-8.55h-5.98v-1.23ZM1493.68,633.06h5.71v1.23h-5.71v-1.23Z"/>
      <path class="f" d="M1395,674.47h7.87v1.3h-7.87v-1.3ZM1395.76,663.58h6.27v1.3h-6.27v-1.3Z"/>
      <path class="f" d="M1410.36,661.21l1.42.14c-.02.18-.16.33-.37.37v3.64h2.71v-4.44l1.27.1c-.02.18-.08.31-.23.35v3.99h1.85v1.27h-1.85v.74c0,3.89-.56,7.92-3.27,10.14-.19-.31-.54-.7-.8-.97,2.63-2.18,3.04-5.7,3.04-9.19v-.72h-2.71v5.32h-1.05v-5.32h-1.77v-1.27h1.77v-4.15Z"/>
      <path class="f" d="M1423.19,662.8h6.31l.18-.16.86.56c-.04.1-.16.2-.23.25-.23,7.54-1.44,11.12-5.22,14-.19-.29-.58-.72-.88-.97,3.35-2.49,4.79-5.74,4.98-12.42h-4.93v5.33h-1.07v-6.6Z"/>
      <path class="f" d="M1436.46,675.21c.35,0,.72-.02,1.11-.04.6-3.84,1.52-9.87,2.06-13.8l1.6.37c-.02.17-.23.31-.47.33-.57,3.68-1.58,9.6-2.14,13.03,1.46-.1,3.15-.23,4.52-.39-.47-1.75-1.11-3.68-1.66-5.08l.9-.45c.93,2.2,2.04,5.57,2.38,7.59l-1.09.58c-.08-.49-.17-1.03-.31-1.6-1.64.21-4.59.51-6.29.64-.06.16-.16.27-.33.31l-.27-1.5Z"/>
      <path class="f" d="M1455.68,676.67v-3.45h-5.88v-1.13l5.65-8.08h1.85v7.87h1.77v1.34h-1.77v3.45h-1.62ZM1455.68,671.88v-4.22c0-.66.02-1.32.06-1.99h-.06c-.39.74-.7,1.29-1.05,1.87l-3.1,4.3v.04h4.15Z"/>
      <path class="f" d="M1482.23,667.83c.1-1.32.12-2.8.14-4.4-1.13.41-2.41.84-3.47,1.11-.12-.31-.31-.72-.47-.99,2.08-.51,5-1.66,6.35-2.59l.9,1.09c-.06.06-.16.1-.25.08-.51.29-1.26.64-1.97.92-.02,1.73-.06,3.33-.16,4.79h3.12v1.29h-3.21c-.29,3.56-1.07,6.6-2.98,8.59-.21-.25-.62-.68-.92-.92,1.73-1.67,2.53-4.26,2.82-7.67h-3.66v-1.29h3.76Z"/>
      <path class="f" d="M1492.94,664.89h5.47l.2-.14.88.66c-.04.08-.23.16-.31.2-.6,1.4-1.4,2.71-2.3,4.05v8.02h-1.05v-6.64c-.93,1.23-2.03,2.34-3.08,3.17-.18-.27-.53-.6-.82-.86,2.36-1.77,4.56-4.62,5.86-7.28h-4.85v-1.19ZM1494.91,660.66c.97.58,2.59,1.79,3.43,2.57l-.82.93c-.82-.82-2.34-1.97-3.37-2.59l.76-.92ZM1497.96,669.81c.93.84,1.95,1.93,2.67,2.78l-.66,1.05c-.7-.95-1.65-2.04-2.57-2.96l.56-.88Z"/>
      <path class="f" d="M1408.76,690.63h7.73c.08-.08.14-.1.18-.12.17.19.33.43.8.86-.02.1-.21.19-.29.21-.95,2.76-2.38,5.43-3.76,7.54.72,1.34,1.32,2.55,1.67,3.58l-.99.95c-.7-2.2-2.63-5.72-4.05-7.75l.84-.74c.57.76,1.29,1.89,1.87,2.92,1.21-1.77,2.32-3.97,3.04-6.21h-7.03v-1.25Z"/>
      <path class="f" d="M1425.09,694.06c-.41,1.54-.9,2.94-1.52,4.05-.19-.33-.58-.64-.88-.93,1.19-1.97,1.89-5.43,2.3-8.88l1.5.29c-.02.16-.2.25-.41.27-.17,1.3-.41,2.63-.7,3.91h5.55v1.29h-2.41c-.27,4.48-1.11,8.8-3.21,10.98-.2-.25-.66-.64-.95-.88,2.06-2.04,2.86-6.04,3.08-10.11h-2.34Z"/>
      <path class="f" d="M1451.51,695.85c-.1-1.38-.49-3.74-.9-5.32l.93-.31c.41,1.56.84,3.88.97,5.3l-1.01.33ZM1458.93,690.3c-.04.14-.16.21-.29.25-.84,6.62-2.03,11.16-5.78,14.25-.17-.27-.6-.7-.88-.92,3.64-2.86,4.93-7.18,5.69-13.94l1.27.35ZM1454.3,695.27c-.1-1.58-.43-3.97-.74-5.59l.95-.29c.31,1.66.64,4.05.76,5.55l-.97.33Z"/>
      <path class="f" d="M1479.61,689.46l1.58.14c-.02.2-.21.33-.45.37v8.47h-1.13v-8.98ZM1484.36,688.72l1.62.12c-.02.17-.18.31-.47.37v6.11c0,4.42-.84,7.87-4.32,9.74-.16-.31-.54-.7-.86-.97,3.17-1.66,4.03-4.67,4.03-8.78v-6.58Z"/>
      <path class="f" d="M1492.86,693.86c.92.47,2.39,1.32,3.08,1.87l-.56,1.11c-.66-.54-2.18-1.48-3.06-1.93l.54-1.05ZM1493.37,703.33c3.17-2,5.24-5.7,6.39-11.12.23.19.68.45.95.58-1.23,5.37-3.41,9.37-6.37,11.35,0,.17-.16.37-.23.45l-.74-1.27ZM1494.17,689.13c.97.53,2.28,1.4,2.88,1.95l-.56,1.15c-.68-.64-1.95-1.5-2.9-2.03l.58-1.07Z"/>
      <path class="f" d="M1416.74,721.4v1.23h-3.25c-.16,3.52-.84,7.57-3.12,9.64-.17-.27-.6-.72-.88-.93,2.1-1.75,2.82-5.45,2.94-8.7h-3.56v-1.23h7.87ZM1409.71,716.07h6.27v1.23h-6.27v-1.23Z"/>
      <path class="f" d="M1454.02,715.52l1.46.12c-.02.16-.14.29-.33.33v3.31h2.12l.21-.08.7.21c0,.1-.06.21-.1.27-.33,6.07-1.36,10.18-4.61,12.58-.21-.29-.62-.7-.93-.95,3.06-2.08,4.21-5.9,4.44-10.85h-4.79v4.56h-1.01v-5.74h2.84v-3.76Z"/>
      <path class="f" d="M1479.92,715.73l1.42.14c-.02.18-.16.33-.37.37v3.64h2.71v-4.44l1.27.1c-.02.18-.08.31-.23.35v3.99h1.85v1.27h-1.85v.74c0,3.89-.56,7.92-3.27,10.14-.19-.31-.54-.7-.8-.97,2.63-2.18,3.04-5.7,3.04-9.19v-.72h-2.71v5.32h-1.05v-5.32h-1.77v-1.27h1.77v-4.15Z"/>
      <g>
        <path class="g" d="M2.42,151.76l1.31,1.38v8.35l-2.58,2.34v-10.89l1.27-1.17ZM11.04,162.61l1.62,1.73-.96.88-10.1-.89,2.58-2.33,6.87.6ZM11.7,150.81l.96,1.01-1.62,1.49-6.87-.59-1.31-1.41,1.31-1.14,7.53.65ZM22.11,151.71l1.3,1.41-1.31,1.14-6.87-.59-1.62-1.75,1-.86,7.49.65ZM22.11,163.55l2.58,2.81-10.07-.88-1-1.03,1.61-1.47,6.87.57ZM23.9,153.67l1.27,1.38v10.93l-2.58-2.82v-8.35l1.31-1.13Z"/>
        <path class="g" d="M11.7,134.97l.96,1.04-1.62,1.49-8.66-.76-1.25-1.38,1.25-1.21,9.31.82ZM23.9,136.04l1.28,1.41-1.28,1.17-8.66-.76-1.62-1.75,1-.89,9.28.81Z"/>
        <path class="g" d="M1.15,106.4l2.58,2.75v8.83l-2.58,2.34v-13.92ZM11.7,121.72l-10.1-.89,2.58-2.33,6.87.6,1.62,1.73-.96.88ZM11.87,110.04l1.29-1.2,1.29,1.44v8.99l-1.29,1.12-1.29-1.38v-8.97ZM15.24,119.48l6.87.57,2.58,2.81-10.07-.88-1-1.03,1.61-1.47ZM25.17,108.5v13.97l-2.58-2.82v-8.85l2.58-2.31Z"/>
        <path class="g" d="M1.15,80.8l2.58,2.75v8.35l-1.31,1.17-1.27-1.38v-10.89ZM11.04,93l1.62,1.75-.96.89-7.53-.65-1.3-1.41,1.31-1.17,6.87.59ZM13.16,82.76l1.29,1.44v2.89l-1.29,1.13-1.29-1.38v-2.89l1.29-1.2ZM22.11,82.14l1.3,1.41-1.31,1.14-6.87-.6-1.62-1.75,1-.86,7.49.65ZM22.11,93.95l1.3,1.45-1.31,1.14-7.49-.65-1-1.04,1.62-1.49,6.87.59ZM25.17,85.44l-1.27-1.38-1.31,1.13v8.35l1.31,1.41,1.27-1.17v-8.35Z"/>
        <path class="g" d="M2.42,56.1l1.31,1.38v8.35l-1.31,1.17-1.27-1.38v-8.35l1.27-1.17ZM11.7,55.16l.96,1.01-1.62,1.49-6.87-.59-1.3-1.42,1.31-1.14,7.53.65ZM11.04,66.92l1.62,1.75-.96.89-7.53-.65-1.3-1.41,1.31-1.17,6.87.6ZM22.11,56.05l1.3,1.41-1.31,1.14-6.87-.59-1.62-1.75,1-.86,7.49.65ZM22.11,70.46l1.3-1.12-1.31-1.43-6.87-.6-1.61,1.47,1,1.03,7.49.65ZM25.17,67.71l-1.27,1.17-1.31-1.41v-8.35l1.31-1.13,1.27,1.38v8.35Z"/>
      </g>
      <g>
        <path class="f" d="M4.08,42.8c0,.8-.59,1.24-1.36,1.24s-1.39-.43-1.39-1.24v-14.26c0-1.17.56-1.67,1.58-1.67,1.11,0,1.58.4,2.41,1.02,4.73,3.46,11.35,6.16,18.93,7.79.99.22,1.33.8,1.33,1.61v.09c-.03.87-.46,1.55-1.27,1.55-.12,0-.28-.03-.4-.06-7.05-1.58-14.2-4.7-19.83-8.57v12.5Z"/>
        <path class="f" d="M7.7,3.43c4.39.12,7.3.46,9.96,1.11,3.46.87,6.65,2.72,8.66,4.95.22.25.31.53.31.8,0,.37-.19.77-.56,1.05-.22.19-.5.28-.74.28-.34,0-.65-.15-.96-.46-1.76-1.95-4.33-3.37-7.11-4.17-2.23-.65-5.23-.99-9.56-1.14v4.02c2.2.68,4.14,1.33,5.63,2.23.37.22.56.62.56,1.02,0,.28-.06.56-.22.8-.19.34-.53.53-.93.53-.25,0-.5-.06-.74-.22-2.07-1.18-4.73-2.13-8.41-2.94-1.05-.25-2.04-.4-2.72-.5-.65-.09-.87-.56-.87-1.11v-.25c.06-.65.37-1.05.99-1.05.09,0,.15,0,.25.03.59.09,1.21.22,2.17.4.62.12,1.45.34,1.95.5-.03-.56-.06-1.11-.06-1.76V.96c0-.59.46-.96,1.18-.96s1.24.37,1.24.96v2.47Z"/>
      </g>
      <g>
        <path class="f" d="M.7,231.97c0-.71.34-1.18,1.11-1.18,2.97-.03,6.53-.25,9.46-.65,4.49-.62,8.29-1.48,10.79-2.63.25-.12.49-.19.74-.19.37,0,.74.19.99.56.19.28.28.59.28.83,0,.4-.19.77-.59.96-2.72,1.33-7.08,2.23-11.1,2.78-3.06.43-7.61.77-10.52.8-.71-.03-1.14-.43-1.18-1.21v-.09ZM23.5,239.58c.4.19.59.53.59.93,0,.28-.09.62-.28.9-.22.37-.59.53-.99.53-.25,0-.5-.06-.77-.19-2.47-1.14-6.19-2.01-10.64-2.6-2.94-.4-6.56-.56-9.59-.62-.77-.03-1.08-.56-1.08-1.33s.4-1.14,1.08-1.14h.06c2.91.03,7.45.34,10.58.74,4.02.53,8.29,1.52,11.04,2.78Z"/>
        <path class="f" d="M9.08,207.36c.65,0,.96.4,1.11.9.03.15.06.34.06.5,0,.43-.19.77-.71.9-2.63.4-5.69,1.02-8.01,1.79-.15.03-.31.06-.43.06-.46,0-.77-.28-.93-.74-.06-.25-.12-.46-.12-.68,0-.37.16-.68.56-.8,2.32-.83,5.69-1.48,8.2-1.89.09-.03.19-.03.28-.03ZM24.36,210.91c.19.22.28.49.28.77,0,.4-.19.83-.59,1.11-.22.22-.46.31-.71.31-.34,0-.65-.15-.99-.49-2.51-2.78-5.44-5.17-9.84-6.5-4.27-1.27-7.86-1.33-10.7-1.42-.74-.06-1.02-.53-1.02-1.05,0-.09,0-.19.03-.28.06-.62.34-1.14,1.24-1.14h.06c3.56.19,7.73.62,11.35,1.7,4.52,1.39,8.1,3.87,10.89,6.99ZM2.62,215.74c-.5,0-.9-.37-1.02-.8-.06-.19-.09-.34-.09-.5,0-.4.19-.74.65-.93,2.32-.83,5.63-1.55,8.13-2.01.15-.03.28-.03.4-.03.59,0,.9.31,1.05.87.06.19.09.37.09.53,0,.43-.19.83-.74.9-2.57.4-5.78,1.14-8.07,1.92-.12.03-.28.06-.4.06Z"/>
        <path class="f" d="M3.24,188.46c0,.65-.4.99-1.11.99s-1.21-.34-1.21-.99v-10.73c0-.68.46-.99,1.18-.99s1.14.34,1.14.99v5.1h6.53v-5.85c0-.68.5-.99,1.21-.99s1.11.34,1.11.99v5.85h7.89c1.48,0,1.98-.4,1.98-1.89,0-1.14-.09-2.57-.19-3.15-.03-.12-.03-.25-.03-.37,0-.62.31-1.02,1.11-1.08h.19c.74,0,1.02.4,1.11.96.19,1.14.22,2.6.22,4.08,0,3.03-1.14,3.9-4.33,3.9h-7.95v3.84c0,.65-.4.99-1.11.99s-1.21-.31-1.21-.99v-3.84H3.24v3.19Z"/>
      </g>
      <g>
        <path class="g" d="M1340.85,565.65l1.03-1,1.47,1.61-.6,6.87-1.43,1.31-1.12-1.3.65-7.49ZM1341.98,563.69l1.75-1.62.65-7.35-2.36-2.55-.93,10.56.89.96ZM1351.29,576.2l1.38-1.27-1.13-1.31h-8.35l-1.41,1.31,1.17,1.27h8.35ZM1355.24,565.65l-.86-1-1.75,1.62-.6,6.87,1.14,1.31,1.41-1.31.65-7.49ZM1354.49,563.69l1.01-.96.93-10.56-2.75,2.55-.67,7.35,1.49,1.62Z"/>
        <path class="g" d="M1379.92,576.2h-12.64l-1.17-1.27,1.41-1.31h10.1l2.3,2.58ZM1372.19,564.65l1.41-.14.1,2.27-5.53,6.22h-1.89s.17-1.79.17-1.79l5.74-6.56ZM1382.39,553.45l-1.38,1.31h-10.55l-2.37-2.58h13.13l1.17,1.27ZM1376.52,563.53l-2.28.28v-1.38l6.19-7.01h1.79l-.15,1.88-5.55,6.24Z"/>
        <path class="g" d="M1395.5,566.27l-.61,7.35-2.81,2.59.92-10.56,1.03-1,1.47,1.61ZM1393.26,562.73l.88-10.1,2.33,2.58-.6,6.87-1.73,1.62-.88-.96ZM1404.95,562.9l1.2,1.29-1.45,1.29h-9l-1.12-1.29,1.38-1.29h8.98ZM1408.09,552.18l-2.75,2.58h-8.35l-2.34-2.58h13.44ZM1407.4,565.65l-.92,10.56-2.29-2.58.61-7.35,1.75-1.62.86,1ZM1405.16,562.08l.6-6.87,2.79-2.58-.89,10.1-1,.96-1.49-1.62Z"/>
        <path class="g" d="M1422.43,574.93l-1.41,1.28-1.17-1.28.76-8.66,1.75-1.62.89,1-.81,9.28ZM1423.5,562.73l-1.04.96-1.49-1.62.76-8.66,1.38-1.25,1.21,1.25-.82,9.31Z"/>
      </g>
      <g>
        <path class="f" d="M1210.75,575.89c-.19.4-.53.59-.93.59-.28,0-.62-.09-.9-.28-.37-.22-.53-.59-.53-.99,0-.25.06-.49.19-.77,1.14-2.47,2.01-6.19,2.6-10.64.4-2.94.56-6.56.62-9.59.03-.77.56-1.08,1.33-1.08s1.14.4,1.14,1.08v.06c-.03,2.91-.34,7.45-.74,10.58-.53,4.02-1.52,8.29-2.79,11.04ZM1218.36,553.09c.71,0,1.18.34,1.18,1.11.03,2.97.25,6.53.65,9.46.62,4.48,1.48,8.29,2.63,10.79.12.25.19.5.19.74,0,.37-.19.74-.56.99-.28.19-.59.28-.83.28-.4,0-.77-.19-.96-.59-1.33-2.72-2.23-7.08-2.78-11.1-.43-3.06-.77-7.61-.8-10.52.03-.71.43-1.14,1.21-1.18h.09Z"/>
        <path class="f" d="M1234.59,555.01c0-.5.37-.9.8-1.02.19-.06.34-.09.5-.09.4,0,.74.19.93.65.83,2.32,1.54,5.63,2.01,8.13.03.16.03.28.03.4,0,.59-.31.9-.87,1.05-.19.06-.37.09-.53.09-.43,0-.83-.19-.9-.74-.4-2.57-1.14-5.78-1.92-8.07-.03-.12-.06-.28-.06-.4ZM1239.42,576.75c-.22.19-.49.28-.77.28-.4,0-.84-.19-1.11-.59-.22-.22-.31-.46-.31-.71,0-.34.15-.65.49-.99,2.78-2.5,5.17-5.44,6.49-9.83,1.27-4.27,1.33-7.86,1.42-10.7.06-.74.53-1.02,1.05-1.02.09,0,.19,0,.28.03.62.06,1.14.34,1.14,1.24v.06c-.19,3.56-.62,7.73-1.7,11.35-1.39,4.52-3.87,8.1-6.99,10.89ZM1242.97,561.47c0,.65-.4.96-.9,1.11-.15.03-.34.06-.5.06-.43,0-.77-.19-.9-.71-.4-2.63-1.02-5.69-1.79-8.01-.03-.15-.06-.31-.06-.43,0-.46.28-.77.74-.93.25-.06.46-.12.68-.12.37,0,.68.15.8.56.84,2.32,1.48,5.69,1.89,8.2.03.09.03.19.03.28Z"/>
        <path class="f" d="M1261.87,555.63c-.65,0-.99-.4-.99-1.11s.34-1.21.99-1.21h10.73c.68,0,.99.46.99,1.17s-.34,1.14-.99,1.14h-5.1v6.53h5.85c.68,0,.99.5.99,1.21s-.34,1.11-.99,1.11h-5.85v7.89c0,1.48.4,1.98,1.89,1.98,1.14,0,2.57-.09,3.15-.19.12-.03.25-.03.37-.03.62,0,1.02.31,1.08,1.11v.19c0,.74-.4,1.02-.96,1.11-1.14.19-2.6.22-4.08.22-3.03,0-3.9-1.14-3.9-4.33v-7.95h-3.84c-.65,0-.99-.4-.99-1.11s.31-1.21.99-1.21h3.84v-6.53h-3.19Z"/>
        <path class="f" d="M1287.93,555.1c-.8,0-1.24-.59-1.24-1.36s.43-1.39,1.24-1.39h14.26c1.17,0,1.67.56,1.67,1.58,0,1.11-.4,1.58-1.02,2.41-3.46,4.73-6.15,11.35-7.79,18.93-.22.99-.8,1.33-1.61,1.33h-.09c-.87-.03-1.55-.46-1.55-1.27,0-.12.03-.28.06-.4,1.58-7.05,4.7-14.2,8.57-19.83h-12.5Z"/>
        <path class="f" d="M1327.3,558.72c-.12,4.39-.46,7.3-1.12,9.96-.87,3.46-2.72,6.65-4.95,8.66-.25.22-.53.31-.8.31-.37,0-.77-.19-1.05-.56-.19-.22-.28-.49-.28-.74,0-.34.15-.65.46-.96,1.95-1.76,3.37-4.33,4.17-7.11.65-2.23.99-5.23,1.14-9.56h-4.02c-.68,2.2-1.33,4.14-2.23,5.63-.21.37-.62.56-1.02.56-.28,0-.56-.06-.8-.22-.34-.19-.53-.53-.53-.93,0-.25.06-.5.22-.74,1.18-2.07,2.13-4.73,2.94-8.41.25-1.05.4-2.04.5-2.72.09-.65.56-.87,1.11-.87h.25c.65.06,1.05.37,1.05.99,0,.09,0,.15-.03.25-.09.59-.22,1.21-.4,2.17-.12.62-.34,1.45-.49,1.95.56-.03,1.11-.06,1.76-.06h6.59c.59,0,.96.46.96,1.18s-.37,1.24-.96,1.24h-2.47Z"/>
      </g>
      <g>
        <path class="f" d="M1439.44,555.57c-.87,0-1.12.22-1.12,1.14v6.19c0,.71-.59,1.05-1.24,1.05s-1.24-.34-1.24-1.05v-6.87c0-1.98.83-2.91,2.63-2.91h6.96c2.16,0,2.97.93,2.94,3.28-.06,4.45-.62,8.69-1.73,12.03-1.14,3.4-3.43,6.68-6.25,8.6-.25.16-.49.25-.74.25-.4,0-.8-.19-.99-.56-.19-.31-.28-.59-.28-.83,0-.4.19-.71.56-.99,2.81-2.07,4.42-4.45,5.41-7.33,1.02-2.94,1.49-6.93,1.52-10.86,0-.96-.25-1.14-1.05-1.14h-5.38Z"/>
        <path class="f" d="M1464.83,566.27c0,.68-.56,1.02-1.24,1.02s-1.24-.31-1.24-1.02v-13.24c0-.71.59-1.02,1.24-1.02s1.24.34,1.24,1.02v13.24ZM1473.3,562.71c0,5.13-.53,7.67-1.86,9.99-1.21,2.13-3.31,3.65-5.44,4.7-.22.09-.43.16-.65.16-.46,0-.9-.25-1.18-.77-.09-.22-.15-.4-.15-.62,0-.46.31-.83.74-1.05,1.73-.83,3.49-1.98,4.55-3.77,1.08-1.86,1.52-3.93,1.52-8.6v-9.71c0-.71.59-1.02,1.24-1.02s1.24.31,1.24,1.02v9.68Z"/>
        <path class="f" d="M1496.31,564.82c1.58,2.17,3.03,4.42,4.08,6.43.12.25.19.53.19.74,0,.4-.19.74-.53.96-.28.19-.59.28-.83.28-.4,0-.74-.19-.93-.56-.9-1.76-1.98-3.5-3.12-5.17-1.73,3.71-3.99,6.8-6.46,9.16-.25.25-.59.37-.9.37-.34,0-.68-.15-.96-.43-.25-.25-.34-.56-.34-.83,0-.37.15-.74.46-1.02,2.57-2.35,4.95-5.75,6.53-9.53-1.76-2.35-3.65-4.52-5.35-6.43-.25-.28-.37-.56-.37-.83,0-.34.16-.65.43-.9.25-.22.56-.34.87-.34s.62.12.9.4c1.3,1.39,2.91,3.25,4.52,5.32,1.11-3.5,1.79-7.18,2.13-9.68.09-.71.56-.96,1.05-.96.12,0,.25,0,.37.03.62.09,1.11.43,1.11,1.11v.19c-.43,3.31-1.52,7.95-2.81,11.57l-.03.12Z"/>
      </g>
      <g id="d" data-name="UUUUZAQI">
        <path class="f" d="M263.61,273.92h68.06v158.8c0,50.11-40.63,90.74-90.74,90.74h-113.43l-68.06-68.06v-181.49h68.06v181.49h113.43c12.53,0,22.69-10.16,22.69-22.69v-158.8Z"/>
        <path class="f" d="M841.39,341.98h-419.32l-68.06-68.06h487.38v68.06ZM909.45,341.98v22.69l-68.06,68.06h-419.32c0,12.53,10.16,22.69,22.69,22.69h464.69l-68.06,68.06h-396.63c-50.11,0-90.74-40.63-90.74-90.74l68.06-68.06h419.32v-22.69h68.06Z"/>
        <path class="f" d="M1135.97,273.92l68.06,68.06v113.43l-68.06,68.06v-181.49h-113.43c-12.53,0-22.69,10.16-22.69,22.69v2.86h-68.06v-2.86c0-50.11,40.63-90.75,90.74-90.75h113.43ZM1067.91,364.66h68.06l-68.06,68.06h-45.37c-12.53,0-22.69,10.16-22.69,22.69v68.06h-68.06v-68.06c0-34.17,18.89-63.92,46.79-79.4,6.62-3.68,13.75-6.55,21.26-8.48,7.25-1.87,14.85-2.86,22.69-2.86h45.37Z"/>
        <path class="f" d="M1328.46,273.92l68.06,68.06v113.43h102.09v68.06h-272.23v-68.06h102.09v-113.43h-102.09v-68.06h102.09ZM1396.52,273.92h102.09v68.06h-102.09v-68.06Z"/>
      </g>
      <g id="e" data-name="DDDIEWGO">
        <path class="f" d="M322,184.39l-68.06,68.06h-113.39c-50.11,0-90.73-40.62-90.73-90.73v-90.73h68.06v90.73c0,12.51,10.15,22.7,22.7,22.7h113.43v-90.73c0-12.51-10.15-22.7-22.7-22.7h-113.46L49.82,2.94h181.46c50.11,0,90.73,40.62,90.73,90.73v90.73Z"/>
        <path class="f" d="M446.47,2.94l68.05,68.05v113.42h102.08v68.05h-272.21v-68.05h102.08v-113.42h-102.08V2.94h102.08ZM514.52,2.94h102.08v68.05h-102.08V2.94Z"/>
        <path class="f" d="M638.97,70.99h68.05c0,12.53,10.16,22.68,22.68,22.68h68.05l68.05,68.05h-136.1c-7.84,0-15.44-1-22.68-2.86-7.51-1.93-14.64-4.8-21.26-8.48-27.9-15.48-46.79-45.23-46.79-79.39ZM638.97,158.86h68.05v2.86c0,12.53,10.16,22.68,22.68,22.68h181.47v68.05h-181.47c-50.11,0-90.74-40.63-90.74-90.74v-2.86ZM833.48,75.13c-3.69-2.61-8.19-4.15-13.04-4.15h-113.42V2.94h113.42c50.11,0,90.74,40.63,90.74,90.74h-96.24l18.55-18.54Z"/>
        <path class="f" d="M1137.7,252.46h-113.42c-25.05,0-47.74-10.16-64.16-26.58-16.42-16.42-26.58-39.1-26.58-64.16V2.94l68.05,68.05v90.73c0,12.53,10.16,22.68,22.68,22.68h113.42s0,68.05,0,68.05ZM1137.7,70.99h-136.1V2.94h204.15l-68.05,68.05ZM1205.75,184.41h-68.05c0-12.53-10.16-22.68-22.68-22.68h-22.68l-68.05-68.05h90.73c50.11,0,90.74,40.63,90.74,90.74Z"/>
        <path class="f" d="M1296.18,184.41h-68.05v-113.42L1296.18,2.94h136.1v68.05h-136.1v113.42ZM1432.28,70.99h68.05v113.42l-68.05,68.05h-136.1v-68.05h136.1v-113.42Z"/>
      </g>
    </g>
  </g>
</svg>