<?xml version="1.0" encoding="UTF-8"?>
<svg id="b" data-name="Camada 2" xmlns="http://www.w3.org/2000/svg" viewBox="0 0 1505.33 747.4">
  <defs>
    <style>
      .d {
        fill: #5900ff;
      }

      .e {
        fill: #fd2c78;
      }
    </style>
  </defs>
  <g id="c" data-name="Camada 1">
    <g>
      <path class="d" d="M1318.06,632.5v-30.29h1.08v30.29h-1.08ZM1320.22,632.5v-30.29h2.16v30.29h-2.16ZM1325.62,632.5v-30.29h1.08v30.29h-1.08Z"/>
      <path class="d" d="M1337.14,631.87v-29.66h2.16v29.66h-2.16ZM1342.54,631.87v-29.66h1.08v29.66h-1.08ZM1346.86,631.87v-29.66h1.08v29.66h-1.08Z"/>
      <path class="d" d="M1356.22,632.5v-30.29h1.08v30.29h-1.08ZM1360.54,632.5v-30.29h2.16v30.29h-2.16ZM1363.78,632.5v-30.29h1.08v30.29h-1.08Z"/>
      <path class="d" d="M1375.3,632.5v-30.29h2.16v30.29h-2.16ZM1378.54,632.5v-30.29h1.08v30.29h-1.08ZM1382.86,632.5v-30.29h1.08v30.29h-1.08Z"/>
      <path class="d" d="M1394.38,632.37v-30.16h1.08v30.16h-1.08ZM1398.7,632.37v-30.16h3.24v30.16h-3.24ZM1403.02,632.37v-30.16h2.16v30.16h-2.16Z"/>
      <path class="d" d="M1413.46,632.5v-30.29h2.16v30.29h-2.16ZM1416.7,632.5v-30.29h2.16v30.29h-2.16ZM1421.02,632.5v-30.29h2.16v30.29h-2.16Z"/>
      <path class="d" d="M1432.54,632.5v-30.29h2.16v30.29h-2.16ZM1435.78,632.5v-30.29h3.24v30.29h-3.24ZM1440.1,632.5v-30.29h3.24v30.29h-3.24Z"/>
      <path class="d" d="M1451.62,632.5v-30.29h3.24v30.29h-3.24ZM1455.94,632.5v-30.29h2.16v30.29h-2.16ZM1461.34,632.5v-30.29h1.08v30.29h-1.08Z"/>
      <path class="e" d="M1470.7,632.5v-30.29h1.08v30.29h-1.08ZM1472.86,632.5v-30.29h1.08v30.29h-1.08ZM1477.18,632.5v-30.29h2.16v30.29h-2.16Z"/>
      <path class="d" d="M1489.78,632.5v-30.29h2.16v30.29h-2.16ZM1495.18,632.5v-30.29h1.08v30.29h-1.08ZM1499.5,632.5v-30.29h1.08v30.29h-1.08Z"/>
      <path class="d" d="M1395.33,652.97c.92.47,2.39,1.32,3.08,1.87l-.56,1.11c-.66-.54-2.18-1.48-3.06-1.93l.54-1.05ZM1395.83,662.43c3.17-2,5.24-5.7,6.39-11.12.23.19.68.45.95.58-1.23,5.37-3.41,9.37-6.37,11.35,0,.17-.16.37-.23.45l-.74-1.27ZM1396.63,648.24c.97.53,2.28,1.4,2.88,1.95l-.56,1.15c-.68-.64-1.95-1.5-2.9-2.03l.58-1.07Z"/>
      <path class="d" d="M1412.58,652.19c.02-1.46.04-3.08.04-4.85l1.48.08c-.02.17-.16.27-.35.31,0,1.58-.02,3.12-.08,4.46h3.23v1.27h-3.27c-.21,5.14-.97,8.41-3.49,10.73-.21-.23-.66-.6-1.01-.84,2.41-2.12,3.17-5.12,3.41-9.89h-3.82v-1.27h3.86Z"/>
      <path class="d" d="M1422.66,663.17v-1.05l1.34-1.3c3.23-3.08,4.69-4.71,4.71-6.62,0-1.29-.62-2.47-2.51-2.47-1.15,0-2.1.58-2.69,1.07l-.54-1.21c.88-.74,2.12-1.29,3.58-1.29,2.73,0,3.87,1.87,3.87,3.68,0,2.34-1.69,4.22-4.36,6.79l-1.01.93v.04h5.68v1.42h-8.08Z"/>
      <path class="d" d="M1436.5,660.39c.76-1.19,1.34-3.06,1.66-5.06l.88.47c-.35,2.1-.95,4.21-1.75,5.53l-.78-.93ZM1440.2,647.63l1.38.1c-.02.19-.14.31-.33.33v3.47h3.15v1.29h-3.15v9.5c0,1.52-.41,1.67-2.38,1.67-.04-.33-.16-.82-.29-1.23.25.02.51.02.74.02.31,0,.56,0,.66-.02.17,0,.21-.12.21-.45v-9.5h-3.08v-1.29h3.08v-3.89ZM1444.16,661.3c-.35-1.5-1.21-4.01-1.83-5.51l.86-.55c.66,1.46,1.5,3.78,1.87,5.2l-.9.86Z"/>
      <path class="d" d="M1458.58,653.38v1.23h-3.25c-.16,3.52-.84,7.57-3.12,9.64-.17-.27-.6-.72-.88-.93,2.1-1.75,2.82-5.45,2.94-8.7h-3.56v-1.23h7.87ZM1451.55,648.04h6.27v1.23h-6.27v-1.23Z"/>
      <path class="d" d="M1467.89,647.5l1.46.12c-.02.16-.14.29-.33.33v3.31h2.12l.21-.08.7.21c0,.1-.06.21-.1.27-.33,6.07-1.36,10.18-4.61,12.58-.21-.29-.62-.7-.93-.95,3.06-2.08,4.21-5.9,4.44-10.85h-4.79v4.56h-1.01v-5.74h2.84v-3.76Z"/>
      <path class="d" d="M1478.2,659.96c0-1.6.95-2.73,2.51-3.39l-.02-.06c-1.4-.66-2.01-1.75-2.01-2.84,0-2,1.69-3.37,3.91-3.37,2.45,0,3.68,1.54,3.68,3.12,0,1.07-.53,2.22-2.08,2.96v.06c1.58.62,2.55,1.73,2.55,3.27,0,2.2-1.89,3.68-4.3,3.68-2.65,0-4.24-1.58-4.24-3.43ZM1485.02,659.88c0-1.54-1.07-2.28-2.78-2.77-1.48.43-2.28,1.4-2.28,2.61-.06,1.29.92,2.41,2.53,2.41s2.53-.95,2.53-2.26ZM1480.31,653.55c0,1.27.95,1.95,2.41,2.34,1.09-.37,1.93-1.15,1.93-2.3,0-1.01-.6-2.06-2.14-2.06-1.42,0-2.2.93-2.2,2.03Z"/>
      <path class="d" d="M1492.9,653.3h6.44l.16-.16.8.58c-.02.1-.16.18-.21.21-.66,5.18-2.12,8.43-5.55,10.14-.14-.29-.51-.78-.72-1.01,3-1.46,4.54-4.34,5.06-8.55h-5.98v-1.23ZM1493.68,648.2h5.71v1.23h-5.71v-1.23Z"/>
      <path class="d" d="M1395,689.6h7.87v1.3h-7.87v-1.3ZM1395.76,678.72h6.27v1.3h-6.27v-1.3Z"/>
      <path class="d" d="M1410.36,676.34l1.42.14c-.02.18-.16.33-.37.37v3.64h2.71v-4.44l1.27.1c-.02.18-.08.31-.23.35v3.99h1.85v1.27h-1.85v.74c0,3.89-.56,7.92-3.27,10.14-.19-.31-.54-.7-.8-.97,2.63-2.18,3.04-5.7,3.04-9.19v-.72h-2.71v5.32h-1.05v-5.32h-1.77v-1.27h1.77v-4.15Z"/>
      <path class="d" d="M1423.19,677.94h6.31l.18-.16.86.56c-.04.1-.16.2-.23.25-.23,7.54-1.44,11.12-5.22,14-.19-.29-.58-.72-.88-.97,3.35-2.49,4.79-5.74,4.98-12.42h-4.93v5.33h-1.07v-6.6Z"/>
      <path class="d" d="M1436.46,690.34c.35,0,.72-.02,1.11-.04.6-3.84,1.52-9.87,2.06-13.8l1.6.37c-.02.17-.23.31-.47.33-.57,3.68-1.58,9.6-2.14,13.03,1.46-.1,3.15-.23,4.52-.39-.47-1.75-1.11-3.68-1.66-5.08l.9-.45c.93,2.2,2.04,5.57,2.38,7.59l-1.09.58c-.08-.49-.17-1.03-.31-1.6-1.64.21-4.59.51-6.29.64-.06.16-.16.27-.33.31l-.27-1.5Z"/>
      <path class="d" d="M1455.68,691.8v-3.45h-5.88v-1.13l5.65-8.08h1.85v7.87h1.77v1.34h-1.77v3.45h-1.62ZM1455.68,687.01v-4.22c0-.66.02-1.32.06-1.99h-.06c-.39.74-.7,1.29-1.05,1.87l-3.1,4.3v.04h4.15Z"/>
      <path class="d" d="M1482.23,682.96c.1-1.32.12-2.8.14-4.4-1.13.41-2.41.84-3.47,1.11-.12-.31-.31-.72-.47-.99,2.08-.51,5-1.66,6.35-2.59l.9,1.09c-.06.06-.16.1-.25.08-.51.29-1.26.64-1.97.92-.02,1.73-.06,3.33-.16,4.79h3.12v1.29h-3.21c-.29,3.56-1.07,6.6-2.98,8.59-.21-.25-.62-.68-.92-.92,1.73-1.67,2.53-4.26,2.82-7.67h-3.66v-1.29h3.76Z"/>
      <path class="d" d="M1492.94,680.02h5.47l.2-.14.88.66c-.04.08-.23.16-.31.2-.6,1.4-1.4,2.71-2.3,4.05v8.02h-1.05v-6.64c-.93,1.23-2.03,2.34-3.08,3.17-.18-.27-.53-.6-.82-.86,2.36-1.77,4.56-4.62,5.86-7.28h-4.85v-1.19ZM1494.91,675.8c.97.58,2.59,1.79,3.43,2.57l-.82.93c-.82-.82-2.34-1.97-3.37-2.59l.76-.92ZM1497.96,684.95c.93.84,1.95,1.93,2.67,2.78l-.66,1.05c-.7-.95-1.65-2.04-2.57-2.96l.56-.88Z"/>
      <path class="d" d="M1408.76,705.77h7.73c.08-.08.14-.1.18-.12.17.19.33.43.8.86-.02.1-.21.19-.29.21-.95,2.76-2.38,5.43-3.76,7.54.72,1.34,1.32,2.55,1.67,3.58l-.99.95c-.7-2.2-2.63-5.72-4.05-7.75l.84-.74c.57.76,1.29,1.89,1.87,2.92,1.21-1.77,2.32-3.97,3.04-6.21h-7.03v-1.25Z"/>
      <path class="d" d="M1425.09,709.19c-.41,1.54-.9,2.94-1.52,4.05-.19-.33-.58-.64-.88-.93,1.19-1.97,1.89-5.43,2.3-8.88l1.5.29c-.02.16-.2.25-.41.27-.17,1.3-.41,2.63-.7,3.91h5.55v1.29h-2.41c-.27,4.48-1.11,8.8-3.21,10.98-.2-.25-.66-.64-.95-.88,2.06-2.04,2.86-6.04,3.08-10.11h-2.34Z"/>
      <path class="d" d="M1451.51,710.98c-.1-1.38-.49-3.74-.9-5.32l.93-.31c.41,1.56.84,3.88.97,5.3l-1.01.33ZM1458.93,705.44c-.04.14-.16.21-.29.25-.84,6.62-2.03,11.16-5.78,14.25-.17-.27-.6-.7-.88-.92,3.64-2.86,4.93-7.18,5.69-13.94l1.27.35ZM1454.3,710.4c-.1-1.58-.43-3.97-.74-5.59l.95-.29c.31,1.66.64,4.05.76,5.55l-.97.33Z"/>
      <path class="d" d="M1479.61,704.6l1.58.14c-.02.2-.21.33-.45.37v8.47h-1.13v-8.98ZM1484.36,703.86l1.62.12c-.02.17-.18.31-.47.37v6.11c0,4.42-.84,7.87-4.32,9.74-.16-.31-.54-.7-.86-.97,3.17-1.66,4.03-4.67,4.03-8.78v-6.58Z"/>
      <path class="d" d="M1492.86,709c.92.47,2.39,1.32,3.08,1.87l-.56,1.11c-.66-.54-2.18-1.48-3.06-1.93l.54-1.05ZM1493.37,718.46c3.17-2,5.24-5.7,6.39-11.12.23.19.68.45.95.58-1.23,5.37-3.41,9.37-6.37,11.35,0,.17-.16.37-.23.45l-.74-1.27ZM1494.17,704.27c.97.53,2.28,1.4,2.88,1.95l-.56,1.15c-.68-.64-1.95-1.5-2.9-2.03l.58-1.07Z"/>
      <path class="d" d="M1416.74,736.53v1.23h-3.25c-.16,3.52-.84,7.57-3.12,9.64-.17-.27-.6-.72-.88-.93,2.1-1.75,2.82-5.45,2.94-8.7h-3.56v-1.23h7.87ZM1409.71,731.2h6.27v1.23h-6.27v-1.23Z"/>
      <path class="d" d="M1454.02,730.65l1.46.12c-.02.16-.14.29-.33.33v3.31h2.12l.21-.08.7.21c0,.1-.06.21-.1.27-.33,6.07-1.36,10.18-4.61,12.58-.21-.29-.62-.7-.93-.95,3.06-2.08,4.21-5.9,4.44-10.85h-4.79v4.56h-1.01v-5.74h2.84v-3.76Z"/>
      <path class="d" d="M1479.92,730.87l1.42.14c-.02.18-.16.33-.37.37v3.64h2.71v-4.44l1.27.1c-.02.18-.08.31-.23.35v3.99h1.85v1.27h-1.85v.74c0,3.89-.56,7.92-3.27,10.14-.19-.31-.54-.7-.8-.97,2.63-2.18,3.04-5.7,3.04-9.19v-.72h-2.71v5.32h-1.05v-5.32h-1.77v-1.27h1.77v-4.15Z"/>
      <path class="e" d="M2.42,160.89l1.31,1.38v8.35l-2.58,2.34v-10.89l1.27-1.17ZM11.04,171.74l1.62,1.73-.96.88-10.1-.89,2.58-2.33,6.87.6ZM11.7,159.95l.96,1.01-1.62,1.49-6.87-.59-1.31-1.41,1.31-1.14,7.52.65ZM22.11,160.85l1.3,1.41-1.31,1.14-6.87-.59-1.62-1.75,1-.86,7.49.65ZM22.11,172.68l2.58,2.81-10.07-.88-1-1.03,1.61-1.47,6.87.57ZM23.9,162.8l1.27,1.38v10.93l-2.58-2.82v-8.35l1.31-1.13Z"/>
      <path class="e" d="M11.7,144.11l.96,1.04-1.62,1.49-8.66-.76-1.25-1.38,1.25-1.21,9.31.82ZM23.9,145.18l1.28,1.41-1.28,1.17-8.66-.76-1.62-1.75,1-.89,9.28.81Z"/>
      <path class="e" d="M1.15,115.54l2.58,2.75v8.83l-2.58,2.34v-13.92ZM11.7,130.85l-10.1-.89,2.58-2.33,6.87.6,1.62,1.73-.96.88ZM11.87,119.18l1.29-1.2,1.29,1.44v8.99l-1.29,1.12-1.29-1.38v-8.97ZM15.24,128.61l6.87.57,2.58,2.81-10.07-.88-1-1.03,1.61-1.47ZM25.17,117.63v13.97l-2.58-2.82v-8.85l2.58-2.31Z"/>
      <path class="e" d="M1.15,89.94l2.58,2.75v8.35l-1.31,1.17-1.27-1.38v-10.89ZM11.04,102.13l1.62,1.75-.96.89-7.53-.65-1.3-1.41,1.31-1.17,6.87.59ZM13.16,91.9l1.29,1.44v2.89l-1.29,1.13-1.29-1.38v-2.89l1.29-1.2ZM22.11,91.28l1.3,1.41-1.31,1.14-6.87-.6-1.62-1.75,1-.86,7.49.65ZM22.11,103.09l1.3,1.45-1.31,1.14-7.49-.65-1-1.04,1.62-1.49,6.87.59ZM25.17,94.58l-1.27-1.38-1.31,1.13v8.35l1.31,1.41,1.27-1.17v-8.35Z"/>
      <path class="e" d="M2.42,65.23l1.31,1.38v8.35l-1.31,1.17-1.27-1.38v-8.35l1.27-1.17ZM11.7,64.29l.96,1.01-1.62,1.49-6.87-.59-1.3-1.42,1.31-1.14,7.52.65ZM11.04,76.06l1.62,1.75-.96.89-7.52-.65-1.3-1.41,1.31-1.17,6.87.6ZM22.11,65.19l1.3,1.41-1.31,1.14-6.87-.59-1.62-1.75,1-.86,7.49.65ZM22.11,79.6l1.3-1.12-1.31-1.43-6.87-.6-1.61,1.47,1,1.03,7.49.65ZM25.17,76.85l-1.27,1.17-1.31-1.41v-8.35l1.31-1.13,1.27,1.38v8.35Z"/>
      <path class="d" d="M4.08,51.94c0,.8-.59,1.24-1.36,1.24s-1.39-.43-1.39-1.24v-14.26c0-1.17.56-1.67,1.58-1.67,1.11,0,1.58.4,2.41,1.02,4.73,3.46,11.35,6.16,18.93,7.79.99.22,1.33.8,1.33,1.61v.09c-.03.87-.46,1.55-1.27,1.55-.12,0-.28-.03-.4-.06-7.05-1.58-14.2-4.7-19.83-8.57v12.5Z"/>
      <path class="d" d="M7.7,12.57c4.39.12,7.3.46,9.96,1.11,3.46.87,6.65,2.72,8.66,4.95.22.25.31.53.31.8,0,.37-.19.77-.56,1.05-.22.19-.5.28-.74.28-.34,0-.65-.15-.96-.46-1.76-1.95-4.33-3.37-7.11-4.17-2.23-.65-5.23-.99-9.56-1.14v4.02c2.2.68,4.14,1.33,5.63,2.23.37.22.56.62.56,1.02,0,.28-.06.56-.22.8-.19.34-.53.53-.93.53-.25,0-.5-.06-.74-.22-2.07-1.18-4.73-2.13-8.41-2.94-1.05-.25-2.04-.4-2.72-.5-.65-.09-.87-.56-.87-1.11v-.25c.06-.65.37-1.05.99-1.05.09,0,.15,0,.25.03.59.09,1.21.22,2.17.4.62.12,1.45.34,1.95.5-.03-.56-.06-1.11-.06-1.76v-6.59c0-.59.46-.96,1.18-.96s1.24.37,1.24.96v2.47Z"/>
      <path class="d" d="M.7,241.11c0-.71.34-1.18,1.11-1.18,2.97-.03,6.53-.25,9.46-.65,4.48-.62,8.29-1.48,10.79-2.63.25-.12.49-.19.74-.19.37,0,.74.19.99.56.19.28.28.59.28.83,0,.4-.19.77-.59.96-2.72,1.33-7.08,2.23-11.1,2.78-3.06.43-7.61.77-10.52.8-.71-.03-1.14-.43-1.18-1.21v-.09ZM23.5,248.72c.4.19.59.53.59.93,0,.28-.09.62-.28.9-.22.37-.59.53-.99.53-.25,0-.49-.06-.77-.19-2.47-1.14-6.19-2.01-10.64-2.6-2.94-.4-6.56-.56-9.59-.62-.77-.03-1.08-.56-1.08-1.33s.4-1.14,1.08-1.14h.06c2.91.03,7.45.34,10.58.74,4.02.53,8.29,1.52,11.04,2.78Z"/>
      <path class="d" d="M9.08,216.49c.65,0,.96.4,1.11.9.03.15.06.34.06.5,0,.43-.19.77-.71.9-2.63.4-5.69,1.02-8.01,1.79-.15.03-.31.06-.43.06-.46,0-.77-.28-.93-.74-.06-.25-.12-.46-.12-.68,0-.37.15-.68.56-.8,2.32-.83,5.69-1.48,8.2-1.89.09-.03.19-.03.28-.03ZM24.36,220.05c.19.22.28.49.28.77,0,.4-.19.83-.59,1.11-.22.22-.46.31-.71.31-.34,0-.65-.15-.99-.49-2.51-2.78-5.44-5.17-9.84-6.5-4.27-1.27-7.86-1.33-10.7-1.42-.74-.06-1.02-.53-1.02-1.05,0-.09,0-.19.03-.28.06-.62.34-1.14,1.24-1.14h.06c3.56.19,7.73.62,11.35,1.7,4.52,1.39,8.1,3.87,10.89,6.99ZM2.62,224.87c-.5,0-.9-.37-1.02-.8-.06-.19-.09-.34-.09-.5,0-.4.19-.74.65-.93,2.32-.83,5.63-1.55,8.13-2.01.15-.03.28-.03.4-.03.59,0,.9.31,1.05.87.06.19.09.37.09.53,0,.43-.19.83-.74.9-2.57.4-5.78,1.14-8.07,1.92-.12.03-.28.06-.4.06Z"/>
      <path class="d" d="M3.24,197.6c0,.65-.4.99-1.11.99s-1.21-.34-1.21-.99v-10.73c0-.68.46-.99,1.18-.99s1.14.34,1.14.99v5.1h6.53v-5.85c0-.68.49-.99,1.21-.99s1.11.34,1.11.99v5.85h7.89c1.48,0,1.98-.4,1.98-1.89,0-1.14-.09-2.57-.19-3.15-.03-.12-.03-.25-.03-.37,0-.62.31-1.02,1.11-1.08h.19c.74,0,1.02.4,1.11.96.19,1.14.22,2.6.22,4.08,0,3.03-1.14,3.9-4.33,3.9h-7.95v3.84c0,.65-.4.99-1.11.99s-1.21-.31-1.21-.99v-3.84H3.24v3.19Z"/>
      <path class="e" d="M1340.85,580.78l1.03-1,1.47,1.61-.6,6.87-1.43,1.31-1.12-1.3.65-7.49ZM1341.98,578.83l1.75-1.62.65-7.35-2.36-2.55-.93,10.56.89.96ZM1351.29,591.33l1.38-1.27-1.13-1.31h-8.35l-1.41,1.31,1.17,1.27h8.35ZM1355.24,580.78l-.86-1-1.75,1.62-.6,6.87,1.14,1.31,1.41-1.31.65-7.49ZM1354.49,578.83l1-.96.93-10.56-2.75,2.55-.67,7.35,1.49,1.62Z"/>
      <path class="e" d="M1379.92,591.33h-12.64l-1.17-1.27,1.41-1.31h10.1l2.3,2.58ZM1372.18,579.79l1.41-.14.1,2.27-5.53,6.22h-1.89s.17-1.79.17-1.79l5.74-6.56ZM1382.39,568.59l-1.37,1.31h-10.55l-2.37-2.58h13.13l1.17,1.27ZM1376.52,578.66l-2.28.28v-1.38l6.19-7.01h1.79l-.15,1.88-5.55,6.24Z"/>
      <path class="e" d="M1395.5,581.4l-.61,7.35-2.81,2.59.92-10.56,1.03-1,1.47,1.61ZM1393.26,577.87l.88-10.1,2.33,2.58-.6,6.87-1.73,1.62-.88-.96ZM1404.95,578.04l1.2,1.29-1.44,1.29h-9l-1.12-1.29,1.38-1.29h8.98ZM1408.09,567.32l-2.75,2.58h-8.35l-2.34-2.58h13.43ZM1407.4,580.78l-.92,10.56-2.29-2.58.61-7.35,1.75-1.62.86,1ZM1405.16,577.21l.6-6.87,2.79-2.58-.89,10.1-1,.96-1.49-1.62Z"/>
      <path class="e" d="M1422.43,590.06l-1.41,1.28-1.17-1.28.76-8.66,1.75-1.62.89,1-.81,9.28ZM1423.5,577.87l-1.04.96-1.49-1.62.76-8.66,1.38-1.25,1.21,1.25-.82,9.31Z"/>
      <path class="d" d="M1210.75,591.02c-.19.4-.53.59-.93.59-.28,0-.62-.09-.9-.28-.37-.22-.53-.59-.53-.99,0-.25.06-.49.19-.77,1.14-2.47,2.01-6.19,2.6-10.64.4-2.94.56-6.56.62-9.59.03-.77.56-1.08,1.33-1.08s1.14.4,1.14,1.08v.06c-.03,2.91-.34,7.45-.74,10.58-.53,4.02-1.52,8.29-2.78,11.04ZM1218.36,568.23c.71,0,1.18.34,1.18,1.11.03,2.97.25,6.53.65,9.46.62,4.48,1.48,8.29,2.63,10.79.12.25.19.5.19.74,0,.37-.19.74-.56.99-.28.19-.59.28-.83.28-.4,0-.77-.19-.96-.59-1.33-2.72-2.23-7.08-2.78-11.1-.43-3.06-.77-7.61-.8-10.52.03-.71.43-1.14,1.21-1.18h.09Z"/>
      <path class="d" d="M1234.59,570.15c0-.5.37-.9.8-1.02.19-.06.34-.09.5-.09.4,0,.74.19.93.65.83,2.32,1.55,5.63,2.01,8.13.03.16.03.28.03.4,0,.59-.31.9-.87,1.05-.19.06-.37.09-.53.09-.43,0-.83-.19-.9-.74-.4-2.57-1.14-5.78-1.92-8.07-.03-.12-.06-.28-.06-.4ZM1239.42,591.89c-.22.19-.49.28-.77.28-.4,0-.83-.19-1.11-.59-.22-.22-.31-.46-.31-.71,0-.34.15-.65.49-.99,2.78-2.5,5.17-5.44,6.5-9.83,1.27-4.27,1.33-7.86,1.42-10.7.06-.74.53-1.02,1.05-1.02.09,0,.19,0,.28.03.62.06,1.14.34,1.14,1.24v.06c-.19,3.56-.62,7.73-1.7,11.35-1.39,4.52-3.87,8.1-6.99,10.89ZM1242.97,576.61c0,.65-.4.96-.9,1.11-.15.03-.34.06-.5.06-.43,0-.77-.19-.9-.71-.4-2.63-1.02-5.69-1.79-8.01-.03-.15-.06-.31-.06-.43,0-.46.28-.77.74-.93.25-.06.46-.12.68-.12.37,0,.68.15.8.56.83,2.32,1.48,5.69,1.89,8.2.03.09.03.19.03.28Z"/>
      <path class="d" d="M1261.87,570.76c-.65,0-.99-.4-.99-1.11s.34-1.21.99-1.21h10.73c.68,0,.99.46.99,1.17s-.34,1.14-.99,1.14h-5.1v6.53h5.85c.68,0,.99.5.99,1.21s-.34,1.11-.99,1.11h-5.85v7.89c0,1.48.4,1.98,1.89,1.98,1.14,0,2.57-.09,3.15-.19.12-.03.25-.03.37-.03.62,0,1.02.31,1.08,1.11v.19c0,.74-.4,1.02-.96,1.11-1.14.19-2.6.22-4.08.22-3.03,0-3.9-1.14-3.9-4.33v-7.95h-3.84c-.65,0-.99-.4-.99-1.11s.31-1.21.99-1.21h3.84v-6.53h-3.19Z"/>
      <path class="d" d="M1287.93,570.24c-.8,0-1.24-.59-1.24-1.36s.43-1.39,1.24-1.39h14.26c1.17,0,1.67.56,1.67,1.58,0,1.11-.4,1.58-1.02,2.41-3.46,4.73-6.16,11.35-7.79,18.93-.22.99-.8,1.33-1.61,1.33h-.09c-.87-.03-1.55-.46-1.55-1.27,0-.12.03-.28.06-.4,1.58-7.05,4.7-14.2,8.57-19.83h-12.5Z"/>
      <path class="d" d="M1327.3,573.86c-.12,4.39-.46,7.3-1.11,9.96-.87,3.46-2.72,6.65-4.95,8.66-.25.22-.53.31-.8.31-.37,0-.77-.19-1.05-.56-.19-.22-.28-.49-.28-.74,0-.34.15-.65.46-.96,1.95-1.76,3.37-4.33,4.17-7.11.65-2.23.99-5.23,1.14-9.56h-4.02c-.68,2.2-1.33,4.14-2.23,5.63-.22.37-.62.56-1.02.56-.28,0-.56-.06-.8-.22-.34-.19-.53-.53-.53-.93,0-.25.06-.5.22-.74,1.18-2.07,2.13-4.73,2.94-8.41.25-1.05.4-2.04.5-2.72.09-.65.56-.87,1.11-.87h.25c.65.06,1.05.37,1.05.99,0,.09,0,.15-.03.25-.09.59-.22,1.21-.4,2.17-.12.62-.34,1.45-.5,1.95.56-.03,1.11-.06,1.76-.06h6.59c.59,0,.96.46.96,1.18s-.37,1.24-.96,1.24h-2.47Z"/>
      <path class="d" d="M1439.44,570.7c-.87,0-1.11.22-1.11,1.14v6.19c0,.71-.59,1.05-1.24,1.05s-1.24-.34-1.24-1.05v-6.87c0-1.98.83-2.91,2.63-2.91h6.96c2.17,0,2.97.93,2.94,3.28-.06,4.45-.62,8.69-1.73,12.03-1.14,3.4-3.43,6.68-6.25,8.6-.25.16-.49.25-.74.25-.4,0-.8-.19-.99-.56-.19-.31-.28-.59-.28-.83,0-.4.19-.71.56-.99,2.81-2.07,4.42-4.45,5.41-7.33,1.02-2.94,1.49-6.93,1.52-10.86,0-.96-.25-1.14-1.05-1.14h-5.38Z"/>
      <path class="d" d="M1464.83,581.4c0,.68-.56,1.02-1.24,1.02s-1.24-.31-1.24-1.02v-13.24c0-.71.59-1.02,1.24-1.02s1.24.34,1.24,1.02v13.24ZM1473.3,577.85c0,5.13-.53,7.67-1.86,9.99-1.21,2.13-3.31,3.65-5.44,4.7-.22.09-.43.16-.65.16-.46,0-.9-.25-1.18-.77-.09-.22-.15-.4-.15-.62,0-.46.31-.83.74-1.05,1.73-.83,3.5-1.98,4.55-3.77,1.08-1.86,1.52-3.93,1.52-8.6v-9.71c0-.71.59-1.02,1.24-1.02s1.24.31,1.24,1.02v9.68Z"/>
      <path class="d" d="M1496.31,579.95c1.58,2.17,3.03,4.42,4.08,6.43.12.25.19.53.19.74,0,.4-.19.74-.53.96-.28.19-.59.28-.83.28-.4,0-.74-.19-.93-.56-.9-1.76-1.98-3.5-3.12-5.17-1.73,3.71-3.99,6.8-6.46,9.16-.25.25-.59.37-.9.37-.34,0-.68-.15-.96-.43-.25-.25-.34-.56-.34-.83,0-.37.15-.74.46-1.02,2.57-2.35,4.95-5.75,6.53-9.53-1.76-2.35-3.65-4.52-5.35-6.43-.25-.28-.37-.56-.37-.83,0-.34.16-.65.43-.9.25-.22.56-.34.87-.34s.62.12.9.4c1.3,1.39,2.91,3.25,4.52,5.32,1.11-3.5,1.79-7.18,2.13-9.68.09-.71.56-.96,1.05-.96.12,0,.25,0,.37.03.62.09,1.11.43,1.11,1.11v.19c-.43,3.31-1.52,7.95-2.82,11.57l-.03.12Z"/>
      <path class="d" d="M240.93,543.6h-115.5l-70.99-70.99v-188.56h78.06v181.49h108.43c9.75,0,17.69-7.93,17.69-17.69v-163.8h78.06v163.8c0,52.79-42.95,95.75-95.74,95.75ZM129.57,533.6h111.36c47.28,0,85.74-38.46,85.74-85.75v-153.8h-58.06v153.8c0,15.27-12.42,27.69-27.69,27.69h-118.43v-181.49h-58.06v174.42l65.13,65.13Z"/>
      <path class="e" d="M843.46,543.6h-398.7c-52.79,0-95.74-42.95-95.74-95.75v-2.07l70.99-70.99h416.39v-12.69h-416.39l-78.06-78.06h504.45v68.06h68.06v29.76l-70.99,70.99h-415.67c2.16,7.33,8.95,12.69,16.97,12.69h476.76l-78.06,78.06ZM359.04,449.9c1.09,46.34,39.12,83.7,85.72,83.7h394.56l58.06-58.06h-452.62c-15.27,0-27.69-12.42-27.69-27.69v-5h422.25l65.13-65.13v-15.62h-58.06v22.69h-422.25l-65.1,65.1ZM424.14,352.11h412.25v-58.06h-470.3l58.06,58.06Z"/>
      <path class="d" d="M1130.97,550.67v-158.8l-60.99,60.99h-47.44c-9.75,0-17.69,7.93-17.69,17.69v73.06h-78.06v-73.06c0-34.18,18.27-65.77,47.8-82.88h-47.8v-7.86c0-52.8,42.95-95.75,95.75-95.75h115.5l70.99,70.99v117.57l-78.06,78.06ZM936.79,533.6h58.06v-63.06c0-15.27,12.42-27.69,27.69-27.69h43.3l58.06-58.06h-101.36c-5.96,0-11.9.62-17.69,1.83v1.03h-4.36c-6.78,1.79-13.33,4.43-19.47,7.85-27.28,15.13-44.22,43.88-44.22,75.03v63.06ZM1140.97,381.87v144.66l58.06-58.06v-109.29l-65.13-65.13h-111.36c-46.56,0-84.58,37.31-85.72,83.61h58.11c1.1-14.27,13.06-25.55,27.61-25.55h118.43v22.68h7.07l-7.07,7.07ZM1022.54,362.11c-8.58,0-15.75,6.14-17.35,14.26,5.7-1.04,11.52-1.57,17.35-1.57h108.43v-12.69h-108.43Z"/>
      <path class="d" d="M1503.6,543.6h-282.23v-78.06h102.09v-103.43h-102.09v-78.06h109.16l60.99,60.99v-60.99h112.09v78.06h-102.09v103.43h102.09v78.06ZM1231.37,533.6h262.23v-58.06h-102.09v-116.36l-65.13-65.13h-95.02v58.06h102.09v123.43h-102.09v58.06ZM1401.52,352.11h92.09v-58.06h-92.09v58.06Z"/>
      <path class="d" d="M256.01,266.59h-115.46c-52.79,0-95.73-42.94-95.73-95.73v-95.73h60.96L37.75,7.07h193.52c52.78,0,95.73,42.94,95.73,95.73v92.8l-70.99,70.99ZM54.82,85.14v85.73c0,47.27,38.46,85.73,85.73,85.73h111.32l65.13-65.14v-88.66c0-47.27-38.46-85.73-85.73-85.73H61.88l58.03,58.06h111.39c15.27,0,27.7,12.43,27.7,27.7v95.73h-118.43c-15.27,0-27.7-12.43-27.7-27.7v-85.73h-58.06ZM122.88,85.14v85.73c0,9.76,7.94,17.7,17.7,17.7h108.43v-85.73c0-9.76-7.94-17.7-17.7-17.7h-108.43Z"/>
      <path class="d" d="M621.6,266.59h-282.21v-78.05h102.08v-103.42h-102.08V7.07h109.15l60.98,60.98V7.07h112.08v78.05h-102.08v103.42h102.08v78.05ZM349.39,256.59h262.21v-58.05h-102.08v-116.35l-65.12-65.12h-95.01v58.05h102.08v123.42h-102.08v58.05ZM519.52,75.12h92.08V17.07h-92.08v58.05Z"/>
      <path class="d" d="M916.18,266.59h-186.47c-52.79,0-95.74-42.95-95.74-95.74v-7.86h47.79c-29.53-17.11-47.79-48.7-47.79-82.87v-5h68.05V7.07h118.42c52.79,0,95.74,42.95,95.74,95.74v5h-106.35l68.05,68.05h-148.17c-5.83,0-11.65-.53-17.35-1.57,1.6,8.12,8.77,14.25,17.35,14.25h186.47v78.05ZM644,173c1.14,46.29,39.15,83.6,85.71,83.6h176.47v-58.05h-176.47c-14.55,0-26.51-11.28-27.6-25.54h-58.11ZM712.02,164.03c5.79,1.21,11.72,1.83,17.68,1.83h124.03l-58.05-58.05h-65.98c-13.56,0-24.87-9.8-27.23-22.68h-58.36c1.71,29.2,18.26,55.71,44.07,70.02,6.15,3.42,12.7,6.06,19.47,7.85h4.36v1.03ZM712.74,85.12c2.16,7.32,8.95,12.68,16.96,12.68h70.12l6.52,6.52,18.62-18.61c-1.46-.39-2.98-.59-4.53-.59h-107.7ZM827.01,97.81h79.02c-2.6-44.96-40-80.74-85.59-80.74h-108.42v58.05h108.42c5.73,0,11.24,1.75,15.93,5.06l4.85,3.42-14.21,14.2Z"/>
      <path class="d" d="M1142.7,266.59h-118.42c-25.57,0-49.61-9.96-67.69-28.04-18.08-18.08-28.04-42.12-28.04-67.69V0l68.05,68.05V7.07h221.22l-78.05,78.05h-133.17v85.73c0,9.75,7.93,17.68,17.68,17.68h107.7c-2.16-7.32-8.95-12.68-16.96-12.68h-24.76l-78.05-78.05h102.81c52.79,0,95.74,42.95,95.74,95.74v5h-68.05v68.05ZM938.55,24.14v146.71c0,22.9,8.92,44.43,25.11,60.62,16.2,16.19,37.72,25.11,60.62,25.11h108.42v-58.05h-108.42c-15.26,0-27.68-12.42-27.68-27.68v-88.66l-58.05-58.05ZM1142.25,188.54h58.36c-2.6-44.96-40-80.74-85.59-80.74h-78.66l58.05,58.05h20.61c13.56,0,24.87,9.8,27.23,22.68ZM1006.6,75.12h129.03l58.05-58.05h-187.08v58.05Z"/>
      <path class="e" d="M1434.35,266.59h-143.17v-68.05h-68.05v-120.49l70.98-70.98h143.17v68.05h68.05v120.49l-70.98,70.98ZM1301.18,256.59h129.03l65.12-65.12v-106.35h-58.05v113.42h-136.1v58.05ZM1301.18,188.54h126.1v-103.42h-126.1v103.42ZM1233.12,188.54h58.05v-113.42h136.1V17.07h-129.03l-65.12,65.12v106.35Z"/>
    </g>
  </g>
</svg>