<?xml version="1.0" encoding="UTF-8"?>
<svg id="b" data-name="Camada 2" xmlns="http://www.w3.org/2000/svg" viewBox="0 0 1281.45 627.03">
  <defs>
    <style>
      .d {
        fill: #5900ff;
      }

      .e {
        fill: #fd2c78;
      }
    </style>
  </defs>
  <g id="c" data-name="Camada 1">
    <g>
      <path class="d" d="M1124.46,529.01v-25.84h.92v25.84h-.92ZM1126.3,529.01v-25.84h1.84v25.84h-1.84ZM1130.91,529.01v-25.84h.92v25.84h-.92Z"/>
      <path class="d" d="M1140.73,528.47v-25.3h1.84v25.3h-1.84ZM1145.34,528.47v-25.3h.92v25.3h-.92ZM1149.03,528.47v-25.3h.92v25.3h-.92Z"/>
      <path class="d" d="M1157.01,529.01v-25.84h.92v25.84h-.92ZM1160.7,529.01v-25.84h1.84v25.84h-1.84ZM1163.46,529.01v-25.84h.92v25.84h-.92Z"/>
      <path class="d" d="M1173.29,529.01v-25.84h1.84v25.84h-1.84ZM1176.05,529.01v-25.84h.92v25.84h-.92ZM1179.74,529.01v-25.84h.92v25.84h-.92Z"/>
      <path class="d" d="M1189.57,528.9v-25.73h.92v25.73h-.92ZM1193.25,528.9v-25.73h2.76v25.73h-2.76ZM1196.94,528.9v-25.73h1.84v25.73h-1.84Z"/>
      <path class="d" d="M1205.84,529.01v-25.84h1.84v25.84h-1.84ZM1208.61,529.01v-25.84h1.84v25.84h-1.84ZM1212.29,529.01v-25.84h1.84v25.84h-1.84Z"/>
      <path class="d" d="M1222.12,529.01v-25.84h1.84v25.84h-1.84ZM1224.88,529.01v-25.84h2.76v25.84h-2.76ZM1228.57,529.01v-25.84h2.76v25.84h-2.76Z"/>
      <path class="d" d="M1238.4,529.01v-25.84h2.76v25.84h-2.76ZM1242.08,529.01v-25.84h1.84v25.84h-1.84ZM1246.69,529.01v-25.84h.92v25.84h-.92Z"/>
      <path class="e" d="M1254.67,529.01v-25.84h.92v25.84h-.92ZM1256.52,529.01v-25.84h.92v25.84h-.92ZM1260.2,529.01v-25.84h1.84v25.84h-1.84Z"/>
      <path class="d" d="M1270.95,529.01v-25.84h1.84v25.84h-1.84ZM1275.56,529.01v-25.84h.92v25.84h-.92ZM1279.24,529.01v-25.84h.92v25.84h-.92Z"/>
      <path class="d" d="M1190.37,546.47c.78.4,2.04,1.13,2.62,1.59l-.48.95c-.57-.46-1.86-1.26-2.61-1.64l.46-.9ZM1190.81,554.54c2.71-1.71,4.47-4.87,5.45-9.49.2.17.58.38.81.5-1.05,4.59-2.91,7.99-5.43,9.69,0,.15-.13.32-.2.38l-.63-1.08ZM1191.49,542.43c.83.45,1.94,1.2,2.46,1.66l-.48.98c-.58-.55-1.66-1.28-2.48-1.73l.5-.91Z"/>
      <path class="d" d="M1205.09,545.8c.02-1.25.03-2.62.03-4.14l1.26.07c-.02.15-.13.23-.3.27,0,1.35-.02,2.66-.07,3.8h2.76v1.08h-2.79c-.18,4.39-.83,7.18-2.97,9.16-.18-.2-.57-.52-.86-.71,2.06-1.81,2.71-4.37,2.91-8.44h-3.26v-1.08h3.29Z"/>
      <path class="d" d="M1213.69,555.17v-.9l1.15-1.11c2.76-2.62,4-4.02,4.02-5.65,0-1.1-.53-2.11-2.14-2.11-.98,0-1.79.5-2.29.91l-.46-1.03c.75-.63,1.81-1.1,3.06-1.1,2.33,0,3.31,1.59,3.31,3.14,0,1.99-1.45,3.61-3.72,5.8l-.86.8v.03h4.85v1.21h-6.9Z"/>
      <path class="d" d="M1225.5,552.8c.65-1.01,1.15-2.61,1.41-4.32l.75.4c-.3,1.79-.81,3.59-1.5,4.72l-.67-.8ZM1228.66,541.91l1.18.08c-.02.17-.12.27-.28.28v2.96h2.69v1.1h-2.69v8.11c0,1.3-.35,1.43-2.03,1.43-.03-.28-.13-.7-.25-1.05.22.02.43.02.63.02.27,0,.48,0,.56-.02.15,0,.18-.1.18-.38v-8.11h-2.62v-1.1h2.62v-3.32ZM1232.03,553.58c-.3-1.28-1.03-3.42-1.56-4.7l.73-.46c.56,1.25,1.28,3.22,1.59,4.44l-.76.73Z"/>
      <path class="d" d="M1244.34,546.82v1.05h-2.78c-.13,3.01-.71,6.46-2.66,8.23-.15-.23-.52-.62-.75-.8,1.79-1.5,2.41-4.65,2.51-7.43h-3.04v-1.05h6.71ZM1238.34,542.26h5.35v1.05h-5.35v-1.05Z"/>
      <path class="d" d="M1252.28,541.8l1.25.1c-.02.13-.12.25-.28.28v2.82h1.81l.18-.07.6.18c0,.08-.05.18-.08.23-.28,5.18-1.16,8.69-3.94,10.73-.18-.25-.53-.6-.8-.81,2.61-1.78,3.59-5.04,3.79-9.26h-4.09v3.89h-.86v-4.9h2.43v-3.21Z"/>
      <path class="d" d="M1261.08,552.43c0-1.36.81-2.33,2.14-2.89l-.02-.05c-1.2-.57-1.71-1.5-1.71-2.43,0-1.71,1.45-2.87,3.34-2.87,2.09,0,3.14,1.31,3.14,2.66,0,.91-.45,1.89-1.78,2.53v.05c1.35.53,2.18,1.48,2.18,2.79,0,1.88-1.61,3.14-3.67,3.14-2.26,0-3.62-1.35-3.62-2.92ZM1266.89,552.37c0-1.31-.91-1.94-2.38-2.36-1.26.37-1.94,1.2-1.94,2.23-.05,1.1.78,2.06,2.16,2.06s2.16-.81,2.16-1.93ZM1262.87,546.96c0,1.08.81,1.66,2.06,1.99.93-.32,1.65-.98,1.65-1.96,0-.86-.52-1.76-1.83-1.76-1.21,0-1.88.8-1.88,1.73Z"/>
      <path class="d" d="M1273.62,546.75h5.5l.13-.13.68.5c-.02.08-.13.15-.18.18-.57,4.42-1.81,7.19-4.74,8.66-.12-.25-.43-.67-.61-.86,2.56-1.25,3.87-3.71,4.32-7.29h-5.1v-1.05ZM1274.28,542.4h4.87v1.05h-4.87v-1.05Z"/>
      <path class="d" d="M1190.09,577.72h6.71v1.11h-6.71v-1.11ZM1190.74,568.43h5.35v1.11h-5.35v-1.11Z"/>
      <path class="d" d="M1203.2,566.41l1.21.12c-.02.15-.13.28-.32.32v3.11h2.31v-3.79l1.08.08c-.02.15-.07.27-.2.3v3.41h1.58v1.08h-1.58v.63c0,3.32-.48,6.76-2.79,8.66-.17-.27-.46-.6-.68-.83,2.24-1.86,2.59-4.87,2.59-7.84v-.62h-2.31v4.54h-.9v-4.54h-1.51v-1.08h1.51v-3.54Z"/>
      <path class="d" d="M1214.14,567.77h5.38l.15-.13.73.48c-.03.08-.13.17-.2.22-.2,6.43-1.23,9.49-4.45,11.95-.17-.25-.5-.62-.75-.83,2.86-2.13,4.09-4.9,4.25-10.6h-4.2v4.55h-.91v-5.63Z"/>
      <path class="d" d="M1225.47,578.35c.3,0,.61-.02.95-.03.51-3.27,1.3-8.42,1.76-11.78l1.36.32c-.02.15-.2.27-.4.28-.48,3.14-1.35,8.19-1.83,11.12,1.25-.08,2.69-.2,3.86-.33-.4-1.5-.95-3.14-1.41-4.34l.76-.38c.8,1.88,1.75,4.75,2.03,6.48l-.93.5c-.07-.42-.15-.88-.27-1.36-1.4.18-3.92.43-5.37.55-.05.13-.13.23-.28.27l-.23-1.28Z"/>
      <path class="d" d="M1241.86,579.6v-2.94h-5.02v-.96l4.82-6.9h1.58v6.71h1.51v1.15h-1.51v2.94h-1.38ZM1241.86,575.51v-3.61c0-.57.02-1.13.05-1.7h-.05c-.33.63-.6,1.1-.9,1.6l-2.64,3.67v.03h3.54Z"/>
      <path class="d" d="M1264.52,572.06c.08-1.13.1-2.39.12-3.76-.96.35-2.06.71-2.96.95-.1-.27-.27-.61-.4-.85,1.78-.43,4.27-1.41,5.42-2.21l.76.93s-.13.08-.22.07c-.43.25-1.08.55-1.68.78-.02,1.48-.05,2.84-.13,4.09h2.66v1.1h-2.74c-.25,3.04-.91,5.63-2.54,7.33-.18-.22-.53-.58-.78-.78,1.48-1.43,2.16-3.64,2.41-6.55h-3.12v-1.1h3.21Z"/>
      <path class="d" d="M1273.65,569.55h4.67l.17-.12.75.57c-.03.07-.2.13-.27.17-.51,1.2-1.2,2.31-1.96,3.46v6.85h-.9v-5.67c-.8,1.05-1.73,1.99-2.63,2.71-.15-.23-.45-.51-.7-.73,2.01-1.51,3.89-3.94,5-6.21h-4.14v-1.01ZM1275.33,565.94c.83.5,2.21,1.53,2.92,2.19l-.7.8c-.7-.7-1.99-1.68-2.88-2.21l.65-.78ZM1277.94,573.75c.8.71,1.66,1.64,2.28,2.38l-.56.9c-.6-.81-1.41-1.75-2.19-2.53l.48-.75Z"/>
      <path class="d" d="M1201.83,591.51h6.6c.07-.07.12-.08.15-.1.15.17.28.37.68.73-.02.08-.18.17-.25.18-.81,2.36-2.03,4.64-3.21,6.43.62,1.15,1.13,2.18,1.43,3.06l-.85.81c-.6-1.88-2.24-4.89-3.46-6.61l.71-.63c.48.65,1.1,1.61,1.6,2.49,1.03-1.51,1.98-3.39,2.59-5.3h-6v-1.06Z"/>
      <path class="d" d="M1215.77,594.43c-.35,1.31-.76,2.51-1.3,3.46-.17-.28-.5-.55-.75-.8,1.01-1.68,1.61-4.64,1.96-7.58l1.28.25c-.02.13-.17.22-.35.23-.15,1.11-.35,2.24-.6,3.34h4.74v1.1h-2.06c-.23,3.82-.95,7.51-2.74,9.37-.17-.22-.57-.55-.81-.75,1.76-1.75,2.44-5.15,2.62-8.62h-1.99Z"/>
      <path class="d" d="M1238.31,595.96c-.08-1.18-.42-3.19-.76-4.54l.8-.27c.35,1.33.71,3.31.83,4.52l-.86.28ZM1244.64,591.23c-.03.12-.13.18-.25.22-.71,5.65-1.73,9.52-4.94,12.16-.15-.23-.51-.6-.75-.78,3.11-2.44,4.2-6.13,4.85-11.9l1.08.3ZM1240.69,595.46c-.08-1.35-.37-3.39-.63-4.77l.81-.25c.27,1.41.55,3.46.65,4.74l-.83.28Z"/>
      <path class="d" d="M1262.27,590.51l1.35.12c-.02.17-.18.28-.38.32v7.23h-.96v-7.66ZM1266.33,589.88l1.38.1c-.02.15-.15.27-.4.32v5.22c0,3.77-.71,6.71-3.69,8.31-.13-.27-.47-.6-.73-.83,2.71-1.41,3.44-3.99,3.44-7.49v-5.62Z"/>
      <path class="d" d="M1273.58,594.27c.78.4,2.04,1.13,2.62,1.59l-.48.95c-.56-.46-1.86-1.26-2.61-1.64l.46-.9ZM1274.02,602.34c2.71-1.71,4.47-4.87,5.45-9.49.2.17.58.38.81.5-1.05,4.59-2.91,7.99-5.43,9.69,0,.15-.13.32-.2.38l-.63-1.08ZM1274.7,590.23c.83.45,1.94,1.2,2.46,1.66l-.48.98c-.58-.55-1.66-1.28-2.48-1.73l.5-.91Z"/>
      <path class="d" d="M1208.65,617.76v1.05h-2.78c-.13,3.01-.71,6.46-2.66,8.23-.15-.23-.52-.62-.75-.8,1.79-1.5,2.41-4.65,2.51-7.43h-3.04v-1.05h6.71ZM1202.65,613.21h5.35v1.05h-5.35v-1.05Z"/>
      <path class="d" d="M1240.45,612.74l1.25.1c-.02.13-.12.25-.28.28v2.82h1.81l.18-.07.6.18c0,.08-.05.18-.08.23-.28,5.18-1.16,8.69-3.94,10.73-.18-.25-.53-.6-.8-.81,2.61-1.78,3.59-5.04,3.79-9.26h-4.09v3.89h-.86v-4.9h2.43v-3.21Z"/>
      <path class="d" d="M1262.54,612.92l1.21.12c-.02.15-.13.28-.32.32v3.11h2.31v-3.79l1.08.08c-.02.15-.07.27-.2.3v3.41h1.58v1.08h-1.58v.63c0,3.32-.48,6.76-2.79,8.66-.17-.27-.46-.6-.68-.83,2.24-1.86,2.59-4.87,2.59-7.84v-.62h-2.31v4.54h-.9v-4.54h-1.51v-1.08h1.51v-3.54Z"/>
      <g>
        <path class="e" d="M2.06,131.79l1.11,1.17v7.12l-2.2,1.99v-9.29l1.08-1ZM9.42,141.05l1.38,1.47-.82.75-8.62-.76,2.2-1.98,5.86.51ZM9.98,130.99l.82.86-1.38,1.27-5.86-.51-1.11-1.21,1.11-.97,6.42.55ZM18.86,131.75l1.11,1.21-1.11.97-5.86-.5-1.38-1.49.85-.73,6.39.55ZM18.86,141.85l2.2,2.4-8.59-.75-.85-.88,1.38-1.25,5.86.48ZM20.38,133.42l1.08,1.17v9.32l-2.2-2.4v-7.12l1.11-.97Z"/>
        <path class="e" d="M9.98,117.47l.82.89-1.38,1.27-7.39-.65-1.06-1.18,1.06-1.03,7.94.7ZM20.38,118.38l1.09,1.21-1.09,1-7.39-.65-1.38-1.49.85-.76,7.92.69Z"/>
        <path class="e" d="M.98,93.1l2.2,2.34v7.53l-2.2,1.99v-11.87ZM9.98,106.17l-8.62-.76,2.2-1.98,5.86.51,1.38,1.47-.82.75ZM10.12,96.2l1.1-1.03,1.1,1.23v7.67l-1.1.95-1.1-1.17v-7.65ZM12.99,104.25l5.86.48,2.2,2.4-8.59-.75-.85-.88,1.38-1.25ZM21.47,94.88v11.92l-2.2-2.4v-7.55l2.2-1.97Z"/>
        <path class="e" d="M.98,71.26l2.2,2.35v7.12l-1.11,1-1.08-1.17v-9.29ZM9.42,81.66l1.38,1.49-.82.76-6.42-.56-1.11-1.2,1.11-1,5.86.51ZM11.22,72.93l1.1,1.23v2.46l-1.1.97-1.1-1.17v-2.46l1.1-1.03ZM18.86,72.4l1.11,1.2-1.11.98-5.86-.51-1.38-1.49.85-.73,6.39.56ZM18.86,82.48l1.11,1.24-1.11.97-6.39-.55-.85-.89,1.38-1.27,5.86.5ZM21.47,75.21l-1.08-1.17-1.11.97v7.12l1.11,1.2,1.08-1v-7.12Z"/>
        <path class="e" d="M2.06,50.18l1.11,1.17v7.12l-1.11,1-1.08-1.17v-7.12l1.08-1ZM9.98,49.38l.82.86-1.38,1.27-5.86-.5-1.11-1.21,1.11-.97,6.42.55ZM9.42,59.42l1.38,1.49-.82.76-6.42-.56-1.11-1.21,1.11-1,5.86.51ZM18.86,50.14l1.11,1.21-1.11.97-5.86-.5-1.38-1.49.85-.73,6.39.55ZM18.86,62.44l1.11-.96-1.11-1.22-5.86-.51-1.38,1.25.85.88,6.39.56ZM21.47,60.09l-1.08,1-1.11-1.2v-7.12l1.11-.97,1.08,1.17v7.12Z"/>
      </g>
      <g>
        <path class="d" d="M3.48,38.84c0,.69-.5,1.05-1.16,1.05s-1.19-.37-1.19-1.05v-12.16c0-1,.47-1.42,1.35-1.42.95,0,1.35.34,2.06.87,4.04,2.96,9.68,5.25,16.15,6.65.84.18,1.13.69,1.13,1.37v.08c-.03.74-.4,1.32-1.08,1.32-.11,0-.24-.03-.34-.05-6.02-1.35-12.11-4.01-16.91-7.31v10.66Z"/>
        <path class="d" d="M6.57,5.25c3.75.11,6.23.4,8.5.95,2.96.74,5.67,2.32,7.39,4.22.18.21.26.45.26.69,0,.32-.16.66-.47.9-.18.16-.42.24-.63.24-.29,0-.55-.13-.82-.4-1.5-1.66-3.69-2.88-6.07-3.56-1.9-.55-4.46-.84-8.15-.98v3.43c1.87.58,3.54,1.13,4.8,1.9.32.18.48.53.48.87,0,.24-.05.47-.19.69-.16.29-.45.45-.79.45-.21,0-.42-.05-.63-.18-1.77-1-4.04-1.82-7.18-2.51-.9-.21-1.74-.34-2.32-.42-.55-.08-.74-.47-.74-.95v-.21c.05-.55.32-.9.84-.9.08,0,.13,0,.21.03.5.08,1.03.18,1.85.34.53.11,1.24.29,1.66.42-.03-.47-.05-.95-.05-1.5V3.14c0-.5.4-.82,1-.82s1.06.32,1.06.82v2.11Z"/>
      </g>
      <g>
        <path class="d" d="M.6,200.22c0-.61.29-1,.95-1,2.53-.03,5.57-.21,8.07-.55,3.83-.53,7.07-1.27,9.21-2.24.21-.11.42-.16.63-.16.32,0,.63.16.84.48.16.24.24.5.24.71,0,.34-.16.66-.5.82-2.32,1.13-6.04,1.9-9.47,2.37-2.61.37-6.49.66-8.97.69-.61-.03-.98-.37-1-1.03v-.08ZM20.04,206.71c.34.16.5.45.5.79,0,.24-.08.53-.24.77-.18.32-.5.45-.84.45-.21,0-.42-.05-.66-.16-2.11-.98-5.28-1.71-9.08-2.22-2.51-.34-5.59-.47-8.18-.53-.66-.03-.92-.47-.92-1.13s.34-.98.92-.98h.05c2.48.03,6.36.29,9.02.63,3.43.45,7.07,1.29,9.42,2.38Z"/>
        <path class="d" d="M7.75,179.22c.55,0,.82.34.95.77.03.13.05.29.05.42,0,.37-.16.66-.61.77-2.24.34-4.85.87-6.83,1.53-.13.03-.26.05-.37.05-.4,0-.66-.24-.79-.63-.05-.21-.11-.4-.11-.58,0-.32.13-.58.48-.69,1.98-.71,4.85-1.27,6.99-1.61.08-.03.16-.03.24-.03ZM20.78,182.26c.16.18.24.42.24.66,0,.34-.16.71-.5.95-.18.18-.4.26-.61.26-.29,0-.55-.13-.84-.42-2.14-2.37-4.64-4.41-8.39-5.54-3.64-1.08-6.7-1.13-9.13-1.21-.63-.05-.87-.45-.87-.9,0-.08,0-.16.03-.24.05-.53.29-.98,1.06-.98h.05c3.03.16,6.6.53,9.68,1.45,3.85,1.19,6.91,3.3,9.29,5.96ZM2.23,186.38c-.42,0-.77-.32-.87-.69-.05-.16-.08-.29-.08-.42,0-.34.16-.63.55-.79,1.98-.71,4.8-1.32,6.94-1.71.13-.03.24-.03.34-.03.5,0,.77.26.9.74.05.16.08.32.08.45,0,.37-.16.71-.63.77-2.19.34-4.93.98-6.89,1.64-.11.03-.24.05-.34.05Z"/>
        <path class="d" d="M2.76,163.11c0,.55-.34.84-.95.84s-1.03-.29-1.03-.84v-9.16c0-.58.4-.84,1-.84s.98.29.98.84v4.35h5.57v-4.99c0-.58.42-.84,1.03-.84s.95.29.95.84v4.99h6.73c1.27,0,1.69-.34,1.69-1.61,0-.98-.08-2.19-.16-2.69-.03-.11-.03-.21-.03-.32,0-.53.26-.87.95-.92h.16c.63,0,.87.34.95.82.16.98.19,2.22.19,3.48,0,2.59-.98,3.32-3.69,3.32h-6.78v3.27c0,.55-.34.84-.95.84s-1.03-.26-1.03-.84v-3.27H2.76v2.72Z"/>
      </g>
      <g>
        <path class="e" d="M1143.9,484.89l.88-.85,1.25,1.38-.51,5.86-1.22,1.11-.96-1.11.56-6.39ZM1144.87,483.22l1.49-1.38.55-6.27-2.02-2.18-.79,9.01.76.82ZM1152.81,493.89l1.17-1.08-.97-1.11h-7.12l-1.2,1.11,1,1.08h7.12ZM1156.18,484.89l-.73-.85-1.49,1.38-.51,5.86.97,1.11,1.21-1.11.55-6.39ZM1155.54,483.22l.86-.82.79-9.01-2.35,2.18-.57,6.27,1.27,1.38Z"/>
        <path class="e" d="M1177.23,493.89h-10.79l-1-1.08,1.2-1.11h8.62l1.96,2.2ZM1170.63,484.04l1.2-.12.09,1.94-4.72,5.31h-1.62s.15-1.53.15-1.53l4.9-5.6ZM1179.34,474.48l-1.17,1.11h-9l-2.02-2.2h11.2l1,1.08ZM1174.33,483.08l-1.94.23v-1.18l5.28-5.98h1.52l-.12,1.6-4.73,5.32Z"/>
        <path class="e" d="M1190.52,485.42l-.52,6.27-2.4,2.21.79-9.01.88-.85,1.26,1.38ZM1188.61,482.4l.75-8.62,1.99,2.2-.51,5.86-1.47,1.38-.75-.82ZM1198.58,482.54l1.03,1.1-1.23,1.1h-7.68l-.96-1.1,1.18-1.1h7.66ZM1201.26,473.4l-2.35,2.2h-7.12l-1.99-2.2h11.46ZM1200.67,484.89l-.79,9.01-1.96-2.21.52-6.27,1.49-1.38.73.85ZM1198.76,481.84l.51-5.86,2.38-2.2-.76,8.62-.86.82-1.27-1.38Z"/>
        <path class="e" d="M1213.5,492.8l-1.21,1.09-1-1.09.65-7.39,1.49-1.38.76.85-.69,7.92ZM1214.41,482.4l-.89.82-1.27-1.38.65-7.39,1.18-1.06,1.03,1.06-.7,7.94Z"/>
      </g>
      <g>
        <path class="d" d="M1032.91,493.62c-.16.34-.45.5-.79.5-.24,0-.53-.08-.77-.24-.32-.18-.45-.5-.45-.84,0-.21.05-.42.16-.66.98-2.11,1.71-5.28,2.22-9.08.34-2.51.47-5.59.53-8.18.03-.66.47-.92,1.13-.92s.98.34.98.92v.05c-.03,2.48-.29,6.36-.63,9.02-.45,3.43-1.29,7.07-2.38,9.42ZM1039.4,474.18c.61,0,1,.29,1,.95.03,2.53.21,5.57.55,8.07.53,3.83,1.27,7.07,2.24,9.21.11.21.16.42.16.63,0,.32-.16.63-.48.84-.24.16-.5.24-.71.24-.34,0-.66-.16-.82-.5-1.13-2.32-1.9-6.04-2.37-9.47-.37-2.61-.66-6.49-.69-8.97.03-.61.37-.98,1.03-1h.08Z"/>
        <path class="d" d="M1053.25,475.81c0-.42.32-.76.69-.87.16-.05.29-.08.42-.08.34,0,.63.16.79.55.71,1.98,1.32,4.8,1.71,6.94.03.13.03.24.03.34,0,.5-.26.77-.74.9-.16.05-.32.08-.45.08-.37,0-.71-.16-.77-.63-.34-2.19-.98-4.93-1.64-6.89-.03-.11-.05-.24-.05-.34ZM1057.36,494.36c-.18.16-.42.24-.66.24-.34,0-.71-.16-.95-.5-.18-.18-.26-.4-.26-.61,0-.29.13-.55.42-.84,2.37-2.14,4.41-4.64,5.54-8.39,1.08-3.64,1.13-6.7,1.21-9.13.05-.63.45-.87.9-.87.08,0,.16,0,.24.03.53.05.98.29.98,1.06v.05c-.16,3.03-.53,6.6-1.45,9.68-1.19,3.85-3.3,6.91-5.96,9.29ZM1060.4,481.33c0,.55-.34.82-.77.95-.13.03-.29.05-.42.05-.37,0-.66-.16-.77-.61-.34-2.24-.87-4.85-1.53-6.83-.03-.13-.05-.26-.05-.37,0-.4.24-.66.63-.79.21-.05.4-.11.58-.11.32,0,.58.13.69.47.71,1.98,1.27,4.85,1.61,6.99.03.08.03.16.03.24Z"/>
        <path class="d" d="M1076.52,476.34c-.55,0-.84-.34-.84-.95s.29-1.03.84-1.03h9.16c.58,0,.84.4.84,1s-.29.98-.84.98h-4.35v5.57h4.99c.58,0,.84.42.84,1.03s-.29.95-.84.95h-4.99v6.73c0,1.27.34,1.69,1.61,1.69.98,0,2.19-.08,2.69-.16.11-.03.21-.03.32-.03.53,0,.87.26.92.95v.16c0,.63-.34.87-.82.95-.98.16-2.22.18-3.48.18-2.59,0-3.32-.98-3.32-3.69v-6.78h-3.27c-.55,0-.84-.34-.84-.95s.26-1.03.84-1.03h3.27v-5.57h-2.72Z"/>
        <path class="d" d="M1098.76,475.89c-.69,0-1.05-.5-1.05-1.16s.37-1.19,1.05-1.19h12.16c1,0,1.42.47,1.42,1.35,0,.95-.34,1.35-.87,2.06-2.96,4.04-5.25,9.68-6.65,16.15-.18.84-.69,1.13-1.37,1.13h-.08c-.74-.03-1.32-.4-1.32-1.08,0-.11.03-.24.05-.34,1.35-6.01,4.01-12.11,7.31-16.91h-10.66Z"/>
        <path class="d" d="M1132.34,478.98c-.11,3.75-.4,6.23-.95,8.5-.74,2.96-2.32,5.67-4.22,7.39-.21.18-.45.26-.69.26-.32,0-.66-.16-.9-.48-.16-.18-.24-.42-.24-.63,0-.29.13-.55.4-.82,1.66-1.5,2.88-3.69,3.56-6.07.55-1.9.84-4.46.98-8.15h-3.43c-.58,1.87-1.13,3.54-1.9,4.8-.18.32-.53.47-.87.47-.24,0-.47-.05-.69-.18-.29-.16-.45-.45-.45-.79,0-.21.05-.42.18-.63,1-1.77,1.82-4.04,2.51-7.18.21-.9.34-1.74.42-2.32.08-.55.47-.74.95-.74h.21c.55.05.9.32.9.84,0,.08,0,.13-.03.21-.08.5-.18,1.03-.34,1.85-.11.53-.29,1.24-.42,1.66.47-.03.95-.05,1.5-.05h5.62c.5,0,.82.4.82,1s-.32,1.05-.82,1.05h-2.11Z"/>
      </g>
      <g>
        <path class="d" d="M1228.01,476.29c-.74,0-.95.18-.95.98v5.28c0,.61-.5.9-1.06.9s-1.05-.29-1.05-.9v-5.86c0-1.69.71-2.48,2.24-2.48h5.94c1.85,0,2.53.79,2.51,2.8-.05,3.8-.53,7.41-1.48,10.26-.98,2.9-2.93,5.7-5.33,7.33-.21.13-.42.21-.63.21-.34,0-.69-.16-.84-.48-.16-.26-.24-.5-.24-.71,0-.34.16-.61.47-.84,2.4-1.77,3.77-3.8,4.62-6.25.87-2.51,1.27-5.91,1.29-9.26,0-.82-.21-.98-.9-.98h-4.59Z"/>
        <path class="d" d="M1249.67,485.42c0,.58-.47.87-1.05.87s-1.06-.26-1.06-.87v-11.29c0-.61.5-.87,1.06-.87s1.05.29,1.05.87v11.29ZM1256.9,482.38c0,4.38-.45,6.54-1.58,8.52-1.03,1.82-2.82,3.11-4.64,4.01-.18.08-.37.13-.55.13-.4,0-.77-.21-1-.66-.08-.18-.13-.34-.13-.53,0-.4.26-.71.63-.9,1.48-.71,2.98-1.69,3.88-3.22.92-1.58,1.29-3.35,1.29-7.33v-8.28c0-.61.5-.87,1.06-.87s1.06.26,1.06.87v8.26Z"/>
        <path class="d" d="M1276.52,484.18c1.35,1.85,2.59,3.77,3.48,5.49.11.21.16.45.16.63,0,.34-.16.63-.45.82-.24.16-.5.24-.71.24-.34,0-.63-.16-.79-.47-.76-1.5-1.69-2.98-2.66-4.41-1.48,3.17-3.4,5.8-5.51,7.81-.21.21-.5.32-.76.32-.29,0-.58-.13-.82-.37-.21-.21-.29-.47-.29-.71,0-.32.13-.63.4-.87,2.19-2,4.22-4.91,5.57-8.13-1.5-2-3.11-3.85-4.56-5.49-.21-.24-.32-.47-.32-.71,0-.29.13-.55.37-.77.21-.18.47-.29.74-.29s.53.11.76.34c1.11,1.19,2.48,2.77,3.85,4.54.95-2.98,1.53-6.12,1.82-8.26.08-.61.48-.82.9-.82.11,0,.21,0,.32.03.53.08.95.37.95.95v.16c-.37,2.82-1.29,6.78-2.4,9.87l-.03.11Z"/>
      </g>
      <path class="d" d="M205.54,450.9h-97.6l-59.23-59.23v-157.66h62.06v154.83h94.77c9.57,0,17.35-7.79,17.35-17.36v-137.48h62.06v137.48c0,43.79-35.63,79.42-79.42,79.42ZM109.59,446.9h95.94c41.58,0,75.42-33.83,75.42-75.42v-133.48h-54.06v133.48c0,11.78-9.58,21.36-21.35,21.36h-98.77v-154.83h-54.06v152l56.89,56.89Z"/>
      <path class="e" d="M718.42,450.4h-338.99c-43.51,0-78.92-35.4-78.92-78.92v-.62l58.94-58.94h356.85v-16.36h-356.85l-61.06-61.06h420.91v58.06h58.06v21.48l-58.94,58.94h-356.79c.76,9.15,8.45,16.36,17.79,16.36h400.06l-61.06,61.06ZM303.52,372.1c.33,41.58,34.26,75.3,75.91,75.3h337.75l55.06-55.06h-392.81c-11.5,0-20.86-9.36-20.86-20.86v-1.5h358.61l57.18-57.18v-17.23h-55.06v19.36h-358.61l-57.18,57.18ZM360.69,292.57h355.61v-55.06h-410.67l55.06,55.06Z"/>
      <path class="d" d="M967.11,453.73v-135.48l-55.23,55.23h-39.54c-9.57,0-17.35,7.79-17.35,17.35v60.06h-62.06v-60.06c0-28.85,15.69-55.48,40.95-69.49,2.3-1.28,4.67-2.45,7.09-3.49h-48.04v-4.44c0-43.79,35.63-79.42,79.42-79.42h97.6l59.24,59.24v98.43l-62.06,62.06ZM796.92,446.9h54.06v-56.06c0-11.77,9.58-21.35,21.35-21.35h37.88l54.06-54.06h-91.94c-5.87,0-11.7.68-17.35,2.01v.43h-1.75c-6.07,1.58-11.93,3.93-17.42,6.98-23.99,13.31-38.89,38.59-38.89,65.99v56.06ZM971.11,314.25v129.82l54.06-54.06v-95.11l-56.89-56.89h-95.94c-41.58,0-75.42,33.83-75.42,75.42v.44h54.06v-.44c0-11.78,9.58-21.36,21.35-21.36h98.77v19.35h2.83l-2.83,2.83ZM872.34,296.07c-9.54,0-17.3,7.73-17.35,17.26,5.67-1.26,11.5-1.9,17.35-1.9h94.77v-15.36h-94.77Z"/>
      <path class="d" d="M1280.48,450.9h-236.25v-62.06h87.09v-92.77h-87.09v-62.06h89.92l55.23,55.24v-55.24h91.09v62.06h-87.09v92.77h87.09v62.06ZM1048.23,446.9h228.25v-54.06h-87.09v-97.94l-56.89-56.89h-84.26v54.06h87.09v100.77h-87.09v54.06ZM1193.39,292.07h83.09v-54.06h-83.09v54.06Z"/>
      <path class="d" d="M217.46,219.7h-97.57c-43.78,0-79.4-35.62-79.4-79.4V60.9h55.21L37.67,2.83h159.63c43.78,0,79.4,35.62,79.4,79.4v78.23l-59.24,59.24ZM44.5,64.9v75.4c0,41.58,33.83,75.4,75.4,75.4h95.91l56.9-56.89v-76.57c0-41.58-33.83-75.4-75.4-75.4H47.32l54.04,54.07h95.97c11.78,0,21.36,9.58,21.36,21.37v79.4h-98.77c-11.78,0-21.37-9.58-21.37-21.37v-75.4h-54.07ZM102.56,64.9v75.4c0,9.58,7.79,17.37,17.37,17.37h94.77v-75.4c0-9.58-7.79-17.37-17.36-17.37h-94.77Z"/>
      <path class="d" d="M528.03,219.7h-236.22v-62.06h87.08v-92.76h-87.08V2.83h89.91l55.23,55.23V2.83h91.08v62.06h-87.08v92.76h87.08v62.06ZM295.8,215.7h228.22v-54.06h-87.08V63.71l-56.88-56.88h-84.26v54.06h87.08v100.76h-87.08v54.06ZM440.94,60.88h83.08V6.83h-83.08v54.06Z"/>
      <path class="d" d="M779.34,219.7h-156.81c-43.79,0-79.41-35.62-79.41-79.41v-4.44h48.03c-2.42-1.04-4.78-2.21-7.09-3.49-25.26-14.01-40.95-40.63-40.95-69.48v-2h58.06V2.83h98.76c43.79,0,79.41,35.62,79.41,79.41v2h-88.94l17.45-17.43c-2.44-1.26-5.14-1.92-7.92-1.92h-94.65c1,8.63,8.35,15.35,17.24,15.35h58.88l62.06,62.06h-120.94c-5.85,0-11.68-.64-17.35-1.91.05,9.52,7.82,17.26,17.35,17.26h156.81v62.06ZM547.11,139.85v.44c0,41.58,33.83,75.41,75.41,75.41h152.81v-54.06h-152.81c-11.77,0-21.35-9.58-21.35-21.35v-.44h-54.06ZM605.17,136.28c5.67,1.33,11.49,2.01,17.35,2.01h111.28l-54.06-54.06h-57.23c-11.1,0-20.25-8.51-21.26-19.35h-54.12c.71,26.62,15.46,51,38.86,63.98,5.5,3.06,11.35,5.41,17.42,6.98h1.75v.43ZM700.06,80.24h75.25c-1.06-40.66-34.47-73.41-75.38-73.41h-94.76v54.06h94.76c4.42,0,8.66,1.35,12.28,3.9l1.94,1.37-14.09,14.08Z"/>
      <path class="d" d="M972.59,219.7h-98.76c-21.21,0-41.15-8.26-56.15-23.26-15-15-23.26-34.94-23.26-56.15V0l58.06,58.06V2.83h181l-62.06,62.06h-114.94v75.41c0,9.57,7.78,17.35,17.35,17.35h94.65c-1-8.63-8.35-15.35-17.24-15.35h-20.18l-62.06-62.06h82.24c43.79,0,79.41,35.62,79.41,79.41v2h-58.06v58.05ZM798.42,9.66v130.64c0,20.14,7.84,39.08,22.09,53.32s33.18,22.09,53.32,22.09h94.76v-54.06h-94.76c-11.77,0-21.35-9.58-21.35-21.35V63.71l-54.06-54.06ZM972.5,157.64h54.12c-1.06-40.66-34.47-73.41-75.38-73.41h-72.58l54.06,54.06h18.52c11.1,0,20.25,8.51,21.26,19.35ZM856.48,60.88h113.28l54.06-54.06h-167.34v54.06Z"/>
      <path class="e" d="M1222.52,219.2h-118.23v-58.06h-58.06V62.26l58.93-58.94h118.23v58.06h58.06v98.88l-58.93,58.93ZM1107.29,216.2h113.99l57.18-57.18v-94.64h-55.06v96.76h-116.11v55.06ZM1107.29,158.14h113.11v-93.76h-113.11v93.76ZM1049.23,158.14h55.06V61.38h116.11V6.33h-113.99l-57.18,57.18v94.64Z"/>
    </g>
  </g>
</svg>