<?xml version="1.0" encoding="UTF-8"?>
<svg id="b" data-name="Camada 2" xmlns="http://www.w3.org/2000/svg" viewBox="0 0 1518.35 840.51">
  <defs>
    <style>
      .d {
        fill: #5900ff;
      }

      .e {
        fill: #fd2c78;
      }
    </style>
  </defs>
  <g id="c" data-name="Camada 1">
    <g>
      <path class="d" d="M1237.25,666.58v-45.86h1.63v45.86h-1.63ZM1240.52,666.58v-45.86h3.27v45.86h-3.27ZM1248.69,666.58v-45.86h1.63v45.86h-1.63Z"/>
      <path class="d" d="M1266.13,665.62v-44.9h3.27v44.9h-3.27ZM1274.3,665.62v-44.9h1.63v44.9h-1.63ZM1280.84,665.62v-44.9h1.63v44.9h-1.63Z"/>
      <path class="d" d="M1295.01,666.58v-45.86h1.63v45.86h-1.63ZM1301.55,666.58v-45.86h3.27v45.86h-3.27ZM1306.45,666.58v-45.86h1.63v45.86h-1.63Z"/>
      <path class="d" d="M1323.89,666.58v-45.86h3.27v45.86h-3.27ZM1328.79,666.58v-45.86h1.63v45.86h-1.63ZM1335.33,666.58v-45.86h1.63v45.86h-1.63Z"/>
      <path class="d" d="M1352.77,666.38v-45.66h1.63v45.66h-1.63ZM1359.31,666.38v-45.66h4.9v45.66h-4.9ZM1365.85,666.38v-45.66h3.27v45.66h-3.27Z"/>
      <path class="d" d="M1381.65,666.58v-45.86h3.27v45.86h-3.27ZM1386.56,666.58v-45.86h3.27v45.86h-3.27ZM1393.09,666.58v-45.86h3.27v45.86h-3.27Z"/>
      <path class="d" d="M1410.53,666.58v-45.86h3.27v45.86h-3.27ZM1415.44,666.58v-45.86h4.9v45.86h-4.9ZM1421.98,666.58v-45.86h4.9v45.86h-4.9Z"/>
      <path class="d" d="M1439.41,666.58v-45.86h4.9v45.86h-4.9ZM1445.95,666.58v-45.86h3.27v45.86h-3.27ZM1454.13,666.58v-45.86h1.63v45.86h-1.63Z"/>
      <path class="e" d="M1468.29,666.58v-45.86h1.63v45.86h-1.63ZM1471.56,666.58v-45.86h1.63v45.86h-1.63ZM1478.1,666.58v-45.86h3.27v45.86h-3.27Z"/>
      <path class="d" d="M1497.18,666.58v-45.86h3.27v45.86h-3.27ZM1505.35,666.58v-45.86h1.63v45.86h-1.63ZM1511.89,666.58v-45.86h1.63v45.86h-1.63Z"/>
      <path class="d" d="M1354.21,697.56c1.39.71,3.62,2,4.66,2.83l-.85,1.68c-1-.82-3.3-2.24-4.63-2.92l.82-1.59ZM1354.97,711.89c4.8-3.03,7.93-8.63,9.67-16.83.35.29,1.03.68,1.44.88-1.86,8.13-5.16,14.18-9.64,17.18,0,.26-.24.56-.35.68l-1.12-1.92ZM1356.18,690.4c1.47.8,3.45,2.12,4.36,2.95l-.85,1.74c-1.03-.97-2.95-2.27-4.39-3.07l.88-1.62Z"/>
      <path class="d" d="M1380.32,696.39c.03-2.21.06-4.66.06-7.34l2.24.12c-.03.26-.24.41-.53.47,0,2.39-.03,4.72-.12,6.75h4.89v1.92h-4.95c-.33,7.78-1.47,12.73-5.28,16.24-.32-.35-1-.91-1.53-1.27,3.65-3.21,4.8-7.75,5.16-14.97h-5.78v-1.92h5.84Z"/>
      <path class="d" d="M1395.58,713.01v-1.59l2.03-1.97c4.89-4.66,7.1-7.13,7.13-10.02,0-1.95-.94-3.74-3.8-3.74-1.74,0-3.18.88-4.07,1.62l-.82-1.83c1.33-1.12,3.21-1.95,5.42-1.95,4.13,0,5.86,2.83,5.86,5.57,0,3.54-2.56,6.39-6.6,10.29l-1.53,1.41v.06h8.6v2.15h-12.23Z"/>
      <path class="d" d="M1416.54,708.79c1.15-1.8,2.03-4.63,2.51-7.66l1.33.71c-.53,3.18-1.44,6.37-2.65,8.37l-1.18-1.41ZM1422.14,689.49l2.09.15c-.03.29-.21.47-.5.5v5.25h4.77v1.95h-4.77v14.38c0,2.3-.62,2.53-3.6,2.53-.06-.5-.24-1.24-.44-1.86.38.03.77.03,1.12.03.47,0,.85,0,1-.03.26,0,.32-.18.32-.68v-14.38h-4.66v-1.95h4.66v-5.89ZM1428.12,710.18c-.53-2.27-1.83-6.07-2.77-8.34l1.3-.83c1,2.21,2.27,5.72,2.83,7.87l-1.36,1.3Z"/>
      <path class="d" d="M1449.96,698.18v1.86h-4.92c-.24,5.33-1.27,11.46-4.72,14.59-.26-.41-.91-1.09-1.33-1.41,3.18-2.65,4.27-8.25,4.45-13.17h-5.39v-1.86h11.91ZM1439.32,690.11h9.49v1.86h-9.49v-1.86Z"/>
      <path class="d" d="M1464.04,689.28l2.21.18c-.03.24-.21.44-.5.5v5.01h3.21l.32-.12,1.06.33c0,.15-.09.32-.15.41-.5,9.19-2.06,15.41-6.98,19.04-.32-.44-.94-1.06-1.41-1.44,4.63-3.15,6.37-8.93,6.72-16.42h-7.25v6.9h-1.53v-8.7h4.3v-5.69Z"/>
      <path class="d" d="M1479.66,708.15c0-2.42,1.44-4.13,3.8-5.13l-.03-.09c-2.12-1-3.04-2.65-3.04-4.3,0-3.03,2.56-5.1,5.92-5.1,3.71,0,5.57,2.33,5.57,4.72,0,1.62-.8,3.36-3.15,4.48v.09c2.39.94,3.86,2.62,3.86,4.95,0,3.33-2.86,5.57-6.51,5.57-4.01,0-6.42-2.39-6.42-5.19ZM1489.97,708.03c0-2.33-1.62-3.45-4.21-4.19-2.24.65-3.45,2.12-3.45,3.95-.09,1.95,1.39,3.65,3.83,3.65s3.83-1.44,3.83-3.42ZM1482.84,698.45c0,1.92,1.44,2.95,3.65,3.54,1.65-.56,2.92-1.74,2.92-3.48,0-1.53-.91-3.13-3.24-3.13-2.15,0-3.33,1.41-3.33,3.07Z"/>
      <path class="d" d="M1501.91,698.07h9.75l.24-.24,1.21.88c-.03.15-.24.27-.32.33-1,7.84-3.21,12.76-8.4,15.35-.21-.44-.77-1.18-1.09-1.53,4.54-2.21,6.87-6.57,7.66-12.94h-9.05v-1.86ZM1503.09,690.34h8.64v1.86h-8.64v-1.86Z"/>
      <path class="d" d="M1353.7,753.02h11.91v1.97h-11.91v-1.97ZM1354.85,736.55h9.49v1.97h-9.49v-1.97Z"/>
      <path class="d" d="M1376.96,732.95l2.15.21c-.03.27-.24.5-.56.56v5.51h4.1v-6.72l1.92.15c-.03.27-.12.47-.35.53v6.04h2.8v1.92h-2.8v1.12c0,5.89-.85,11.99-4.95,15.35-.29-.47-.82-1.06-1.21-1.47,3.98-3.3,4.6-8.63,4.6-13.91v-1.09h-4.1v8.05h-1.59v-8.05h-2.68v-1.92h2.68v-6.28Z"/>
      <path class="d" d="M1396.38,735.37h9.55l.27-.24,1.3.85c-.06.15-.24.3-.35.38-.35,11.41-2.18,16.83-7.9,21.19-.29-.44-.88-1.09-1.33-1.47,5.07-3.77,7.25-8.7,7.54-18.8h-7.46v8.08h-1.62v-9.99Z"/>
      <path class="d" d="M1416.48,754.14c.53,0,1.09-.03,1.68-.06.91-5.81,2.3-14.94,3.12-20.9l2.42.56c-.03.26-.35.47-.71.5-.86,5.57-2.39,14.53-3.24,19.72,2.21-.15,4.77-.35,6.84-.59-.71-2.65-1.68-5.57-2.51-7.69l1.36-.68c1.41,3.33,3.1,8.43,3.6,11.49l-1.65.88c-.12-.74-.26-1.56-.47-2.42-2.48.32-6.96.77-9.52.97-.09.24-.24.41-.5.47l-.41-2.27Z"/>
      <path class="d" d="M1445.56,756.35v-5.22h-8.9v-1.71l8.55-12.23h2.8v11.91h2.68v2.03h-2.68v5.22h-2.45ZM1445.56,749.1v-6.39c0-1,.03-2,.09-3.01h-.09c-.59,1.12-1.06,1.95-1.59,2.83l-4.69,6.51v.06h6.28Z"/>
      <path class="d" d="M1485.76,742.97c.15-2,.18-4.24.21-6.66-1.71.62-3.65,1.27-5.25,1.68-.18-.47-.47-1.09-.71-1.5,3.15-.77,7.57-2.51,9.61-3.92l1.36,1.65c-.09.09-.24.15-.38.12-.77.44-1.91.97-2.98,1.39-.03,2.62-.09,5.04-.24,7.25h4.72v1.95h-4.86c-.44,5.39-1.62,9.99-4.51,13-.32-.38-.94-1.03-1.39-1.39,2.62-2.54,3.83-6.46,4.27-11.61h-5.54v-1.95h5.69Z"/>
      <path class="d" d="M1501.97,738.52h8.28l.3-.21,1.33,1c-.06.12-.35.24-.47.3-.91,2.12-2.12,4.1-3.48,6.13v12.14h-1.59v-10.05c-1.41,1.86-3.07,3.54-4.66,4.8-.27-.41-.8-.91-1.24-1.3,3.57-2.68,6.9-6.99,8.87-11.02h-7.34v-1.8ZM1504.94,732.12c1.47.89,3.92,2.71,5.19,3.89l-1.24,1.41c-1.24-1.24-3.54-2.98-5.1-3.92l1.15-1.39ZM1509.57,745.98c1.41,1.27,2.95,2.92,4.04,4.21l-1,1.59c-1.06-1.44-2.5-3.1-3.89-4.48l.85-1.33Z"/>
      <path class="d" d="M1374.54,777.49h11.7c.12-.12.21-.15.27-.18.26.29.5.65,1.21,1.3-.03.15-.32.29-.44.32-1.44,4.18-3.6,8.22-5.69,11.41,1.09,2.03,2,3.86,2.54,5.42l-1.5,1.44c-1.06-3.33-3.98-8.66-6.13-11.73l1.27-1.12c.86,1.15,1.95,2.86,2.83,4.42,1.83-2.68,3.51-6.01,4.6-9.4h-10.64v-1.89Z"/>
      <path class="d" d="M1399.26,782.68c-.62,2.33-1.36,4.45-2.3,6.13-.29-.5-.88-.97-1.33-1.41,1.8-2.98,2.86-8.22,3.48-13.44l2.27.44c-.03.24-.3.38-.62.41-.26,1.97-.62,3.98-1.06,5.92h8.4v1.95h-3.65c-.41,6.78-1.68,13.32-4.86,16.62-.3-.38-1-.97-1.44-1.33,3.12-3.1,4.33-9.14,4.66-15.3h-3.54Z"/>
      <path class="d" d="M1439.26,785.39c-.15-2.09-.74-5.66-1.36-8.05l1.41-.47c.62,2.36,1.27,5.87,1.47,8.02l-1.53.5ZM1450.49,776.99c-.06.21-.24.33-.44.38-1.27,10.02-3.07,16.89-8.75,21.58-.26-.41-.91-1.06-1.33-1.39,5.51-4.33,7.46-10.88,8.61-21.1l1.92.53ZM1443.47,784.5c-.15-2.39-.65-6.01-1.12-8.46l1.44-.44c.47,2.51.97,6.13,1.15,8.4l-1.47.5Z"/>
      <path class="d" d="M1481.78,775.72l2.39.21c-.03.3-.32.5-.68.56v12.82h-1.71v-13.59ZM1488.97,774.6l2.45.18c-.03.26-.27.47-.71.56v9.25c0,6.69-1.27,11.91-6.54,14.74-.24-.47-.82-1.06-1.3-1.47,4.8-2.51,6.1-7.07,6.1-13.29v-9.96Z"/>
      <path class="d" d="M1501.85,782.38c1.39.71,3.62,2,4.66,2.83l-.85,1.68c-1-.82-3.3-2.24-4.63-2.92l.82-1.59ZM1502.61,796.7c4.8-3.03,7.93-8.63,9.67-16.83.35.29,1.03.68,1.44.88-1.86,8.13-5.16,14.18-9.64,17.18,0,.26-.24.56-.35.68l-1.12-1.92ZM1503.82,775.22c1.47.8,3.45,2.12,4.36,2.95l-.85,1.74c-1.03-.97-2.95-2.27-4.39-3.07l.88-1.62Z"/>
      <path class="d" d="M1386.63,824.06v1.86h-4.92c-.24,5.33-1.27,11.46-4.72,14.59-.26-.41-.91-1.09-1.33-1.41,3.18-2.65,4.27-8.25,4.45-13.17h-5.39v-1.86h11.91ZM1375.98,815.99h9.49v1.86h-9.49v-1.86Z"/>
      <path class="d" d="M1443.06,815.16l2.21.18c-.03.24-.21.44-.5.5v5.01h3.21l.32-.12,1.06.33c0,.15-.09.32-.15.41-.5,9.19-2.06,15.41-6.98,19.04-.32-.44-.94-1.06-1.41-1.44,4.63-3.15,6.37-8.93,6.72-16.42h-7.25v6.9h-1.53v-8.7h4.3v-5.69Z"/>
      <path class="d" d="M1482.25,815.49l2.15.21c-.03.27-.24.5-.56.56v5.51h4.1v-6.72l1.92.15c-.03.27-.12.47-.35.53v6.04h2.8v1.92h-2.8v1.12c0,5.89-.85,11.99-4.95,15.35-.29-.47-.82-1.06-1.21-1.47,3.98-3.3,4.6-8.63,4.6-13.91v-1.09h-4.1v8.05h-1.59v-8.05h-2.68v-1.92h2.68v-6.28Z"/>
      <path class="e" d="M3.6,235.07l1.94,2.05v12.43l-3.84,3.48v-16.22l1.89-1.74ZM16.44,251.23l2.41,2.57-1.43,1.31-15.04-1.32,3.83-3.46,10.23.9ZM17.42,233.67l1.43,1.5-2.41,2.22-10.23-.88-1.94-2.11,1.94-1.69,11.2.97ZM32.92,235l1.94,2.11-1.94,1.7-10.23-.88-2.4-2.6,1.48-1.28,11.15.96ZM32.91,252.62l3.84,4.19-14.99-1.32-1.48-1.53,2.4-2.19,10.23.85ZM35.58,237.91l1.89,2.05v16.27l-3.84-4.2v-12.43l1.94-1.69Z"/>
      <path class="e" d="M17.42,210.08l1.43,1.55-2.41,2.22-12.89-1.13-1.85-2.05,1.86-1.8,13.86,1.22ZM35.58,211.68l1.9,2.11-1.91,1.75-12.89-1.13-2.4-2.6,1.48-1.33,13.81,1.21Z"/>
      <path class="e" d="M1.71,167.54l3.84,4.09v13.15l-3.84,3.48v-20.72ZM17.42,190.35l-15.04-1.32,3.84-3.46,10.23.9,2.41,2.57-1.43,1.31ZM17.67,172.96l1.92-1.79,1.92,2.15v13.38l-1.92,1.66-1.92-2.05v-13.35ZM22.68,187.01l10.23.85,3.84,4.19-14.99-1.32-1.48-1.53,2.4-2.19ZM37.47,170.67v20.8l-3.84-4.2v-13.17l3.84-3.43Z"/>
      <path class="e" d="M1.71,129.43l3.84,4.09v12.43l-1.94,1.74-1.89-2.05v-16.22ZM16.44,147.59l2.41,2.61-1.43,1.33-11.2-.97-1.94-2.1,1.94-1.74,10.23.88ZM19.59,132.35l1.92,2.15v4.3l-1.92,1.69-1.92-2.05v-4.3l1.92-1.79ZM32.92,131.43l1.94,2.1-1.94,1.7-10.23-.89-2.4-2.6,1.48-1.28,11.15.97ZM32.92,149.01l1.94,2.16-1.94,1.69-11.15-.96-1.48-1.55,2.41-2.22,10.23.88ZM37.47,136.34l-1.89-2.05-1.94,1.69v12.43l1.94,2.1,1.89-1.74v-12.43Z"/>
      <path class="e" d="M3.6,92.65l1.94,2.05v12.43l-1.94,1.74-1.89-2.05v-12.43l1.89-1.74ZM17.42,91.25l1.43,1.5-2.41,2.22-10.23-.88-1.94-2.11,1.94-1.7,11.2.97ZM16.44,108.77l2.4,2.61-1.43,1.33-11.2-.97-1.94-2.11,1.94-1.75,10.23.89ZM32.92,92.59l1.94,2.11-1.94,1.7-10.23-.88-2.4-2.6,1.48-1.28,11.15.96ZM32.92,114.04l1.94-1.67-1.94-2.13-10.23-.89-2.4,2.19,1.48,1.53,11.15.97ZM37.47,109.94l-1.89,1.74-1.94-2.1v-12.43l1.94-1.69,1.89,2.05v12.43Z"/>
      <path class="d" d="M6.08,72.86c0,1.2-.88,1.84-2.03,1.84s-2.07-.65-2.07-1.84v-21.23c0-1.75.83-2.49,2.35-2.49,1.66,0,2.35.6,3.59,1.52,7.05,5.16,16.9,9.16,28.18,11.6,1.47.32,1.98,1.2,1.98,2.39v.14c-.05,1.29-.69,2.3-1.89,2.3-.18,0-.41-.05-.6-.09-10.5-2.35-21.14-7-29.52-12.76v18.6Z"/>
      <path class="d" d="M11.47,14.25c6.54.18,10.87.69,14.83,1.66,5.16,1.29,9.9,4.05,12.89,7.37.32.37.46.78.46,1.2,0,.55-.28,1.15-.83,1.56-.32.28-.74.41-1.1.41-.51,0-.97-.23-1.43-.69-2.63-2.9-6.45-5.02-10.59-6.22-3.32-.97-7.78-1.47-14.23-1.7v5.99c3.27,1.01,6.17,1.98,8.38,3.32.55.32.83.92.83,1.52,0,.41-.09.83-.32,1.2-.28.51-.78.78-1.38.78-.37,0-.74-.09-1.1-.32-3.09-1.75-7.05-3.18-12.53-4.37-1.57-.37-3.04-.6-4.05-.74-.97-.14-1.29-.83-1.29-1.66v-.37c.09-.97.55-1.57,1.47-1.57.14,0,.23,0,.37.05.87.14,1.8.32,3.22.6.92.18,2.16.51,2.9.74-.05-.83-.09-1.66-.09-2.62v-9.81c0-.88.69-1.43,1.75-1.43s1.84.55,1.84,1.43v3.68Z"/>
      <path class="d" d="M1.05,354.49c0-1.06.51-1.75,1.66-1.75,4.42-.05,9.72-.37,14.09-.97,6.68-.92,12.34-2.21,16.07-3.91.37-.18.74-.28,1.1-.28.55,0,1.1.28,1.47.83.28.41.41.88.41,1.24,0,.6-.28,1.15-.87,1.43-4.05,1.98-10.55,3.31-16.53,4.14-4.56.65-11.33,1.15-15.66,1.2-1.06-.05-1.7-.65-1.75-1.8v-.14ZM34.98,365.82c.6.28.87.78.87,1.38,0,.41-.14.92-.41,1.34-.32.55-.88.78-1.47.78-.37,0-.74-.09-1.15-.28-3.68-1.7-9.21-2.99-15.84-3.87-4.37-.6-9.76-.83-14.27-.92-1.15-.05-1.61-.83-1.61-1.98s.6-1.7,1.61-1.7h.09c4.33.05,11.1.51,15.75,1.1,5.99.78,12.34,2.26,16.44,4.15Z"/>
      <path class="d" d="M13.52,317.84c.97,0,1.43.6,1.66,1.34.05.23.09.51.09.74,0,.64-.28,1.15-1.06,1.33-3.91.6-8.47,1.52-11.93,2.67-.23.05-.46.09-.64.09-.69,0-1.15-.41-1.38-1.1-.09-.37-.18-.69-.18-1.01,0-.55.23-1.01.83-1.2,3.45-1.24,8.47-2.21,12.2-2.81.14-.05.28-.05.41-.05ZM36.27,323.14c.28.32.41.74.41,1.15,0,.6-.28,1.24-.87,1.66-.32.32-.69.46-1.06.46-.51,0-.97-.23-1.47-.74-3.73-4.15-8.1-7.69-14.64-9.67-6.35-1.89-11.7-1.98-15.93-2.12-1.11-.09-1.52-.78-1.52-1.57,0-.14,0-.28.05-.41.09-.92.51-1.7,1.84-1.7h.09c5.3.28,11.51.92,16.9,2.53,6.72,2.07,12.06,5.76,16.21,10.41ZM3.9,330.32c-.74,0-1.34-.55-1.52-1.2-.09-.28-.14-.51-.14-.74,0-.6.28-1.1.97-1.38,3.45-1.24,8.38-2.3,12.11-2.99.23-.05.41-.05.6-.05.88,0,1.34.46,1.57,1.29.09.28.14.55.14.78,0,.64-.28,1.24-1.1,1.34-3.82.6-8.61,1.7-12.02,2.85-.18.05-.41.09-.6.09Z"/>
      <path class="d" d="M4.82,289.72c0,.97-.6,1.47-1.66,1.47s-1.8-.51-1.8-1.47v-15.98c0-1.01.69-1.47,1.75-1.47s1.7.51,1.7,1.47v7.6h9.72v-8.7c0-1.01.74-1.47,1.8-1.47s1.66.51,1.66,1.47v8.7h11.74c2.21,0,2.95-.6,2.95-2.81,0-1.7-.14-3.82-.28-4.7-.05-.18-.05-.37-.05-.55,0-.92.46-1.52,1.66-1.61h.28c1.11,0,1.52.6,1.66,1.43.28,1.7.32,3.87.32,6.08,0,4.51-1.7,5.8-6.45,5.8h-11.83v5.71c0,.97-.6,1.47-1.66,1.47s-1.8-.46-1.8-1.47v-5.71H4.82v4.74Z"/>
      <path class="e" d="M1271.74,588.3l1.56-1.51,2.23,2.44-.91,10.4-2.16,1.98-1.7-1.97.99-11.34ZM1273.46,585.34l2.65-2.45.98-11.13-3.58-3.86-1.4,15.98,1.35,1.46ZM1287.55,604.27l2.08-1.92-1.72-1.98h-12.64l-2.13,1.98,1.77,1.92h12.64ZM1293.53,588.3l-1.3-1.51-2.65,2.45-.9,10.4,1.72,1.98,2.14-1.98.99-11.34ZM1292.39,585.34l1.52-1.46,1.4-15.98-4.16,3.86-1.02,11.13,2.26,2.45Z"/>
      <path class="e" d="M1330.88,604.27h-19.14l-1.77-1.92,2.13-1.98h15.29l3.48,3.9ZM1319.17,586.79l2.14-.21.16,3.44-8.37,9.42h-2.86s.26-2.71.26-2.71l8.69-9.93ZM1334.62,569.84l-2.08,1.98h-15.97l-3.59-3.9h19.87l1.77,1.92ZM1325.74,585.09l-3.45.42v-2.09l9.36-10.61h2.7l-.22,2.84-8.4,9.44Z"/>
      <path class="e" d="M1354.47,589.24l-.92,11.13-4.26,3.91,1.4-15.98,1.55-1.51,2.23,2.44ZM1351.07,583.88l1.34-15.3,3.52,3.9-.91,10.4-2.62,2.45-1.33-1.46ZM1368.77,584.14l1.82,1.95-2.19,1.95h-13.62l-1.69-1.95,2.09-1.95h13.6ZM1373.53,567.91l-4.16,3.9h-12.64l-3.54-3.9h20.34ZM1372.48,588.3l-1.4,15.98-3.47-3.91.92-11.13,2.65-2.45,1.3,1.51ZM1369.09,582.89l.91-10.4,4.22-3.9-1.35,15.29-1.52,1.46-2.26-2.45Z"/>
      <path class="e" d="M1395.23,602.34l-2.14,1.94-1.78-1.94,1.15-13.11,2.65-2.45,1.35,1.51-1.23,14.04ZM1396.85,583.88l-1.57,1.46-2.26-2.45,1.15-13.11,2.09-1.89,1.83,1.89-1.24,14.1Z"/>
      <path class="d" d="M1074.8,603.8c-.28.61-.8.89-1.4.89-.42,0-.94-.14-1.36-.42-.56-.33-.8-.89-.8-1.5,0-.37.09-.75.28-1.17,1.73-3.75,3.04-9.36,3.93-16.11.61-4.45.84-9.93.94-14.51.05-1.17.84-1.64,2.01-1.64s1.73.61,1.73,1.64v.09c-.05,4.4-.52,11.28-1.12,16.01-.8,6.09-2.29,12.55-4.21,16.71ZM1086.32,569.29c1.08,0,1.78.52,1.78,1.69.05,4.5.37,9.88.98,14.33.94,6.79,2.25,12.55,3.98,16.34.19.38.28.75.28,1.12,0,.56-.28,1.12-.84,1.5-.42.28-.89.42-1.26.42-.61,0-1.17-.28-1.45-.89-2.01-4.12-3.37-10.72-4.21-16.81-.66-4.63-1.17-11.52-1.22-15.92.05-1.08.66-1.73,1.83-1.78h.14Z"/>
      <path class="d" d="M1110.89,572.2c0-.75.56-1.36,1.22-1.54.28-.09.51-.14.75-.14.61,0,1.12.28,1.4.98,1.26,3.51,2.34,8.52,3.04,12.31.05.24.05.42.05.61,0,.89-.47,1.36-1.31,1.59-.28.09-.56.14-.8.14-.65,0-1.26-.28-1.36-1.12-.61-3.89-1.73-8.76-2.9-12.22-.05-.19-.09-.42-.09-.61ZM1118.2,605.11c-.33.28-.75.42-1.17.42-.61,0-1.26-.28-1.69-.89-.33-.33-.47-.7-.47-1.08,0-.51.23-.98.75-1.5,4.21-3.79,7.82-8.24,9.83-14.89,1.92-6.46,2.01-11.89,2.15-16.2.09-1.12.8-1.54,1.59-1.54.14,0,.28,0,.42.05.94.09,1.73.51,1.73,1.87v.09c-.28,5.38-.94,11.7-2.58,17.18-2.11,6.84-5.85,12.27-10.58,16.48ZM1123.58,581.98c0,.98-.61,1.45-1.36,1.69-.23.05-.51.09-.75.09-.65,0-1.17-.28-1.36-1.08-.61-3.98-1.54-8.61-2.72-12.13-.05-.23-.09-.47-.09-.65,0-.7.42-1.17,1.12-1.4.37-.09.7-.19,1.03-.19.56,0,1.03.23,1.22.84,1.26,3.51,2.25,8.62,2.86,12.41.05.14.05.28.05.42Z"/>
      <path class="d" d="M1152.18,573.13c-.98,0-1.5-.61-1.5-1.69s.51-1.83,1.5-1.83h16.25c1.03,0,1.5.7,1.5,1.78s-.51,1.73-1.5,1.73h-7.73v9.88h8.85c1.03,0,1.5.75,1.5,1.83s-.51,1.69-1.5,1.69h-8.85v11.94c0,2.25.61,3,2.86,3,1.73,0,3.88-.14,4.77-.28.19-.05.38-.05.56-.05.94,0,1.54.47,1.64,1.69v.28c0,1.12-.61,1.54-1.45,1.69-1.73.28-3.93.33-6.18.33-4.59,0-5.9-1.73-5.9-6.55v-12.03h-5.81c-.98,0-1.5-.61-1.5-1.69s.47-1.83,1.5-1.83h5.81v-9.88h-4.82Z"/>
      <path class="d" d="M1191.64,572.34c-1.22,0-1.87-.89-1.87-2.06s.66-2.11,1.87-2.11h21.58c1.78,0,2.53.84,2.53,2.39,0,1.69-.61,2.39-1.54,3.65-5.24,7.16-9.32,17.18-11.8,28.65-.33,1.5-1.22,2.01-2.43,2.01h-.14c-1.31-.05-2.34-.7-2.34-1.92,0-.19.05-.42.09-.61,2.39-10.67,7.12-21.49,12.97-30.01h-18.92Z"/>
      <path class="d" d="M1251.23,577.81c-.19,6.65-.7,11.05-1.69,15.08-1.31,5.24-4.12,10.07-7.49,13.11-.37.33-.8.47-1.22.47-.56,0-1.17-.28-1.59-.84-.28-.33-.42-.75-.42-1.12,0-.51.23-.98.7-1.45,2.95-2.67,5.1-6.56,6.32-10.77.98-3.37,1.5-7.91,1.73-14.47h-6.09c-1.03,3.32-2.01,6.27-3.37,8.52-.33.56-.94.84-1.54.84-.42,0-.84-.09-1.22-.33-.52-.28-.8-.8-.8-1.4,0-.37.09-.75.33-1.12,1.78-3.14,3.23-7.16,4.45-12.74.37-1.59.61-3.09.75-4.12.14-.98.84-1.31,1.69-1.31h.37c.98.09,1.59.56,1.59,1.5,0,.14,0,.23-.05.37-.14.89-.33,1.83-.61,3.28-.19.94-.52,2.2-.75,2.95.84-.05,1.69-.09,2.67-.09h9.97c.89,0,1.45.7,1.45,1.78s-.56,1.87-1.45,1.87h-3.74Z"/>
      <path class="d" d="M1420.98,573.04c-1.31,0-1.69.33-1.69,1.73v9.36c0,1.08-.89,1.59-1.87,1.59s-1.87-.51-1.87-1.59v-10.39c0-3,1.26-4.4,3.98-4.4h10.53c3.28,0,4.49,1.4,4.45,4.96-.09,6.74-.94,13.16-2.62,18.21-1.73,5.15-5.2,10.11-9.46,13.02-.37.24-.75.38-1.12.38-.61,0-1.22-.28-1.5-.84-.28-.47-.42-.89-.42-1.26,0-.61.28-1.08.84-1.5,4.26-3.14,6.69-6.74,8.19-11.1,1.55-4.45,2.25-10.49,2.29-16.43,0-1.45-.37-1.73-1.59-1.73h-8.15Z"/>
      <path class="d" d="M1459.41,589.24c0,1.03-.84,1.54-1.87,1.54s-1.87-.47-1.87-1.54v-20.04c0-1.08.89-1.54,1.87-1.54s1.87.51,1.87,1.54v20.04ZM1472.24,583.85c0,7.77-.8,11.61-2.81,15.12-1.83,3.23-5.01,5.52-8.24,7.12-.33.14-.65.24-.98.24-.7,0-1.36-.38-1.78-1.17-.14-.33-.23-.61-.23-.94,0-.7.47-1.26,1.12-1.59,2.62-1.26,5.29-3,6.88-5.71,1.64-2.81,2.29-5.95,2.29-13.02v-14.7c0-1.08.89-1.54,1.87-1.54s1.87.47,1.87,1.54v14.65Z"/>
      <path class="d" d="M1507.07,587.04c2.39,3.28,4.59,6.69,6.18,9.74.19.38.28.8.28,1.12,0,.61-.28,1.12-.8,1.45-.42.28-.89.42-1.26.42-.61,0-1.12-.28-1.4-.84-1.36-2.67-3-5.29-4.73-7.82-2.62,5.62-6.04,10.3-9.79,13.86-.37.37-.89.56-1.36.56-.51,0-1.03-.23-1.45-.65-.37-.38-.51-.84-.51-1.26,0-.56.23-1.12.7-1.55,3.89-3.56,7.49-8.71,9.88-14.42-2.67-3.56-5.53-6.84-8.1-9.74-.37-.42-.56-.84-.56-1.26,0-.52.24-.98.66-1.36.37-.33.84-.51,1.31-.51s.94.19,1.36.61c1.97,2.11,4.4,4.92,6.84,8.05,1.69-5.29,2.72-10.86,3.23-14.65.14-1.08.84-1.45,1.59-1.45.19,0,.38,0,.56.05.94.14,1.69.65,1.69,1.69v.28c-.66,5.01-2.29,12.03-4.26,17.51l-.05.19Z"/>
      <path class="d" d="M253.94,543.6h-115.5l-70.99-70.99v-188.56h78.06v181.49h108.43c9.75,0,17.69-7.93,17.69-17.69v-163.8h78.06v163.8c0,52.79-42.95,95.75-95.74,95.75ZM142.58,533.6h111.36c47.28,0,85.74-38.46,85.74-85.75v-153.8h-58.06v153.8c0,15.27-12.42,27.69-27.69,27.69h-118.43v-181.49h-58.06v174.42l65.13,65.13Z"/>
      <path class="e" d="M856.48,543.6h-398.7c-52.79,0-95.74-42.95-95.74-95.75v-2.07l70.99-70.99h416.39v-12.69h-416.39l-78.06-78.06h504.45v68.06h68.06v29.76l-70.99,70.99h-415.67c2.16,7.33,8.95,12.69,16.97,12.69h476.76l-78.06,78.06ZM372.06,449.9c1.09,46.34,39.12,83.7,85.72,83.7h394.56l58.06-58.06h-452.62c-15.27,0-27.69-12.42-27.69-27.69v-5h422.25l65.13-65.13v-15.62h-58.06v22.69h-422.25l-65.1,65.1ZM437.16,352.11h412.25v-58.06h-470.3l58.06,58.06Z"/>
      <path class="d" d="M1143.98,550.67v-158.8l-60.99,60.99h-47.44c-9.75,0-17.69,7.93-17.69,17.69v73.06h-78.06v-73.06c0-34.18,18.27-65.77,47.8-82.88h-47.8v-7.86c0-52.8,42.95-95.75,95.75-95.75h115.5l70.99,70.99v117.57l-78.06,78.06ZM949.81,533.6h58.06v-63.06c0-15.27,12.42-27.69,27.69-27.69h43.3l58.06-58.06h-101.36c-5.96,0-11.9.62-17.69,1.83v1.03h-4.36c-6.78,1.79-13.33,4.43-19.47,7.85-27.28,15.13-44.22,43.88-44.22,75.03v63.06ZM1153.98,381.87v144.66l58.06-58.06v-109.29l-65.13-65.13h-111.36c-46.56,0-84.58,37.31-85.72,83.61h58.11c1.1-14.27,13.06-25.55,27.61-25.55h118.43v29.76ZM1035.55,362.11c-8.58,0-15.75,6.14-17.35,14.26,5.7-1.04,11.52-1.57,17.35-1.57h108.43v-12.69h-108.43Z"/>
      <path class="d" d="M1516.62,543.6h-282.23v-78.06h102.09v-103.43h-102.09v-78.06h109.16l60.99,60.99v-60.99h112.09v78.06h-102.09v103.43h102.09v78.06ZM1244.39,533.6h262.23v-58.06h-102.09v-116.36l-65.13-65.13h-95.02v58.06h102.09v123.43h-102.09v58.06ZM1414.53,352.11h92.09v-58.06h-92.09v58.06Z"/>
      <path class="d" d="M269.03,266.59h-115.46c-52.79,0-95.73-42.94-95.73-95.73v-95.73h60.96L50.77,7.07h193.52c52.78,0,95.73,42.94,95.73,95.73v92.8l-70.99,70.99ZM67.83,85.14v85.73c0,47.27,38.46,85.73,85.73,85.73h111.32l65.13-65.14v-88.66c0-47.27-38.46-85.73-85.73-85.73H74.9l58.03,58.06h111.39c15.27,0,27.7,12.43,27.7,27.7v95.73h-118.43c-15.27,0-27.7-12.43-27.7-27.7v-85.73h-58.06ZM135.9,85.14v85.73c0,9.76,7.94,17.7,17.7,17.7h108.43v-85.73c0-9.76-7.94-17.7-17.7-17.7h-108.43Z"/>
      <path class="d" d="M634.62,266.59h-282.21v-78.05h102.08v-103.42h-102.08V7.07h109.15l60.98,60.98V7.07h112.08v78.05h-102.08v103.42h102.08v78.05ZM362.41,256.59h262.21v-58.05h-102.08v-116.35l-65.12-65.12h-95.01v58.05h102.08v123.42h-102.08v58.05ZM532.54,75.12h92.08V17.07h-92.08v58.05Z"/>
      <path class="d" d="M929.19,266.59h-186.47c-52.79,0-95.74-42.95-95.74-95.74v-7.86h47.79c-29.53-17.11-47.79-48.7-47.79-82.87v-5h68.05V7.07h118.42c52.79,0,95.74,42.95,95.74,95.74v5h-106.35l68.05,68.05h-148.17c-5.83,0-11.65-.53-17.35-1.57,1.6,8.12,8.77,14.25,17.35,14.25h186.47v78.05ZM657.01,173c1.14,46.29,39.15,83.6,85.71,83.6h176.47v-58.05h-176.47c-14.55,0-26.51-11.28-27.6-25.54h-58.11ZM725.04,164.03c5.79,1.21,11.72,1.83,17.68,1.83h124.03l-58.05-58.05h-65.98c-13.56,0-24.87-9.8-27.23-22.68h-58.36c1.71,29.2,18.26,55.71,44.07,70.02,6.15,3.42,12.7,6.06,19.47,7.85h4.36v1.03ZM725.76,85.12c2.16,7.32,8.95,12.68,16.96,12.68h70.12l6.52,6.52,18.62-18.61c-1.46-.39-2.98-.59-4.53-.59h-107.7ZM840.03,97.81h79.02c-2.6-44.96-40-80.74-85.59-80.74h-108.42v58.05h108.42c5.73,0,11.24,1.75,15.93,5.06l4.85,3.42-14.21,14.2Z"/>
      <path class="d" d="M1155.72,266.59h-118.42c-25.57,0-49.61-9.96-67.69-28.04-18.08-18.08-28.04-42.12-28.04-67.69V0l68.05,68.05V7.07h221.22l-78.05,78.05h-133.17v85.73c0,9.75,7.93,17.68,17.68,17.68h107.7c-2.16-7.32-8.95-12.68-16.96-12.68h-24.76l-78.05-78.05h102.81c52.79,0,95.74,42.95,95.74,95.74v5h-68.05v68.05ZM951.56,24.14v146.71c0,22.9,8.92,44.43,25.11,60.62,16.2,16.19,37.72,25.11,60.62,25.11h108.42v-58.05h-108.42c-15.26,0-27.68-12.42-27.68-27.68v-88.66l-58.05-58.05ZM1155.27,188.54h58.36c-2.6-44.96-40-80.74-85.59-80.74h-78.66l58.05,58.05h20.61c13.56,0,24.87,9.8,27.23,22.68ZM1019.62,75.12h129.03l58.05-58.05h-187.08v58.05Z"/>
      <path class="e" d="M1447.37,266.59h-143.17v-68.05h-68.05v-120.49l70.98-70.98h143.17v68.05h68.05v120.49l-70.98,70.98ZM1314.19,256.59h129.03l65.12-65.12v-106.35h-58.05v113.42h-136.1v58.05ZM1314.19,188.54h126.1v-103.42h-126.1v103.42ZM1246.14,188.54h58.05v-113.42h136.1V17.07h-129.03l-65.12,65.12v106.35Z"/>
    </g>
  </g>
</svg>