<?xml version="1.0" encoding="UTF-8"?>
<svg id="b" data-name="Camada 2" xmlns="http://www.w3.org/2000/svg" viewBox="0 0 1529.39 862.73">
  <defs>
    <style>
      .f {
        fill: #5900ff;
      }

      .g {
        fill: #fd2c78;
      }
    </style>
  </defs>
  <g id="c" data-name="Camada 1">
    <g>
      <g>
        <g>
          <path class="g" d="M3.78,246.39l2.04,2.15v13.05l-4.03,3.66v-17.03l1.99-1.83ZM17.26,263.36l2.53,2.7-1.5,1.38-15.79-1.39,4.03-3.64,10.74.94ZM18.29,244.92l1.5,1.57-2.53,2.33-10.74-.93-2.04-2.21,2.04-1.78,11.76,1.01ZM34.57,246.32l2.04,2.21-2.04,1.78-10.74-.93-2.53-2.73,1.56-1.34,11.71,1.01ZM34.56,264.82l4.03,4.4-15.74-1.38-1.56-1.6,2.52-2.3,10.75.89ZM37.36,249.38l1.99,2.15v17.08l-4.03-4.41v-13.05l2.04-1.77Z"/>
          <path class="g" d="M18.29,220.15l1.5,1.62-2.53,2.33-13.54-1.19-1.95-2.16,1.95-1.89,14.56,1.28ZM37.36,221.82l2,2.21-2,1.84-13.54-1.19-2.53-2.73,1.56-1.4,14.51,1.27Z"/>
          <path class="g" d="M1.8,175.48l4.03,4.3v13.8l-4.03,3.65v-21.76ZM18.29,199.43l-15.8-1.39,4.03-3.64,10.74.94,2.53,2.7-1.5,1.38ZM18.56,181.17l2.01-1.88,2.01,2.25v14.05l-2.01,1.74-2.01-2.15v-14.02ZM23.82,195.93l10.75.89,4.03,4.4-15.74-1.38-1.56-1.61,2.52-2.3ZM39.35,178.76v21.84l-4.03-4.41v-13.83l4.03-3.6Z"/>
          <path class="g" d="M1.8,135.46l4.03,4.3v13.05l-2.04,1.83-1.99-2.15v-17.03ZM17.27,154.53l2.53,2.74-1.5,1.4-11.77-1.02-2.04-2.2,2.04-1.83,10.74.93ZM20.57,138.52l2.01,2.26v4.51l-2.01,1.77-2.01-2.15v-4.51l2.01-1.88ZM34.56,137.56l2.04,2.2-2.04,1.79-10.74-.94-2.53-2.73,1.56-1.34,11.71,1.02ZM34.57,156.02l2.04,2.27-2.04,1.78-11.71-1.01-1.56-1.63,2.53-2.33,10.74.93ZM39.35,142.71l-1.99-2.15-2.04,1.77v13.05l2.04,2.2,1.99-1.83v-13.05Z"/>
          <path class="g" d="M3.78,96.84l2.04,2.15v13.05l-2.04,1.83-1.99-2.15v-13.05l1.99-1.83ZM18.29,95.37l1.5,1.57-2.53,2.33-10.74-.92-2.04-2.21,2.04-1.78,11.76,1.01ZM17.27,113.76l2.53,2.74-1.5,1.4-11.76-1.02-2.04-2.21,2.04-1.83,10.74.93ZM34.57,96.77l2.04,2.21-2.04,1.78-10.74-.93-2.53-2.73,1.56-1.34,11.71,1.01ZM34.56,119.29l2.04-1.76-2.04-2.24-10.74-.94-2.52,2.3,1.56,1.61,11.71,1.02ZM39.35,115l-1.99,1.83-2.04-2.2v-13.05l2.04-1.77,1.99,2.15v13.05Z"/>
        </g>
        <g>
          <path class="f" d="M6.38,76.05c0,1.25-.92,1.93-2.13,1.93s-2.18-.68-2.18-1.93v-22.29c0-1.84.87-2.61,2.47-2.61,1.74,0,2.47.63,3.77,1.6,7.4,5.41,17.75,9.62,29.59,12.18,1.55.34,2.08,1.26,2.08,2.52v.14c-.05,1.36-.73,2.42-1.98,2.42-.19,0-.44-.05-.63-.09-11.02-2.47-22.2-7.35-31-13.4v19.54Z"/>
          <path class="f" d="M12.04,14.5c6.87.2,11.41.73,15.57,1.74,5.42,1.35,10.4,4.25,13.54,7.73.34.39.48.82.48,1.26,0,.58-.29,1.21-.87,1.64-.34.29-.77.44-1.16.44-.53,0-1.02-.24-1.5-.73-2.76-3.04-6.77-5.27-11.12-6.53-3.48-1.02-8.17-1.55-14.94-1.79v6.28c3.43,1.07,6.48,2.08,8.8,3.48.58.34.87.96.87,1.59,0,.44-.1.87-.34,1.26-.29.53-.82.82-1.45.82-.39,0-.77-.1-1.16-.34-3.24-1.84-7.4-3.33-13.15-4.59-1.64-.39-3.19-.63-4.26-.78-1.02-.14-1.35-.87-1.35-1.74v-.38c.1-1.02.58-1.65,1.55-1.65.15,0,.24,0,.39.05.92.15,1.89.34,3.38.63.97.19,2.27.53,3.05.77-.05-.87-.1-1.74-.1-2.75v-10.3c0-.92.73-1.5,1.84-1.5s1.93.58,1.93,1.5v3.87Z"/>
        </g>
        <g>
          <path class="f" d="M1.1,371.8c0-1.11.53-1.84,1.74-1.84,4.64-.05,10.2-.39,14.8-1.02,7.01-.96,12.96-2.32,16.88-4.11.39-.19.77-.29,1.16-.29.58,0,1.16.29,1.55.87.29.44.44.92.44,1.31,0,.63-.29,1.21-.92,1.5-4.26,2.08-11.07,3.48-17.36,4.35-4.79.68-11.89,1.21-16.44,1.26-1.11-.05-1.79-.68-1.84-1.89v-.14ZM36.74,383.69c.63.29.92.82.92,1.45,0,.44-.15.97-.44,1.4-.34.58-.92.82-1.55.82-.39,0-.77-.1-1.21-.29-3.87-1.79-9.67-3.15-16.63-4.06-4.59-.63-10.25-.87-14.99-.96-1.21-.05-1.69-.87-1.69-2.08s.63-1.79,1.69-1.79h.1c4.55.05,11.65.53,16.54,1.16,6.29.82,12.96,2.37,17.26,4.35Z"/>
          <path class="f" d="M14.2,333.31c1.02,0,1.5.63,1.74,1.4.05.24.1.53.1.77,0,.68-.29,1.21-1.11,1.4-4.11.63-8.9,1.6-12.52,2.81-.24.05-.48.09-.68.09-.73,0-1.21-.43-1.45-1.16-.1-.38-.19-.72-.19-1.06,0-.58.24-1.06.87-1.26,3.63-1.3,8.9-2.32,12.81-2.95.15-.05.29-.05.44-.05ZM38.09,338.88c.29.34.44.77.44,1.21,0,.63-.29,1.3-.92,1.74-.34.34-.73.48-1.11.48-.53,0-1.02-.24-1.55-.77-3.92-4.35-8.51-8.08-15.38-10.16-6.67-1.98-12.28-2.08-16.73-2.22-1.16-.1-1.6-.82-1.6-1.65,0-.14,0-.29.05-.43.1-.97.53-1.79,1.93-1.79h.1c5.56.29,12.09.96,17.75,2.66,7.06,2.17,12.67,6.04,17.02,10.93ZM4.1,346.42c-.77,0-1.4-.58-1.6-1.26-.1-.29-.15-.53-.15-.77,0-.63.29-1.16,1.02-1.45,3.63-1.31,8.8-2.42,12.72-3.15.24-.05.44-.05.63-.05.92,0,1.4.48,1.64,1.35.1.29.15.58.15.82,0,.68-.29,1.31-1.16,1.4-4.01.63-9.04,1.79-12.62,3-.19.05-.44.1-.63.1Z"/>
          <path class="f" d="M5.06,303.78c0,1.02-.63,1.55-1.74,1.55s-1.89-.53-1.89-1.55v-16.78c0-1.06.73-1.55,1.84-1.55s1.79.53,1.79,1.55v7.98h10.2v-9.14c0-1.06.77-1.55,1.89-1.55s1.74.53,1.74,1.55v9.14h12.33c2.32,0,3.09-.63,3.09-2.95,0-1.79-.15-4.01-.29-4.93-.05-.2-.05-.39-.05-.58,0-.97.48-1.6,1.74-1.69h.29c1.16,0,1.6.63,1.74,1.5.29,1.79.34,4.06.34,6.38,0,4.74-1.79,6.09-6.77,6.09h-12.43v6c0,1.01-.63,1.55-1.74,1.55s-1.89-.48-1.89-1.55v-6H5.06v4.98Z"/>
        </g>
      </g>
      <g>
        <path class="f" d="M1247.78,687.4v-46.23h1.65v46.23h-1.65ZM1251.07,687.4v-46.23h3.3v46.23h-3.3ZM1259.31,687.4v-46.23h1.65v46.23h-1.65Z"/>
        <path class="f" d="M1276.89,686.43v-45.26h3.3v45.26h-3.3ZM1285.13,686.43v-45.26h1.65v45.26h-1.65ZM1291.72,686.43v-45.26h1.65v45.26h-1.65Z"/>
        <path class="f" d="M1306.01,687.4v-46.23h1.65v46.23h-1.65ZM1312.6,687.4v-46.23h3.3v46.23h-3.3ZM1317.54,687.4v-46.23h1.65v46.23h-1.65Z"/>
        <path class="f" d="M1335.12,687.4v-46.23h3.3v46.23h-3.3ZM1340.07,687.4v-46.23h1.65v46.23h-1.65ZM1346.66,687.4v-46.23h1.65v46.23h-1.65Z"/>
        <path class="f" d="M1364.24,687.2v-46.03h1.65v46.03h-1.65ZM1370.83,687.2v-46.03h4.94v46.03h-4.94ZM1377.42,687.2v-46.03h3.3v46.03h-3.3Z"/>
        <path class="f" d="M1393.35,687.4v-46.23h3.3v46.23h-3.3ZM1398.3,687.4v-46.23h3.3v46.23h-3.3ZM1404.89,687.4v-46.23h3.3v46.23h-3.3Z"/>
        <path class="f" d="M1422.47,687.4v-46.23h3.3v46.23h-3.3ZM1427.42,687.4v-46.23h4.94v46.23h-4.94ZM1434.01,687.4v-46.23h4.94v46.23h-4.94Z"/>
        <path class="f" d="M1451.59,687.4v-46.23h4.94v46.23h-4.94ZM1458.18,687.4v-46.23h3.3v46.23h-3.3ZM1466.42,687.4v-46.23h1.65v46.23h-1.65Z"/>
        <path class="g" d="M1480.7,687.4v-46.23h1.65v46.23h-1.65ZM1484,687.4v-46.23h1.65v46.23h-1.65ZM1490.59,687.4v-46.23h3.29v46.23h-3.29Z"/>
        <path class="f" d="M1509.82,687.4v-46.23h3.3v46.23h-3.3ZM1518.06,687.4v-46.23h1.65v46.23h-1.65ZM1524.65,687.4v-46.23h1.65v46.23h-1.65Z"/>
        <path class="f" d="M1365.69,718.63c1.4.71,3.65,2.02,4.69,2.85l-.86,1.69c-1.01-.83-3.33-2.26-4.66-2.94l.83-1.6ZM1366.46,733.07c4.84-3.06,7.99-8.7,9.75-16.96.36.3,1.04.68,1.46.89-1.87,8.2-5.2,14.29-9.72,17.32,0,.27-.24.56-.36.68l-1.13-1.93ZM1367.68,711.41c1.49.8,3.48,2.14,4.4,2.97l-.86,1.75c-1.04-.98-2.97-2.29-4.43-3.09l.89-1.63Z"/>
        <path class="f" d="M1392.01,717.44c.03-2.23.06-4.69.06-7.4l2.26.12c-.03.27-.24.42-.53.48,0,2.41-.03,4.75-.12,6.8h4.93v1.93h-4.99c-.33,7.84-1.49,12.84-5.32,16.37-.33-.36-1.01-.92-1.55-1.28,3.68-3.24,4.84-7.81,5.2-15.09h-5.82v-1.93h5.88Z"/>
        <path class="f" d="M1407.4,734.2v-1.6l2.05-1.99c4.93-4.7,7.16-7.19,7.19-10.1,0-1.96-.95-3.77-3.83-3.77-1.75,0-3.21.89-4.1,1.63l-.83-1.84c1.34-1.13,3.24-1.96,5.47-1.96,4.16,0,5.91,2.85,5.91,5.62,0,3.56-2.58,6.45-6.66,10.37l-1.54,1.43v.06h8.67v2.17h-12.33Z"/>
        <path class="f" d="M1428.52,729.95c1.16-1.81,2.05-4.66,2.53-7.73l1.34.71c-.53,3.21-1.46,6.42-2.67,8.44l-1.19-1.43ZM1434.17,710.49l2.11.15c-.03.3-.21.48-.51.5v5.29h4.81v1.96h-4.81v14.5c0,2.32-.62,2.55-3.63,2.55-.06-.51-.24-1.25-.45-1.87.39.03.77.03,1.13.03.48,0,.86,0,1.01-.03.27,0,.33-.18.33-.68v-14.5h-4.69v-1.96h4.69v-5.94ZM1440.2,731.35c-.53-2.29-1.84-6.12-2.79-8.41l1.31-.83c1.01,2.23,2.29,5.76,2.85,7.93l-1.37,1.31Z"/>
        <path class="f" d="M1462.21,719.25v1.87h-4.96c-.24,5.38-1.28,11.56-4.75,14.71-.27-.42-.92-1.1-1.34-1.43,3.21-2.67,4.31-8.32,4.49-13.28h-5.44v-1.87h12ZM1451.49,711.11h9.57v1.87h-9.57v-1.87Z"/>
        <path class="f" d="M1476.41,710.28l2.23.18c-.03.24-.21.45-.51.51v5.05h3.24l.33-.12,1.07.33c0,.15-.09.33-.15.42-.51,9.27-2.08,15.54-7.04,19.19-.33-.45-.95-1.07-1.43-1.46,4.66-3.18,6.42-9,6.77-16.55h-7.31v6.95h-1.55v-8.77h4.34v-5.73Z"/>
        <path class="f" d="M1492.16,729.3c0-2.44,1.46-4.16,3.83-5.17l-.03-.09c-2.14-1.01-3.06-2.67-3.06-4.34,0-3.06,2.59-5.14,5.97-5.14,3.74,0,5.62,2.35,5.62,4.75,0,1.63-.8,3.39-3.18,4.52v.09c2.41.95,3.89,2.64,3.89,4.99,0,3.36-2.88,5.62-6.57,5.62-4.04,0-6.48-2.41-6.48-5.23ZM1502.55,729.18c0-2.35-1.63-3.48-4.25-4.22-2.26.65-3.48,2.14-3.48,3.98-.09,1.96,1.4,3.68,3.86,3.68s3.86-1.46,3.86-3.45ZM1495.36,719.52c0,1.93,1.46,2.97,3.68,3.56,1.66-.56,2.94-1.75,2.94-3.51,0-1.55-.92-3.15-3.27-3.15-2.17,0-3.36,1.43-3.36,3.09Z"/>
        <path class="f" d="M1514.59,719.14h9.83l.24-.24,1.22.89c-.03.15-.24.27-.33.33-1.01,7.9-3.24,12.87-8.47,15.48-.21-.45-.77-1.19-1.1-1.55,4.58-2.23,6.92-6.63,7.73-13.04h-9.12v-1.87ZM1515.77,711.35h8.71v1.87h-8.71v-1.87Z"/>
        <path class="f" d="M1365.18,774.54h12v1.99h-12v-1.99ZM1366.34,757.93h9.57v1.99h-9.57v-1.99Z"/>
        <path class="f" d="M1388.62,754.3l2.17.21c-.03.27-.24.51-.56.56v5.56h4.13v-6.77l1.93.15c-.03.27-.12.48-.36.53v6.09h2.82v1.93h-2.82v1.13c0,5.94-.86,12.09-4.99,15.48-.3-.48-.83-1.07-1.22-1.49,4.01-3.33,4.63-8.7,4.63-14.02v-1.1h-4.13v8.11h-1.6v-8.11h-2.7v-1.93h2.7v-6.33Z"/>
        <path class="f" d="M1408.2,756.74h9.63l.27-.24,1.31.86c-.06.15-.24.3-.36.39-.36,11.5-2.2,16.97-7.96,21.36-.3-.45-.89-1.1-1.34-1.48,5.11-3.8,7.31-8.77,7.61-18.96h-7.52v8.14h-1.63v-10.07Z"/>
        <path class="f" d="M1428.46,775.67c.53,0,1.1-.03,1.69-.06.92-5.85,2.32-15.06,3.15-21.07l2.44.56c-.03.27-.36.48-.71.51-.86,5.62-2.41,14.65-3.27,19.88,2.23-.15,4.81-.36,6.89-.59-.71-2.67-1.69-5.62-2.53-7.75l1.37-.68c1.43,3.36,3.12,8.5,3.63,11.59l-1.66.89c-.12-.74-.27-1.58-.48-2.44-2.5.33-7.01.77-9.6.98-.09.24-.24.42-.51.48l-.42-2.29Z"/>
        <path class="f" d="M1457.78,777.89v-5.26h-8.97v-1.72l8.62-12.33h2.82v12h2.7v2.05h-2.7v5.26h-2.47ZM1457.78,770.58v-6.45c0-1.01.03-2.02.09-3.03h-.09c-.59,1.13-1.07,1.96-1.6,2.85l-4.72,6.57v.06h6.33Z"/>
        <path class="f" d="M1498.31,764.4c.15-2.02.18-4.28.21-6.71-1.72.62-3.68,1.28-5.29,1.69-.18-.48-.48-1.1-.71-1.52,3.18-.77,7.64-2.53,9.69-3.95l1.37,1.66c-.09.09-.24.15-.39.12-.77.45-1.93.98-3,1.4-.03,2.64-.09,5.08-.24,7.31h4.75v1.96h-4.9c-.45,5.44-1.63,10.07-4.55,13.1-.33-.39-.95-1.04-1.4-1.4,2.65-2.56,3.86-6.51,4.31-11.71h-5.59v-1.96h5.73Z"/>
        <path class="f" d="M1514.64,759.92h8.35l.3-.21,1.34,1.01c-.06.12-.36.24-.48.3-.92,2.14-2.14,4.13-3.51,6.18v12.24h-1.6v-10.13c-1.43,1.87-3.09,3.57-4.69,4.84-.27-.42-.8-.92-1.25-1.31,3.6-2.7,6.95-7.04,8.94-11.11h-7.4v-1.81ZM1517.65,753.47c1.48.89,3.95,2.73,5.23,3.92l-1.25,1.43c-1.25-1.25-3.56-3-5.14-3.95l1.16-1.4ZM1522.31,767.43c1.43,1.28,2.97,2.94,4.07,4.25l-1.01,1.6c-1.07-1.46-2.52-3.12-3.92-4.52l.86-1.34Z"/>
        <path class="f" d="M1386.18,799.2h11.8c.12-.12.21-.15.27-.18.27.3.51.65,1.22,1.31-.03.15-.33.3-.45.33-1.46,4.22-3.62,8.29-5.73,11.5,1.1,2.05,2.02,3.89,2.56,5.47l-1.52,1.46c-1.07-3.36-4.01-8.73-6.18-11.82l1.28-1.13c.86,1.16,1.96,2.88,2.85,4.46,1.84-2.7,3.54-6.06,4.64-9.48h-10.73v-1.9Z"/>
        <path class="f" d="M1411.11,804.43c-.62,2.35-1.37,4.49-2.32,6.18-.3-.51-.89-.98-1.34-1.43,1.81-3,2.88-8.29,3.51-13.55l2.29.45c-.03.24-.3.39-.62.42-.27,1.99-.62,4.01-1.07,5.97h8.47v1.96h-3.68c-.42,6.83-1.69,13.43-4.9,16.76-.3-.39-1.01-.98-1.46-1.34,3.15-3.12,4.37-9.21,4.69-15.42h-3.57Z"/>
        <path class="f" d="M1451.43,807.16c-.15-2.11-.74-5.7-1.37-8.11l1.43-.48c.62,2.38,1.28,5.91,1.49,8.08l-1.55.51ZM1462.75,798.7c-.06.21-.24.33-.45.39-1.28,10.1-3.09,17.03-8.83,21.75-.27-.42-.92-1.07-1.34-1.4,5.56-4.37,7.52-10.96,8.68-21.27l1.93.53ZM1455.68,806.27c-.15-2.41-.65-6.06-1.13-8.53l1.46-.45c.48,2.53.98,6.18,1.16,8.47l-1.49.51Z"/>
        <path class="f" d="M1494.29,797.42l2.41.21c-.03.3-.33.51-.68.56v12.92h-1.72v-13.7ZM1501.54,796.29l2.47.18c-.03.27-.27.48-.71.56v9.33c0,6.74-1.28,12-6.6,14.86-.24-.48-.83-1.07-1.31-1.49,4.84-2.53,6.15-7.13,6.15-13.4v-10.04Z"/>
        <path class="f" d="M1514.53,804.13c1.4.71,3.65,2.02,4.69,2.85l-.86,1.69c-1.01-.83-3.33-2.26-4.66-2.94l.83-1.6ZM1515.3,818.57c4.84-3.06,7.99-8.7,9.75-16.96.36.3,1.04.68,1.46.89-1.87,8.2-5.2,14.29-9.72,17.32,0,.27-.24.56-.36.68l-1.13-1.93ZM1516.52,796.91c1.49.8,3.48,2.14,4.4,2.97l-.86,1.75c-1.04-.98-2.97-2.29-4.43-3.09l.89-1.63Z"/>
        <path class="f" d="M1398.37,846.15v1.87h-4.96c-.24,5.38-1.28,11.56-4.75,14.71-.27-.42-.92-1.1-1.34-1.43,3.21-2.67,4.31-8.32,4.49-13.28h-5.44v-1.87h12ZM1387.64,838.01h9.57v1.87h-9.57v-1.87Z"/>
        <path class="f" d="M1455.26,837.18l2.23.18c-.03.24-.21.45-.51.51v5.05h3.24l.33-.12,1.07.33c0,.15-.09.33-.15.42-.51,9.27-2.08,15.54-7.04,19.19-.33-.45-.95-1.07-1.43-1.46,4.66-3.18,6.42-9,6.77-16.55h-7.31v6.95h-1.55v-8.77h4.34v-5.73Z"/>
        <path class="f" d="M1494.77,837.51l2.17.21c-.03.27-.24.51-.56.56v5.56h4.13v-6.77l1.93.15c-.03.27-.12.48-.36.53v6.09h2.82v1.93h-2.82v1.13c0,5.94-.86,12.09-4.99,15.48-.3-.48-.83-1.07-1.22-1.49,4.01-3.33,4.63-8.7,4.63-14.02v-1.1h-4.13v8.11h-1.6v-8.11h-2.7v-1.93h2.7v-6.33Z"/>
        <g>
          <path class="g" d="M1282.55,608.48l1.57-1.52,2.25,2.46-.92,10.48-2.18,1.99-1.71-1.99,1-11.43ZM1284.28,605.49l2.67-2.46.99-11.22-3.61-3.89-1.42,16.11,1.36,1.47ZM1298.49,624.58l2.1-1.94-1.73-1.99h-12.74l-2.15,1.99,1.78,1.94h12.74ZM1304.52,608.48l-1.31-1.52-2.67,2.46-.91,10.48,1.74,2,2.16-1.99.99-11.43ZM1303.37,605.49l1.53-1.47,1.42-16.11-4.2,3.9-1.03,11.22,2.28,2.47Z"/>
          <path class="g" d="M1342.17,624.58h-19.3l-1.78-1.94,2.15-1.99h15.42l3.51,3.93ZM1330.37,606.96l2.15-.21.16,3.46-8.44,9.49h-2.89s.26-2.73.26-2.73l8.76-10.01ZM1345.94,589.87l-2.1,1.99h-16.1l-3.62-3.93h20.03l1.78,1.94ZM1336.99,605.24l-3.47.42v-2.11l9.44-10.7h2.73l-.22,2.87-8.47,9.52Z"/>
          <path class="g" d="M1365.95,609.42l-.93,11.22-4.29,3.95,1.41-16.11,1.57-1.52,2.25,2.46ZM1362.53,604.02l1.35-15.42,3.55,3.93-.92,10.49-2.64,2.47-1.34-1.47ZM1380.37,604.29l1.84,1.97-2.2,1.97h-13.73l-1.71-1.97,2.1-1.97h13.71ZM1385.16,587.93l-4.2,3.93h-12.74l-3.57-3.93h20.5ZM1384.11,608.48l-1.41,16.11-3.5-3.94.93-11.22,2.67-2.46,1.31,1.52ZM1380.69,603.02l.92-10.48,4.25-3.93-1.36,15.42-1.53,1.47-2.27-2.47Z"/>
          <path class="g" d="M1407.04,622.64l-2.16,1.95-1.79-1.95,1.16-13.21,2.67-2.46,1.36,1.52-1.24,14.16ZM1408.68,604.02l-1.59,1.47-2.27-2.47,1.16-13.21,2.11-1.9,1.84,1.9-1.25,14.21Z"/>
        </g>
        <g>
          <path class="f" d="M1084.02,624.1c-.28.61-.8.9-1.42.9-.42,0-.94-.14-1.37-.42-.57-.33-.8-.9-.8-1.51,0-.38.09-.75.28-1.18,1.75-3.78,3.07-9.44,3.97-16.24.61-4.48.85-10.01.94-14.63.05-1.18.85-1.65,2.03-1.65s1.75.61,1.75,1.65v.1c-.05,4.44-.52,11.37-1.13,16.14-.8,6.14-2.31,12.65-4.25,16.85ZM1095.63,589.32c1.09,0,1.79.52,1.79,1.7.05,4.53.38,9.96.99,14.44.94,6.84,2.27,12.65,4.01,16.47.19.38.28.76.28,1.13,0,.57-.28,1.13-.85,1.51-.42.28-.9.42-1.27.42-.61,0-1.18-.28-1.46-.9-2.03-4.15-3.4-10.81-4.25-16.94-.66-4.67-1.18-11.61-1.23-16.05.05-1.09.66-1.75,1.84-1.79h.14Z"/>
          <path class="f" d="M1120.4,592.24c0-.76.57-1.37,1.23-1.56.28-.1.52-.14.76-.14.61,0,1.13.28,1.42.99,1.27,3.54,2.36,8.59,3.07,12.41.05.24.05.42.05.61,0,.9-.47,1.37-1.32,1.6-.28.09-.57.14-.8.14-.66,0-1.27-.28-1.37-1.13-.61-3.92-1.75-8.83-2.93-12.32-.05-.19-.1-.42-.1-.61ZM1127.76,625.42c-.33.28-.75.42-1.18.42-.61,0-1.27-.28-1.7-.9-.33-.33-.47-.71-.47-1.08,0-.52.24-.99.75-1.51,4.25-3.82,7.88-8.31,9.91-15.01,1.94-6.51,2.03-11.99,2.17-16.33.1-1.13.8-1.56,1.6-1.56.14,0,.28,0,.42.05.94.09,1.75.52,1.75,1.89v.09c-.28,5.43-.94,11.8-2.6,17.32-2.12,6.89-5.9,12.37-10.67,16.61ZM1133.19,602.11c0,.99-.61,1.46-1.37,1.7-.24.05-.52.1-.76.1-.66,0-1.18-.28-1.37-1.09-.61-4.01-1.56-8.68-2.74-12.22-.05-.24-.09-.47-.09-.66,0-.71.42-1.18,1.13-1.42.38-.1.71-.19,1.04-.19.57,0,1.04.24,1.23.85,1.27,3.54,2.27,8.69,2.88,12.51.05.14.05.28.05.42Z"/>
          <path class="f" d="M1162.02,593.19c-.99,0-1.51-.61-1.51-1.7s.52-1.84,1.51-1.84h16.38c1.04,0,1.51.71,1.51,1.79s-.52,1.75-1.51,1.75h-7.79v9.96h8.92c1.04,0,1.51.76,1.51,1.84s-.52,1.7-1.51,1.7h-8.92v12.04c0,2.27.61,3.02,2.88,3.02,1.75,0,3.92-.14,4.81-.28.19-.05.38-.05.57-.05.94,0,1.56.47,1.65,1.7v.28c0,1.13-.61,1.56-1.46,1.7-1.75.28-3.96.33-6.23.33-4.63,0-5.95-1.75-5.95-6.61v-12.13h-5.85c-.99,0-1.51-.61-1.51-1.7s.47-1.84,1.51-1.84h5.85v-9.96h-4.86Z"/>
          <path class="f" d="M1201.8,592.39c-1.23,0-1.89-.9-1.89-2.08s.66-2.12,1.89-2.12h21.76c1.79,0,2.55.85,2.55,2.41,0,1.7-.61,2.41-1.56,3.68-5.29,7.22-9.39,17.32-11.89,28.89-.33,1.51-1.23,2.03-2.45,2.03h-.14c-1.32-.05-2.36-.71-2.36-1.94,0-.19.05-.42.09-.61,2.41-10.76,7.18-21.66,13.08-30.25h-19.07Z"/>
          <path class="f" d="M1261.88,597.91c-.19,6.7-.71,11.14-1.7,15.2-1.32,5.29-4.15,10.15-7.55,13.22-.38.33-.8.47-1.23.47-.57,0-1.18-.28-1.6-.85-.28-.33-.42-.75-.42-1.13,0-.52.24-.99.71-1.46,2.97-2.69,5.14-6.61,6.37-10.86.99-3.4,1.51-7.98,1.75-14.58h-6.14c-1.04,3.35-2.03,6.32-3.4,8.59-.33.57-.94.85-1.56.85-.42,0-.85-.1-1.23-.33-.52-.28-.8-.8-.8-1.42,0-.38.1-.76.33-1.13,1.79-3.16,3.26-7.22,4.48-12.84.38-1.6.61-3.11.76-4.15.14-.99.85-1.32,1.7-1.32h.38c.99.09,1.6.57,1.6,1.51,0,.14,0,.24-.05.38-.14.9-.33,1.84-.61,3.3-.19.94-.52,2.22-.76,2.97.85-.05,1.7-.09,2.69-.09h10.05c.9,0,1.46.71,1.46,1.79s-.57,1.89-1.46,1.89h-3.77Z"/>
        </g>
        <g>
          <path class="f" d="M1433,593.09c-1.32,0-1.7.33-1.7,1.75v9.44c0,1.09-.9,1.6-1.89,1.6s-1.89-.52-1.89-1.6v-10.48c0-3.02,1.27-4.44,4.01-4.44h10.62c3.3,0,4.53,1.42,4.48,5-.1,6.8-.94,13.26-2.64,18.36-1.75,5.19-5.24,10.19-9.53,13.12-.38.24-.75.38-1.13.38-.61,0-1.23-.28-1.51-.85-.28-.47-.42-.9-.42-1.27,0-.61.28-1.08.85-1.51,4.29-3.16,6.75-6.8,8.26-11.19,1.56-4.48,2.27-10.57,2.31-16.57,0-1.46-.38-1.75-1.6-1.75h-8.21Z"/>
          <path class="f" d="M1471.74,609.42c0,1.04-.85,1.56-1.89,1.56s-1.89-.47-1.89-1.56v-20.2c0-1.09.9-1.56,1.89-1.56s1.89.52,1.89,1.56v20.2ZM1484.68,604c0,7.84-.8,11.71-2.83,15.25-1.84,3.26-5.05,5.57-8.31,7.17-.33.14-.66.24-.99.24-.71,0-1.37-.38-1.79-1.18-.14-.33-.24-.61-.24-.94,0-.71.47-1.27,1.13-1.6,2.64-1.27,5.33-3.02,6.94-5.76,1.65-2.83,2.31-6,2.31-13.12v-14.82c0-1.09.9-1.56,1.89-1.56s1.89.47,1.89,1.56v14.77Z"/>
          <path class="f" d="M1519.79,607.21c2.41,3.3,4.63,6.75,6.23,9.82.19.38.28.8.28,1.13,0,.61-.28,1.13-.8,1.46-.42.28-.9.43-1.27.43-.61,0-1.13-.28-1.42-.85-1.37-2.69-3.02-5.33-4.77-7.88-2.64,5.66-6.09,10.38-9.87,13.97-.38.38-.9.57-1.37.57-.52,0-1.04-.24-1.46-.66-.38-.38-.52-.85-.52-1.27,0-.57.24-1.13.71-1.56,3.92-3.59,7.55-8.78,9.96-14.54-2.69-3.59-5.57-6.89-8.17-9.82-.38-.42-.57-.85-.57-1.27,0-.52.24-.99.66-1.37.38-.33.85-.52,1.32-.52s.94.19,1.37.61c1.98,2.13,4.44,4.96,6.89,8.12,1.7-5.33,2.74-10.95,3.26-14.77.14-1.09.85-1.46,1.6-1.46.19,0,.38,0,.57.05.94.14,1.7.66,1.7,1.7v.28c-.66,5.05-2.31,12.13-4.3,17.65l-.05.19Z"/>
        </g>
      </g>
      <g id="d" data-name="UUUUZAQI">
        <path class="f" d="M266.72,554.6h-115.5l-70.99-70.99v-188.56h78.06v181.49h108.43c9.75,0,17.69-7.93,17.69-17.69v-163.8h78.06v163.8c0,52.79-42.95,95.74-95.74,95.74ZM155.36,544.6h111.36c47.28,0,85.74-38.46,85.74-85.74v-153.8h-58.06v153.8c0,15.27-12.42,27.69-27.69,27.69h-118.43v-181.49h-58.06v174.42l65.13,65.13Z"/>
        <path class="g" d="M868.01,551.6h-397.46c-51.14,0-92.74-41.6-92.74-92.74v-.83l69.23-69.23h418.15v-18.69h-418.15l-72.06-72.06h494.2v68.06h68.06v25.52l-69.23,69.23h-418.05c1.01,10.47,9.86,18.69,20.59,18.69h469.52l-72.06,72.06ZM381.81,459.68c.44,48.56,40.08,87.92,88.74,87.92h395.8l64.06-64.06h-459.86c-13.61,0-24.69-11.08-24.69-24.69v-2h420.49l66.89-66.89v-19.86h-64.06v22.69h-420.49l-66.88,66.88ZM448.69,366.11h416.49v-64.06h-480.55l64.06,64.06Z"/>
        <path class="f" d="M1156.76,561.67v-158.8l-60.99,60.99h-47.44c-9.75,0-17.69,7.93-17.69,17.68v73.06h-78.06v-73.06c0-34.18,18.27-65.77,47.8-82.88h-47.8v-7.86c0-52.79,42.95-95.75,95.75-95.75h115.5l70.99,70.99v117.57l-78.06,78.06ZM962.58,544.6h58.06v-63.06c0-15.27,12.42-27.68,27.69-27.68h43.3l58.06-58.06h-101.36c-5.97,0-11.9.62-17.69,1.83v1.03h-4.36c-6.78,1.79-13.32,4.43-19.47,7.85-27.28,15.13-44.22,43.88-44.22,75.03v63.06ZM1166.76,392.87v144.66l58.06-58.06v-109.29l-65.13-65.13h-111.36c-46.56,0-84.58,37.31-85.72,83.61h58.11c1.1-14.27,13.06-25.55,27.61-25.55h118.43v29.76ZM1048.33,373.11c-8.58,0-15.75,6.14-17.35,14.26,5.7-1.04,11.51-1.57,17.35-1.57h108.43v-12.69h-108.43Z"/>
        <path class="f" d="M1529.39,554.6h-282.23v-78.06h102.09v-103.43h-102.09v-78.06h109.16l60.99,60.99v-60.99h112.09v78.06h-102.09v103.43h102.09v78.06ZM1257.16,544.6h262.23v-58.06h-102.09v-116.36l-65.13-65.13h-95.02v58.06h102.09v123.43h-102.09v58.06ZM1427.31,363.11h92.09v-58.06h-92.09v58.06Z"/>
      </g>
      <g id="e" data-name="DDDIEWGO">
        <path class="f" d="M281.8,266.59h-115.46c-52.79,0-95.73-42.94-95.73-95.73v-95.73h60.96L63.54,7.07h193.52c52.78,0,95.73,42.94,95.73,95.73v92.8l-70.99,70.99ZM80.61,85.14v85.73c0,47.27,38.46,85.73,85.73,85.73h111.32l65.13-65.14v-88.66c0-47.27-38.46-85.73-85.73-85.73H87.67l58.03,58.06h111.39c15.27,0,27.7,12.43,27.7,27.7v95.73h-118.43c-15.27,0-27.7-12.43-27.7-27.7v-85.73h-58.06ZM148.67,85.14v85.73c0,9.76,7.94,17.7,17.7,17.7h108.43v-85.73c0-9.76-7.94-17.7-17.7-17.7h-108.43Z"/>
        <path class="f" d="M647.39,266.59h-282.21v-78.05h102.08v-103.42h-102.08V7.07h109.15l60.98,60.98V7.07h112.08v78.05h-102.08v103.42h102.08v78.05ZM375.18,256.59h262.21v-58.05h-102.08v-116.35l-65.12-65.12h-95.01v58.05h102.08v123.42h-102.08v58.05ZM545.31,75.12h92.08V17.07h-92.08v58.05Z"/>
        <path class="f" d="M941.97,266.59h-186.47c-52.79,0-95.74-42.95-95.74-95.74v-7.86h47.79c-29.53-17.11-47.79-48.7-47.79-82.87v-5h68.05V7.07h118.42c52.79,0,95.74,42.95,95.74,95.74v5h-106.35l68.05,68.05h-148.17c-5.83,0-11.65-.53-17.35-1.57,1.6,8.12,8.77,14.25,17.35,14.25h186.47v78.05ZM669.79,173c1.14,46.29,39.15,83.6,85.71,83.6h176.47v-58.05h-176.47c-14.55,0-26.51-11.28-27.6-25.54h-58.11ZM737.81,164.03c5.79,1.21,11.72,1.83,17.68,1.83h124.03l-58.05-58.05h-65.98c-13.56,0-24.87-9.8-27.23-22.68h-58.36c1.71,29.2,18.26,55.71,44.07,70.02,6.15,3.42,12.7,6.06,19.47,7.85h4.36v1.03ZM738.53,85.12c2.16,7.32,8.95,12.68,16.96,12.68h70.12l6.52,6.52,18.62-18.61c-1.46-.39-2.98-.59-4.53-.59h-107.7ZM852.8,97.81h79.02c-2.6-44.96-40-80.74-85.59-80.74h-108.42v58.05h108.42c5.73,0,11.24,1.75,15.93,5.06l4.85,3.42-14.21,14.2Z"/>
        <path class="f" d="M1168.49,266.59h-118.42c-25.57,0-49.61-9.96-67.69-28.04-18.08-18.08-28.04-42.12-28.04-67.69V0l68.05,68.05V7.07h221.22l-78.05,78.05h-133.17v85.73c0,9.75,7.93,17.68,17.68,17.68h107.7c-2.16-7.32-8.95-12.68-16.96-12.68h-24.76l-78.05-78.05h102.81c52.79,0,95.74,42.95,95.74,95.74v5h-68.05v68.05ZM964.34,24.14v146.71c0,22.9,8.92,44.43,25.11,60.62,16.2,16.19,37.72,25.11,60.62,25.11h108.42v-58.05h-108.42c-15.26,0-27.68-12.42-27.68-27.68v-88.66l-58.05-58.05ZM1168.04,188.54h58.36c-2.6-44.96-40-80.74-85.59-80.74h-78.66l58.05,58.05h20.61c13.56,0,24.87,9.8,27.23,22.68ZM1032.39,75.12h129.03l58.05-58.05h-187.08v58.05Z"/>
        <path class="g" d="M1458.9,263.59h-138.93v-68.05h-68.05v-116.25l69.22-69.22h138.93v68.05h68.05v116.25l-69.22,69.22ZM1323.97,259.59h133.27l66.88-66.88v-110.59h-64.05v113.42h-136.1v64.05ZM1323.97,191.54h132.1v-109.42h-132.1v109.42ZM1255.92,191.54h64.05v-113.42h136.1V14.07h-133.27l-66.88,66.88v110.59Z"/>
      </g>
    </g>
  </g>
</svg>