<?xml version="1.0" encoding="UTF-8"?><svg id="b" xmlns="http://www.w3.org/2000/svg" viewBox="0 0 1845.87 151.68"><defs><style>.f{fill:#5900ff;}</style></defs><g id="c"><g id="d"><g id="e"><path class="f" d="M0,149.16v-1.29h83.79c-5.46.86-11.18,1.29-17.17,1.29H0ZM0,133.48v-3.07h123.47c-1.26,1.07-2.56,2.09-3.91,3.07H0ZM0,117.4v-4.46h34.15v4.46H0ZM0,101.32v-5.84h34.15v5.84H0ZM0,85.24v-7.22h34.15v7.22H0ZM0,69.16v-8.6h34.15v8.6H0ZM0,53.08v-9.99h34.15v9.99H0ZM0,37v-11.37h128.16c3.36,3.44,6.35,7.23,8.95,11.37h-44.39c-.75-.45-1.53-.87-2.32-1.28-7.2-3.7-15.68-5.55-25.46-5.55h-30.8v6.83H0h0ZM0,20.92v-12.75h100.73c2.75,1.02,5.42,2.17,8,3.46,5.28,2.64,10.05,5.74,14.32,9.3H0ZM0,4.84v-2.33h66.62c8.05,0,15.61.78,22.69,2.33H0ZM140.49,43.09c1.55,3.19,2.84,6.51,3.87,9.99h-36.35c-.27-.52-.56-1.04-.85-1.55-1.83-3.15-4-5.96-6.51-8.44h39.84ZM146.15,60.56c.51,2.79.88,5.65,1.1,8.6h-34.48c-.34-3.02-.91-5.89-1.73-8.6h35.11ZM147.46,78.02c-.06,2.46-.21,4.87-.46,7.22h-34.63c.39-2.32.63-4.73.72-7.22h34.37ZM145.21,95.48c-.49,1.99-1.07,3.94-1.72,5.84h-37.1c.26-.42.52-.85.77-1.29.84-1.47,1.6-2.98,2.26-4.55h35.79ZM138.16,112.95c-.3.52-.61,1.03-.93,1.54-.62.99-1.26,1.96-1.92,2.91h-48c1.06-.45,2.09-.93,3.1-1.45,1.76-.91,3.43-1.91,5-3.01h42.76Z"/><path class="f" d="M235.89,2.51h34.15v2.33h-34.15v-2.33ZM270.04,8.17v12.75h-34.15v-12.75h34.15ZM270.04,25.63v11.37h-34.15v-11.37h34.15ZM270.04,43.09v9.99h-34.15v-9.99h34.15ZM270.04,60.56v8.6h-34.15v-8.6h34.15ZM270.04,78.02v7.22h-34.15v-7.22h34.15ZM270.04,95.48v5.84h-34.15v-5.84h34.15ZM270.04,112.95v4.46h-34.15v-4.46h34.15ZM270.04,130.41v3.07h-34.15v-3.07h34.15ZM270.04,147.87v1.29h-34.15v-1.29h34.15Z"/><path class="f" d="M367.45,149.16v-1.29h113.55v1.29h-113.55ZM367.45,133.48v-3.07h113.55v3.07h-113.55ZM367.45,117.4v-4.46h33.73v4.46h-33.73ZM367.45,101.32v-5.84h33.73v5.84h-33.73ZM350.31,85.24v-7.22h95.01v7.22h-95.01ZM350.31,69.16v-7.78h17.14v-.83h33.73v.83h44.14v7.78h-95.01,0ZM367.45,53.08v-9.99h33.73v9.99h-33.73ZM367.45,37v-11.37h110.83v4.12h-77.1v7.25h-33.73ZM367.45,20.92v-12.75h110.83v12.75h-110.83ZM367.45,4.84v-2.33h110.83v2.33h-110.83Z"/><path class="f" d="M641.69,151.68c-9.6,0-18.57-1.27-26.92-3.8h55.15c-9.41,2.54-18.82,3.8-28.23,3.8ZM587.82,133.48c-1.17-.99-2.32-2.01-3.43-3.07h116.58v2.62c-.2.15-.4.3-.6.45h-112.56,0ZM573.61,117.4c-.94-1.45-1.83-2.93-2.67-4.46h42.24c2.14,1.67,4.45,3.16,6.91,4.46h-46.48ZM565.73,101.32c-.66-1.91-1.24-3.86-1.74-5.84h35.84c.86,2.05,1.85,4,2.97,5.84h-37.07ZM562.16,85.24c-.26-2.36-.42-4.77-.48-7.22h34.37c.09,2.47.35,4.88.77,7.22h-34.66ZM561.91,69.16c.23-2.94.6-5.8,1.13-8.6h35.11c-.83,2.74-1.41,5.61-1.76,8.6h-34.48ZM564.85,53.08c.78-2.61,1.71-5.15,2.78-7.62.34-.8.7-1.59,1.07-2.37h39.45c-2.79,2.97-5.13,6.3-7,9.99h-36.29ZM571.94,37c2.41-4.06,5.21-7.85,8.38-11.37h123.07l-12.2,11.37h-18.99c-2.49-1.67-5.05-3.07-7.68-4.22-6.29-2.72-13.2-4.09-20.74-4.09-6.99,0-13.41,1.15-19.27,3.46-3.33,1.31-6.41,2.92-9.23,4.84h-43.34ZM584.97,20.92c5.58-5.16,11.89-9.41,18.93-12.75h77.25c6.91,3.32,13.03,7.57,18.38,12.75h-114.55ZM612.01,4.84c9.25-3.23,19.35-4.84,30.31-4.84s21.46,1.62,30.75,4.84h-61.06,0ZM684.66,43.09l-2.54,2.37c-.78-.82-1.57-1.61-2.36-2.37h4.9ZM668.45,117.4c.51-.25,1.01-.5,1.51-.77v-3.69h31.01v4.46h-32.52ZM669.97,101.32v-5.84h31.01v5.84h-31.01ZM669.97,85.24v-7.22h31.01v7.22h-31.01Z"/><path class="f" d="M866.48,151.68c-9.51,0-18.4-1.27-26.69-3.8h53.33c-8.28,2.53-17.17,3.8-26.64,3.8ZM812.71,133.48c-1.2-.99-2.37-2.01-3.51-3.07h114.36c-1.13,1.06-2.29,2.09-3.48,3.07h-107.37ZM798.15,117.4c-.96-1.45-1.87-2.93-2.72-4.46h41.59c2.05,1.69,4.24,3.17,6.59,4.46h-45.46,0ZM790.17,101.32c-.67-1.91-1.25-3.86-1.76-5.84h35.72c.87,2.04,1.85,3.98,2.96,5.84h-36.91ZM786.55,85.24c-.27-2.36-.43-4.77-.49-7.22h34.37c.09,2.5.33,4.9.72,7.22h-34.6ZM786.28,69.16c.23-2.94.6-5.81,1.13-8.6h35.12c-.83,2.73-1.43,5.6-1.78,8.6h-34.48,0ZM789.24,53.08c.78-2.57,1.7-5.08,2.76-7.52.36-.83.74-1.66,1.13-2.47h39.33c-2.72,3-5.01,6.33-6.88,9.99h-36.34ZM796.41,37c2.44-4.06,5.26-7.85,8.47-11.37h122.97c3.17,3.52,5.96,7.31,8.38,11.37h-43.12c-2.69-1.93-5.6-3.54-8.72-4.84-5.52-2.31-11.56-3.46-18.12-3.46s-12.64,1.15-18.23,3.46c-3.16,1.3-6.08,2.92-8.77,4.84h-42.86,0ZM809.57,20.92c5.6-5.14,11.91-9.4,18.93-12.75h75.82c7,3.34,13.29,7.59,18.86,12.75h-113.62ZM836.51,4.84c9.11-3.23,19.03-4.84,29.75-4.84s20.83,1.62,30.01,4.84h-59.76ZM939.46,43.09c.37.78.73,1.57,1.07,2.37,1.07,2.47,1.99,5.02,2.78,7.62h-36.36c-1.88-3.66-4.2-6.99-6.96-9.99h39.48,0ZM945.13,60.56c.53,2.8.9,5.67,1.13,8.6h-34.48c-.35-3.01-.94-5.88-1.78-8.6h35.13ZM946.48,78.02c-.06,2.45-.22,4.86-.49,7.22h-34.6c.39-2.32.64-4.73.72-7.22h34.37ZM944.13,95.48c-.5,1.98-1.08,3.92-1.75,5.84h-36.96c1.12-1.85,2.11-3.8,2.97-5.84h35.73,0ZM937.19,112.95c-.85,1.52-1.74,3.01-2.69,4.46h-45.72c2.33-1.29,4.53-2.77,6.59-4.46h41.82Z"/><path class="f" d="M1222.2,151.68c-9.74,0-18.48-1.27-26.22-3.8h52.3c-7.71,2.54-16.4,3.8-26.07,3.8ZM1172.59,133.48c-.96-.99-1.88-2.01-2.76-3.07h104.52c-.88,1.06-1.8,2.08-2.76,3.07h-99.01,0ZM1161.88,117.4c-.63-1.44-1.22-2.93-1.75-4.46h37.78c.2.24.41.48.62.71,1.3,1.41,2.71,2.66,4.24,3.75h-40.89,0ZM1157.15,101.32c-.33-1.9-.6-3.84-.81-5.84h34.44c.33,2.07.74,4.02,1.26,5.84h-34.89,0ZM1155.79,85.24c0-.27,0-.54,0-.81v-6.41h34.15v5.57c0,.56,0,1.11.01,1.65h-34.16ZM1155.79,69.16v-8.6h34.15v8.6h-34.15ZM1155.79,53.08v-9.99h34.15v9.99h-34.15ZM1155.79,37v-11.37h34.15v11.37h-34.15ZM1155.79,20.92v-12.75h34.15v12.75h-34.15ZM1155.79,4.84v-2.33h34.15v2.33h-34.15ZM1242.25,117.4c1.54-1.09,2.95-2.34,4.25-3.75.21-.23.42-.47.62-.71h36.94c-.53,1.53-1.12,3.01-1.75,4.46h-40.07ZM1252.99,101.32c.51-1.82.93-3.77,1.26-5.84h33.6c-.21,2-.48,3.94-.81,5.84h-34.05,0ZM1255.08,85.24c0-.55.01-1.1.01-1.65v-5.57h33.31v6.41c0,.27,0,.54,0,.81h-33.32ZM1255.09,69.16v-8.6h33.31v8.6h-33.31ZM1255.09,53.08v-9.99h33.31v9.99h-33.31ZM1255.09,37v-11.37h33.31v11.37h-33.31ZM1255.09,20.92v-12.75h33.31v12.75h-33.31ZM1255.09,4.84v-2.33h33.31v2.33h-33.31Z"/><path class="f" d="M1375.55,149.16v-1.29h128.21v1.29h-128.21ZM1375.55,133.48v-3.07h128.21v3.07h-128.21ZM1383.65,117.4l3.7-4.46h40.09l-3.69,4.46h-40.1ZM1396.99,101.32l4.84-5.84h40.05l-4.83,5.84h-40.07ZM1410.33,85.24l5.99-7.22h40.02l-5.98,7.22h-40.04ZM1423.67,69.16l7.14-8.6h39.99l-7.12,8.6h-40ZM1437.01,53.08l7.27-8.76,1.02-1.23h39.95l-8.27,9.99h-39.97ZM1450.34,37l5.67-6.83h-78.78v-4.54h122.47l-9.41,11.37h-39.94ZM1377.23,20.92v-12.75h123.39v12.75h-123.39ZM1377.23,4.84v-2.33h123.39v2.33h-123.39Z"/><path class="f" d="M1569.13,149.16l.57-1.29h34.74l-.54,1.29h-34.78ZM1576.09,133.48l1.37-3.07h34.24l-1.28,3.07h-34.33ZM1583.24,117.4l1.98-4.46h33.75l-1.85,4.46h-33.87ZM1590.38,101.32l2.59-5.84h33.25l-2.43,5.84h-33.42ZM1597.53,85.24l3.21-7.22h32.75l-3,7.22h-32.96,0ZM1604.67,69.16l3.82-8.6h32.26l-3.58,8.6h-32.5ZM1611.81,53.08l4.44-9.99h31.76l-4.15,9.99h-32.05ZM1618.96,37l5.05-11.37h54.16l5.1,11.37h-31.95l-.39-.94-.39.94h-31.59,0ZM1626.1,20.92l5.67-12.75h38.57l5.72,12.75h-49.96ZM1633.25,4.84l1.03-2.33h33.52l1.04,2.33h-35.6ZM1686,43.09l4.48,9.99h-32.47l-4.15-9.99h32.15ZM1693.84,60.56l3.86,8.6h-33l-3.58-8.6h32.72ZM1701.67,78.02l3.24,7.22h-33.52l-3-7.22h33.29ZM1709.5,95.48l2.62,5.84h-34.05l-2.43-5.84h33.86ZM1717.34,112.95l2,4.46h-34.58l-1.85-4.46h34.43ZM1725.17,130.41l1.38,3.07h-35.1l-1.28-3.07h35ZM1733,147.87l.58,1.29h-35.61l-.54-1.29h35.57,0Z"/><path class="f" d="M1811.73,2.51h34.15v2.33h-34.15v-2.33ZM1845.87,8.17v12.75h-34.15v-12.75h34.15ZM1845.87,25.63v11.37h-34.15v-11.37h34.15ZM1845.87,43.09v9.99h-34.15v-9.99h34.15ZM1845.87,60.56v8.6h-34.15v-8.6h34.15ZM1845.87,78.02v7.22h-34.15v-7.22h34.15ZM1845.87,95.48v5.84h-34.15v-5.84h34.15ZM1845.87,112.95v4.46h-34.15v-4.46h34.15ZM1845.87,130.41v3.07h-34.15v-3.07h34.15ZM1845.87,147.87v1.29h-34.15v-1.29h34.15Z"/></g></g></g></svg>