<?xml version="1.0" encoding="UTF-8"?>
<svg id="b" data-name="Camada 2" xmlns="http://www.w3.org/2000/svg" viewBox="0 0 690.08 149.16">
  <defs>
    <style>
      .d {
        fill: #5900ff;
      }
    </style>
  </defs>
  <g id="c" data-name="Camada 1">
    <g>
      <path class="d" d="M66.41,149.16c-9.74,0-18.48-1.27-26.22-3.8h52.3c-7.71,2.54-16.4,3.8-26.07,3.8ZM16.8,130.97c-.96-.99-1.88-2.01-2.76-3.07h104.52c-.88,1.06-1.8,2.08-2.76,3.07H16.8h0ZM6.09,114.89c-.63-1.44-1.22-2.93-1.75-4.46h37.78c.2.24.41.48.62.71,1.3,1.41,2.71,2.66,4.24,3.75H6.09h0ZM1.36,98.81c-.33-1.9-.6-3.84-.81-5.84h34.44c.33,2.07.74,4.02,1.26,5.84H1.36h0ZM0,82.73c0-.27,0-.54,0-.81v-6.41h34.15v5.57c0,.56,0,1.11.01,1.65H0ZM0,66.65v-8.6h34.15v8.6H0ZM0,50.57v-9.99h34.15v9.99H0ZM0,34.49v-11.37h34.15v11.37H0ZM0,18.41V5.66h34.15v12.75H0ZM0,2.33V0h34.15v2.33H0ZM86.46,114.89c1.54-1.09,2.95-2.34,4.25-3.75.21-.23.42-.47.62-.71h36.94c-.53,1.53-1.12,3.01-1.75,4.46h-40.07ZM97.2,98.81c.51-1.82.93-3.77,1.26-5.84h33.6c-.21,2-.48,3.94-.81,5.84h-34.05,0ZM99.29,82.73c0-.55.01-1.1.01-1.65v-5.57h33.31v6.41c0,.27,0,.54,0,.81h-33.32ZM99.3,66.65v-8.6h33.31v8.6h-33.31ZM99.3,50.57v-9.99h33.31v9.99h-33.31ZM99.3,34.49v-11.37h33.31v11.37h-33.31ZM99.3,18.41V5.66h33.31v12.75h-33.31ZM99.3,2.33V0h33.31v2.33h-33.31Z"/>
      <path class="d" d="M219.76,146.65v-1.29h128.21v1.29h-128.21ZM219.76,130.97v-3.07h128.21v3.07h-128.21ZM227.86,114.89l3.7-4.46h40.09l-3.69,4.46h-40.1ZM241.2,98.81l4.84-5.84h40.05l-4.83,5.84h-40.07ZM254.54,82.73l5.99-7.22h40.02l-5.98,7.22h-40.04ZM267.88,66.65l7.14-8.6h39.99l-7.12,8.6h-40ZM281.22,50.57l7.27-8.76,1.02-1.23h39.95l-8.27,9.99h-39.97ZM294.55,34.49l5.67-6.83h-78.78v-4.54h122.47l-9.41,11.37h-39.94ZM221.44,18.41V5.66h123.39v12.75h-123.39ZM221.44,2.33V0h123.39v2.33h-123.39Z"/>
      <path class="d" d="M413.34,146.65l.57-1.29h34.74l-.54,1.29h-34.78ZM420.3,130.97l1.37-3.07h34.24l-1.28,3.07h-34.33ZM427.45,114.89l1.98-4.46h33.75l-1.85,4.46h-33.87ZM434.59,98.81l2.59-5.84h33.25l-2.43,5.84h-33.42ZM441.74,82.73l3.21-7.22h32.75l-3,7.22h-32.96,0ZM448.88,66.65l3.82-8.6h32.26l-3.58,8.6h-32.5ZM456.02,50.57l4.44-9.99h31.76l-4.15,9.99h-32.05ZM463.17,34.49l5.05-11.37h54.16l5.1,11.37h-31.95l-.39-.94-.39.94h-31.59,0ZM470.31,18.41l5.67-12.75h38.57l5.72,12.75h-49.96ZM477.46,2.33L478.49,0h33.52l1.04,2.33h-35.6ZM530.21,40.58l4.48,9.99h-32.47l-4.15-9.99h32.15ZM538.05,58.04l3.86,8.6h-33l-3.58-8.6h32.72ZM545.88,75.51l3.24,7.22h-33.52l-3-7.22h33.29ZM553.71,92.97l2.62,5.84h-34.05l-2.43-5.84h33.86ZM561.55,110.43l2,4.46h-34.58l-1.85-4.46h34.43ZM569.38,127.9l1.38,3.07h-35.1l-1.28-3.07h35ZM577.21,145.36l.58,1.29h-35.61l-.54-1.29h35.57,0Z"/>
      <path class="d" d="M655.93,0h34.15v2.33h-34.15V0ZM690.08,5.66v12.75h-34.15V5.66h34.15ZM690.08,23.12v11.37h-34.15v-11.37h34.15ZM690.08,40.58v9.99h-34.15v-9.99h34.15ZM690.08,58.04v8.6h-34.15v-8.6h34.15ZM690.08,75.51v7.22h-34.15v-7.22h34.15ZM690.08,92.97v5.84h-34.15v-5.84h34.15ZM690.08,110.43v4.46h-34.15v-4.46h34.15ZM690.08,127.9v3.07h-34.15v-3.07h34.15ZM690.08,145.36v1.29h-34.15v-1.29h34.15Z"/>
    </g>
  </g>
</svg>